<svg width="65" height="64" viewBox="0 0 65 64" fill="none" xmlns="http://www.w3.org/2000/svg">
    <path d="M0.666687 32C0.666687 14.3269 14.9936 0 32.6667 0C50.3398 0 64.6667 14.3269 64.6667 32C64.6667 49.6731 50.3398 64 32.6667 64C14.9936 64 0.666687 49.6731 0.666687 32Z" fill="white" fill-opacity="0.1"/>
    <g clip-path="url(#clip0_18_19441)">
    <path d="M50.6667 24.8947C50.6667 22.4638 47.7399 16.6905 46.8435 14.9796C46.6879 14.6828 46.4596 14.4353 46.1822 14.263C45.9049 14.0907 45.5887 13.9999 45.2667 14H20.0667C19.7478 13.9999 19.4346 14.0889 19.1591 14.258C18.8836 14.4272 18.6558 14.6703 18.4989 14.9625C17.6007 16.6394 14.6667 22.3084 14.6667 24.8947C14.6675 25.7222 14.8274 26.5409 15.1367 27.3015C15.446 28.0622 15.8985 28.7491 16.4667 29.3208V48.1053C16.4667 48.6078 16.6563 49.0897 16.9939 49.445C17.3315 49.8004 17.7893 50 18.2667 50H21.8667C22.3441 50 22.8019 49.8004 23.1395 49.445C23.477 49.0897 23.6667 48.6078 23.6667 48.1053V36.7368H30.8667V48.1053C30.8667 48.6078 31.0563 49.0897 31.3939 49.445C31.7315 49.8004 32.1893 50 32.6667 50H47.0667C47.5441 50 48.0019 49.8004 48.3395 49.445C48.677 49.0897 48.8667 48.6078 48.8667 48.1053V29.2413C49.4253 28.6784 49.8721 28.0044 50.1812 27.2582C50.4902 26.512 50.6552 25.7086 50.6667 24.8947ZM21.1305 17.7895H44.1867C45.4296 20.0195 46.3974 22.4071 47.0667 24.8947C47.0297 25.5101 46.7808 26.0902 46.3666 26.5262C45.9524 26.9622 45.4013 27.2243 44.8167 27.2632C44.2202 27.2622 43.6485 27.0123 43.2267 26.5684C42.805 26.1244 42.5676 25.5226 42.5667 24.8947C42.5667 24.3922 42.377 23.9103 42.0395 23.555C41.7019 23.1996 41.2441 23 40.7667 23C40.2893 23 39.8315 23.1996 39.4939 23.555C39.1563 23.9103 38.9667 24.3922 38.9667 24.8947C38.9667 25.5229 38.7296 26.1253 38.3077 26.5695C37.8857 27.0136 37.3134 27.2632 36.7167 27.2632C36.1199 27.2632 35.5477 27.0136 35.1257 26.5695C34.7037 26.1253 34.4667 25.5229 34.4667 24.8947C34.4667 24.3922 34.277 23.9103 33.9395 23.555C33.6019 23.1996 33.1441 23 32.6667 23C32.1893 23 31.7315 23.1996 31.3939 23.555C31.0563 23.9103 30.8667 24.3922 30.8667 24.8947C30.8667 25.5229 30.6296 26.1253 30.2077 26.5695C29.7857 27.0136 29.2134 27.2632 28.6167 27.2632C28.0199 27.2632 27.4477 27.0136 27.0257 26.5695C26.6037 26.1253 26.3667 25.5229 26.3667 24.8947C26.3667 24.3922 26.177 23.9103 25.8395 23.555C25.5019 23.1996 25.0441 23 24.5667 23C24.0893 23 23.6315 23.1996 23.2939 23.555C22.9563 23.9103 22.7667 24.3922 22.7667 24.8947C22.7657 25.5226 22.5284 26.1244 22.1066 26.5684C21.6849 27.0123 21.1131 27.2622 20.5167 27.2632C19.9223 27.2553 19.3543 27.0032 18.934 26.5608C18.5136 26.1183 18.2742 25.5204 18.2667 24.8947C18.9043 22.3982 19.8681 20.007 21.1305 17.7895ZM42.5667 40.5263C42.5667 40.7776 42.4719 41.0185 42.3031 41.1962C42.1343 41.3739 41.9054 41.4737 41.6667 41.4737H36.2667C36.028 41.4737 35.7991 41.3739 35.6303 41.1962C35.4615 41.0185 35.3667 40.7776 35.3667 40.5263V34.8421C35.3667 34.5908 35.4615 34.3499 35.6303 34.1722C35.7991 33.9945 36.028 33.8947 36.2667 33.8947H41.6667C41.9054 33.8947 42.1343 33.9945 42.3031 34.1722C42.4719 34.3499 42.5667 34.5908 42.5667 34.8421V40.5263Z" fill="white"/>
    </g>
    <defs>
    <clipPath id="clip0_18_19441">
    <rect width="36" height="36" fill="white" transform="translate(14.6667 14)"/>
    </clipPath>
    </defs>
    </svg>
    