<svg width="65" height="64" viewBox="0 0 65 64" fill="none" xmlns="http://www.w3.org/2000/svg">
    <path
        d="M0.333344 32C0.333344 14.3269 14.6602 0 32.3333 0C50.0065 0 64.3333 14.3269 64.3333 32C64.3333 49.6731 50.0065 64 32.3333 64C14.6602 64 0.333344 49.6731 0.333344 32Z"
        fill="white" fill-opacity="0.1" />
    <g clip-path="url(#clip0_18_19451)">
        <path
            d="M31.5271 37.556C32.3639 38.3901 33.4973 38.8584 34.6789 38.8584C35.8604 38.8584 36.9938 38.3901 37.8306 37.556L39.4065 35.9804C40.2433 35.1463 41.3766 34.678 42.5582 34.678C43.7398 34.678 44.8732 35.1463 45.71 35.9804L48.8617 39.1317C49.3225 39.5174 49.693 39.9995 49.9473 40.544C50.2016 41.0884 50.3333 41.682 50.3333 42.2829C50.3333 42.8838 50.2016 43.4774 49.9473 44.0219C49.693 44.5663 49.3225 45.0484 48.8617 45.4342C40.6086 53.6882 31.1084 49.7672 22.8305 41.4906C14.5527 33.214 10.6513 23.7242 18.9066 15.4702C19.2927 15.0098 19.7749 14.6396 20.3194 14.3856C20.864 14.1316 21.4575 14 22.0584 14C22.6592 14 23.2528 14.1316 23.7973 14.3856C24.3418 14.6396 24.8241 15.0098 25.2101 15.4702L28.3619 18.6214C29.1966 19.4578 29.6654 20.5911 29.6654 21.7727C29.6654 22.9543 29.1966 24.0876 28.3619 24.924L26.786 26.4996C25.9512 27.336 25.4824 28.4693 25.4824 29.6509C25.4824 30.8324 25.9512 31.9657 26.786 32.8021L31.5271 37.556Z"
            fill="white" />
    </g>
    <defs>
        <clipPath id="clip0_18_19451">
            <rect width="36" height="36" fill="white" transform="translate(14.3333 14)" />
        </clipPath>
    </defs>
</svg>