<svg width="459" height="297" viewBox="0 0 459 297" fill="none" xmlns="http://www.w3.org/2000/svg">
    <g clip-path="url(#clip0_11_6751)">
    <path d="M225.525 294.339C225.525 294.339 69.6746 296.158 26.2627 255.212C-17.1492 214.266 -0.807821 173.445 32.4277 161.891C65.6631 150.338 71.3307 138.295 53.4502 122.08C35.5697 105.865 12.8465 72.5605 50.5675 39.0969C88.2885 5.63324 131.32 53.6987 165.029 47.3151C198.739 40.9314 185.389 19.4379 229.719 34.2821C274.049 49.1262 264.279 5.89471 299.919 1.97694C335.558 -1.94083 331.904 46.9324 368.562 28.4851C405.22 10.0378 435.203 12.5823 450.964 41.8774C466.725 71.1724 459.878 110.637 425.303 134.154C390.728 157.672 394.44 156.069 407.361 179.178C420.282 202.287 431.87 278.283 373.044 289.137C314.217 299.991 225.525 294.339 225.525 294.339Z" fill="url(#paint0_linear_11_6751)"/>
    <path d="M81.3689 100.533C78.1801 123.054 64.9871 254.863 186.456 289.462C186.456 289.462 217.483 204.923 84.4684 99.2898C84.2024 99.0801 83.8858 98.9443 83.5505 98.896C83.2152 98.8477 82.8732 98.8887 82.5588 99.0149C82.2445 99.141 81.9689 99.3478 81.76 99.6144C81.5511 99.881 81.4162 100.198 81.3689 100.533Z" fill="#FABD91"/>
    <path d="M92.942 120.452C94.6235 127.992 96.6389 135.47 98.7945 142.898C100.95 150.325 103.314 157.695 105.846 165.005C110.918 179.626 116.709 193.988 123.401 207.922C130.093 221.857 137.714 235.359 146.645 247.955C148.879 251.101 151.188 254.194 153.607 257.197C156.026 260.201 158.497 263.149 161.122 265.983C163.748 268.817 166.42 271.58 169.243 274.197C172.066 276.814 174.983 279.326 178.01 281.699C178.095 281.765 178.167 281.847 178.221 281.941C178.274 282.035 178.309 282.138 178.322 282.245C178.336 282.352 178.328 282.461 178.299 282.565C178.27 282.669 178.221 282.767 178.154 282.852C178.088 282.937 178.005 283.008 177.911 283.061C177.816 283.114 177.713 283.147 177.605 283.16C177.498 283.172 177.389 283.164 177.285 283.134C177.182 283.104 177.085 283.054 177 282.987C173.943 280.565 170.997 278.018 168.161 275.347C165.319 272.686 162.621 269.875 159.998 267.003C157.374 264.132 154.881 261.147 152.464 258.105C150.046 255.063 147.731 251.94 145.499 248.752C136.571 236.029 129.003 222.42 122.347 208.415C115.691 194.411 109.974 179.962 104.964 165.297C102.467 157.959 100.149 150.564 98.0121 143.112C95.8863 135.657 93.9114 128.166 92.2617 120.579C92.242 120.489 92.2588 120.395 92.3084 120.318C92.3581 120.24 92.4365 120.186 92.5264 120.166C92.6163 120.146 92.7104 120.163 92.788 120.212C92.8655 120.262 92.9201 120.341 92.9399 120.43L92.942 120.452Z" fill="#FBDBBD"/>
    <path d="M273.971 286.35C273.971 286.35 220.982 120.635 397.482 33.1958C400.427 31.7397 405.171 35.2451 405.312 38.98C406.626 73.7382 401.772 199.037 273.971 286.35Z" fill="#FBDBBD"/>
    <path d="M382.049 78.5786C373.97 93.6006 365.843 108.597 357.665 123.568L351.5 134.784L345.291 145.967L339.043 157.132C336.962 160.854 334.836 164.553 332.735 168.264C324.298 183.083 315.854 197.908 307.149 212.576C298.443 227.243 289.695 241.898 280.48 256.26C280.437 256.329 280.369 256.378 280.29 256.396C280.212 256.415 280.129 256.401 280.06 256.359C279.991 256.316 279.942 256.248 279.924 256.169C279.905 256.091 279.919 256.008 279.961 255.939L286.581 244.998L293.103 233.997C295.28 230.332 297.414 226.642 299.572 222.966L302.799 217.439L305.988 211.898L318.724 189.717C322.939 182.305 327.168 174.901 331.345 167.467L356.481 122.911C364.853 108.052 373.184 93.1719 381.475 78.2704C381.519 78.1997 381.588 78.1486 381.669 78.1275C381.75 78.1064 381.835 78.1168 381.909 78.1567C381.982 78.1965 382.037 78.2628 382.063 78.342C382.089 78.4212 382.084 78.5073 382.049 78.5828V78.5786Z" fill="#FABD91"/>
    <path d="M60.255 225.696C72.5041 224.797 144.013 222.507 158.697 289.817C158.697 289.817 112.09 303.56 59.4833 227.335C59.3786 227.184 59.3154 227.008 59.3 226.825C59.2847 226.642 59.3178 226.459 59.396 226.292C59.4742 226.126 59.5948 225.984 59.7456 225.879C59.8964 225.774 60.0721 225.711 60.255 225.696Z" fill="#FBDBBD"/>
    <path d="M70.763 232.211C78.5776 234.55 86.2286 237.351 93.7774 240.421C101.326 243.491 108.729 246.915 115.942 250.724C123.155 254.534 130.155 258.76 136.775 263.562C140.088 265.965 143.277 268.536 146.328 271.264C149.377 274.012 152.241 276.959 154.902 280.085C154.972 280.167 155.025 280.263 155.058 280.365C155.091 280.468 155.103 280.576 155.095 280.683C155.086 280.79 155.056 280.895 155.007 280.991C154.958 281.087 154.89 281.172 154.808 281.242C154.726 281.312 154.631 281.365 154.529 281.398C154.426 281.431 154.318 281.443 154.211 281.435C154.103 281.426 153.999 281.396 153.903 281.347C153.807 281.298 153.722 281.23 153.652 281.148C151.069 278.054 148.285 275.134 145.319 272.405C142.332 269.684 139.21 267.116 135.965 264.71C129.462 259.893 122.542 255.633 115.412 251.77C108.282 247.908 100.927 244.445 93.4416 241.299C85.9565 238.153 78.3162 235.279 70.5781 232.877C70.4901 232.85 70.4164 232.789 70.3732 232.708C70.3299 232.627 70.3206 232.532 70.3474 232.444C70.3742 232.356 70.4348 232.282 70.516 232.239C70.5971 232.196 70.6921 232.187 70.78 232.213L70.763 232.211Z" fill="#FABD91"/>
    <path d="M277.848 293.992C277.104 294.107 276.343 294.037 275.633 293.788C274.922 293.54 274.283 293.12 273.773 292.566C273.263 292.013 272.897 291.342 272.708 290.613C272.518 289.885 272.511 289.121 272.687 288.389C276.843 270.894 293.071 222.49 349.034 195.493C396.294 172.701 419.753 155.856 429.874 147.474C432.012 145.701 435.174 147.687 434.504 150.382C427.131 180.109 394.597 275.498 277.848 293.992Z" fill="#FABD91"/>
    <path d="M276.281 289.821C276.096 289.822 275.916 289.759 275.771 289.643C275.687 289.576 275.617 289.493 275.565 289.399C275.512 289.305 275.479 289.202 275.467 289.095C275.455 288.988 275.464 288.88 275.494 288.776C275.524 288.673 275.574 288.577 275.642 288.493C275.765 288.338 288.303 272.707 308.592 253.016C327.327 234.839 356.702 209.374 390.257 191.284C390.448 191.181 390.672 191.158 390.88 191.221C391.088 191.283 391.262 191.426 391.365 191.617C391.468 191.808 391.491 192.032 391.428 192.24C391.366 192.448 391.224 192.622 391.032 192.725C357.657 210.722 328.407 236.074 309.753 254.172C289.525 273.795 277.04 289.36 276.917 289.513C276.841 289.609 276.745 289.687 276.634 289.74C276.524 289.793 276.404 289.821 276.281 289.821Z" fill="#FBDBBD"/>
    <path d="M261.016 278.716C282.315 269.246 367.561 233.147 429.61 233.083C434.04 233.083 437.051 238.495 433.913 241.781C415.731 260.847 360.401 322.588 260.884 283.146C258.968 282.388 259.081 279.575 261.016 278.716Z" fill="#FBDBBD"/>
    <path d="M263.422 281.812C263.205 281.813 262.996 281.728 262.842 281.576C262.687 281.423 262.6 281.215 262.598 280.998C262.597 280.781 262.682 280.573 262.834 280.418C262.987 280.264 263.194 280.176 263.412 280.175C310.894 279.569 346.626 270.93 368.239 263.787C391.623 256.06 403.924 248.399 404.045 248.322C404.229 248.207 404.451 248.168 404.663 248.216C404.875 248.264 405.059 248.395 405.175 248.579C405.29 248.762 405.329 248.985 405.281 249.196C405.233 249.408 405.102 249.593 404.918 249.708C404.795 249.785 392.325 257.552 368.754 265.341C347.03 272.52 311.124 281.204 263.433 281.812H263.422Z" fill="#FABD91"/>
    <path d="M154.256 95.8949C153.541 129.584 151.226 245.788 152.342 286.966C152.459 291.328 155.448 294.832 159.177 294.974C177.623 295.68 245.238 297.47 275.406 295.988C281.69 295.68 286.687 289.726 286.817 282.37C287.444 247.011 288.828 147.555 285.542 101.996C285.148 96.5369 281.485 92.1898 276.826 91.6434C256.738 89.2945 188.833 83.5486 162.77 85.5255C158.055 85.8805 154.373 90.3871 154.256 95.8949Z" fill="#8F3F04"/>
    <path d="M162.485 106.233C161.492 133.423 158.361 223.882 159.356 257.333C159.5 262.223 162.793 266.174 166.968 266.461C184.158 267.637 242.804 270.232 268.016 267.871C272.555 267.446 276.118 263.149 276.362 257.831C277.638 230.09 281.309 145.859 280.357 112.784C280.204 107.508 276.711 103.199 272.215 102.727C253.62 100.774 191.303 96.1267 169.879 97.4935C165.856 97.7507 162.657 101.524 162.485 106.233Z" fill="#D88302"/>
    <path opacity="0.5" d="M199.83 91.4075C199.83 92.4407 200.518 93.2931 201.401 93.3462C205.759 93.6141 218.029 94.3687 223.509 94.7407C224.591 94.8151 225.44 93.6779 225.236 92.4343L225.199 92.2217C225.059 91.3714 224.458 90.7337 223.711 90.655C220.004 90.2575 208.818 89.1542 201.405 89.4646C200.54 89.5071 199.83 90.3702 199.83 91.4075Z" fill="white"/>
    <path d="M173.941 150.571C174.275 150.26 174.67 150.022 175.101 149.874C175.533 149.725 175.991 149.669 176.445 149.708C186.309 150.595 204.719 145.844 216.736 133.54C217.572 132.69 219.094 133.168 220.051 133.884C233.426 143.875 255.597 145.95 263.292 146.373C264.063 146.417 264.793 146.733 265.352 147.266C265.911 147.799 266.261 148.513 266.341 149.281C273.339 216.88 229.326 241.373 220.197 245.697C219.705 245.929 219.163 246.034 218.619 246.003C218.076 245.971 217.549 245.804 217.087 245.516C171.594 217.18 173.537 180.328 172.908 153.02C172.898 152.562 172.985 152.108 173.163 151.686C173.341 151.264 173.606 150.884 173.941 150.571Z" fill="url(#paint1_linear_11_6751)"/>
    <path opacity="0.59" d="M218.973 241.197C218.688 241.197 218.408 241.116 218.167 240.963C200.648 229.762 189.226 216.366 183.248 200.008C177.914 185.411 177.655 170.577 177.425 157.493L177.393 155.754C177.39 155.557 177.426 155.36 177.499 155.177C177.573 154.993 177.682 154.826 177.82 154.685C177.959 154.545 178.124 154.433 178.306 154.356C178.488 154.28 178.684 154.241 178.881 154.241C189.606 154.241 205.703 149.504 217.515 138.92C217.76 138.7 218.071 138.568 218.4 138.544C218.728 138.521 219.055 138.606 219.33 138.788C232.319 147.406 250.878 149.919 260.784 150.648C261.136 150.675 261.468 150.826 261.719 151.074C261.97 151.322 262.125 151.652 262.155 152.004C264.477 178.483 258.966 200.882 245.769 218.577C235.909 231.799 224.215 238.688 219.645 241.037C219.437 241.143 219.206 241.198 218.973 241.197ZM218.514 139.798C218.458 139.799 218.405 139.82 218.365 139.858C206.305 150.663 189.853 155.499 178.896 155.499C178.864 155.498 178.832 155.504 178.802 155.515C178.772 155.527 178.745 155.545 178.722 155.567C178.702 155.588 178.686 155.612 178.675 155.639C178.664 155.666 178.659 155.695 178.66 155.724L178.692 157.465C178.92 170.454 179.179 185.175 184.432 199.572C190.31 215.66 201.566 228.85 218.845 239.894C218.876 239.914 218.913 239.926 218.95 239.929C218.987 239.931 219.024 239.923 219.058 239.906C223.55 237.598 235.046 230.823 244.747 217.813C257.75 200.382 263.18 178.274 260.888 152.108C260.888 152.052 260.866 151.998 260.826 151.958C260.786 151.918 260.732 151.896 260.676 151.896C250.646 151.156 231.845 148.605 218.616 139.828C218.585 139.81 218.549 139.801 218.514 139.8V139.798Z" fill="white"/>
    <path d="M195.131 176.442L218.433 223.298L248.388 156.738L217.274 191.186L195.131 176.442Z" fill="#8F3F04"/>
    <path d="M210.884 296.543C209.286 297.001 207.608 297.114 205.963 296.874C204.318 296.635 202.743 296.048 201.341 295.153C199.94 294.258 198.746 293.075 197.837 291.683C196.928 290.291 196.325 288.722 196.069 287.079L194.759 278.181C194.71 277.857 194.726 277.527 194.805 277.209C194.884 276.891 195.024 276.592 195.219 276.329C195.414 276.065 195.659 275.843 195.94 275.675C196.221 275.506 196.532 275.395 196.856 275.347C197.18 275.3 197.51 275.316 197.828 275.397C198.145 275.477 198.444 275.619 198.706 275.815C198.969 276.011 199.19 276.257 199.357 276.538C199.524 276.82 199.634 277.132 199.681 277.456L200.988 286.333C201.138 287.277 201.487 288.178 202.011 288.977C202.535 289.776 203.223 290.454 204.029 290.967C204.835 291.48 205.741 291.816 206.687 291.953C207.633 292.09 208.597 292.024 209.515 291.76C211.76 291.113 213.657 289.603 214.79 287.56C215.923 285.517 216.199 283.108 215.559 280.861L135.976 3.17373C135.794 2.53947 135.871 1.85896 136.191 1.2819C136.511 0.704848 137.047 0.278515 137.682 0.0966945C138.316 -0.0851263 138.996 -0.007542 139.573 0.31238C140.151 0.632302 140.577 1.16835 140.759 1.80261L220.346 279.494C221.348 283.01 220.914 286.779 219.141 289.975C217.367 293.171 214.397 295.533 210.884 296.543Z" fill="#F4A17D"/>
    <path d="M33.5097 153.505C58.1483 143.701 82.2702 141.933 105.939 146.654L145.99 26.825C145.99 26.825 48.0718 47.4469 33.5097 153.505Z" fill="url(#paint2_linear_11_6751)"/>
    <path d="M307.899 74.8691C281.811 79.6116 260.416 90.876 242.835 107.423L145.391 26.997C145.391 26.997 239.37 -7.37431 307.899 74.8691Z" fill="url(#paint3_linear_11_6751)"/>
    <path d="M145.606 26.6124C145.606 26.6124 91.4645 45.3615 106.239 146.569L114.105 141.807C150.102 120.003 191.268 108.206 233.35 107.633L242.542 107.508C201.46 13.8408 145.606 26.6124 145.606 26.6124Z" fill="url(#paint4_linear_11_6751)"/>
    <path d="M150.234 23.9989L140.292 26.8477C140.066 26.9124 139.936 27.1478 140.001 27.3735L140.452 28.947C140.516 29.1728 140.752 29.3033 140.977 29.2386L150.919 26.3898C151.145 26.3251 151.276 26.0897 151.211 25.864L150.76 24.2905C150.695 24.0647 150.46 23.9342 150.234 23.9989Z" fill="url(#paint5_linear_11_6751)"/>
    <path d="M34.9134 151.732L33.685 151.759C33.5089 151.763 33.3693 151.909 33.3731 152.085L33.4677 156.42C33.4716 156.596 33.6174 156.736 33.7935 156.732L35.0219 156.705C35.198 156.702 35.3376 156.556 35.3338 156.38L35.2392 152.044C35.2353 151.868 35.0895 151.729 34.9134 151.732Z" fill="url(#paint6_linear_11_6751)"/>
    <path d="M106.664 144.759L105.435 144.786C105.259 144.789 105.12 144.935 105.123 145.111L105.218 149.447C105.222 149.623 105.368 149.763 105.544 149.759L106.772 149.732C106.948 149.728 107.088 149.582 107.084 149.406L106.989 145.071C106.986 144.895 106.84 144.755 106.664 144.759Z" fill="url(#paint7_linear_11_6751)"/>
    <path d="M308.298 78.3739L309.354 77.7461C309.505 77.6561 309.555 77.4604 309.465 77.309L307.249 73.5814C307.159 73.43 306.963 73.3803 306.812 73.4703L305.756 74.0981C305.604 74.1881 305.555 74.3838 305.645 74.5351L307.861 78.2628C307.951 78.4141 308.146 78.4639 308.298 78.3739Z" fill="url(#paint8_linear_11_6751)"/>
    <path d="M243.75 110.469L244.806 109.841C244.958 109.751 245.008 109.555 244.918 109.404L242.702 105.676C242.612 105.525 242.416 105.475 242.265 105.565L241.208 106.193C241.057 106.283 241.007 106.478 241.097 106.63L243.313 110.357C243.403 110.509 243.599 110.559 243.75 110.469Z" fill="url(#paint9_linear_11_6751)"/>
    <path d="M397.833 95.3646C413.482 79.7161 413.482 54.3449 397.833 38.6964C382.183 23.0479 356.811 23.0479 341.162 38.6964C325.513 54.3449 325.513 79.7161 341.162 95.3646C356.811 111.013 382.183 111.013 397.833 95.3646Z" fill="url(#paint10_linear_11_6751)"/>
    <path d="M396.89 94.4222C412.019 79.2942 412.019 54.7669 396.89 39.6389C381.761 24.5109 357.233 24.5109 342.104 39.6389C326.976 54.7669 326.976 79.2942 342.104 94.4222C357.233 109.55 381.761 109.55 396.89 94.4222Z" fill="#F4A17D"/>
    <path opacity="0.78" d="M333.786 65.5434H333.764C333.657 65.5379 333.556 65.4901 333.483 65.4105C333.411 65.3309 333.373 65.2258 333.377 65.1182C333.457 63.5945 333.632 62.0772 333.902 60.5755C333.908 60.5195 333.926 60.4654 333.954 60.4165C333.982 60.3676 334.019 60.3249 334.064 60.2911C334.109 60.2574 334.161 60.2333 334.216 60.2203C334.271 60.2073 334.327 60.2057 334.383 60.2157C334.438 60.2256 334.491 60.2469 334.538 60.2781C334.585 60.3093 334.625 60.3498 334.655 60.3971C334.686 60.4444 334.706 60.4975 334.715 60.5531C334.724 60.6086 334.722 60.6655 334.708 60.7201C334.445 62.1881 334.273 63.6713 334.196 65.1608C334.189 65.2647 334.142 65.3621 334.066 65.4332C333.99 65.5042 333.89 65.5436 333.786 65.5434Z" fill="white"/>
    <path opacity="0.78" d="M337.553 51.3497C337.489 51.3496 337.426 51.3343 337.37 51.3051C337.322 51.2809 337.279 51.2476 337.244 51.207C337.209 51.1664 337.182 51.1192 337.166 51.0683C337.149 51.0174 337.142 50.9636 337.146 50.9101C337.15 50.8567 337.165 50.8045 337.189 50.7566C340.19 44.7624 344.805 39.7246 350.513 36.2102C356.222 32.6957 362.798 30.8442 369.502 30.8638C371.69 30.8638 373.873 31.0601 376.026 31.4505C376.082 31.457 376.136 31.4749 376.184 31.503C376.233 31.5312 376.275 31.5689 376.308 31.614C376.341 31.6591 376.365 31.7105 376.378 31.7651C376.391 31.8197 376.392 31.8763 376.382 31.9315C376.372 31.9866 376.351 32.0391 376.319 32.0858C376.288 32.1324 376.248 32.1721 376.201 32.2026C376.154 32.233 376.101 32.2534 376.046 32.2627C375.99 32.2719 375.934 32.2697 375.879 32.2562C373.775 31.8743 371.641 31.6822 369.502 31.6822C362.95 31.664 356.524 33.474 350.945 36.9087C345.366 40.3434 340.856 45.2666 337.922 51.1244C337.888 51.1929 337.835 51.2503 337.77 51.2902C337.704 51.33 337.629 51.3506 337.553 51.3497Z" fill="white"/>
    <path opacity="0.78" d="M393.525 91.061C406.33 78.2566 406.33 57.4966 393.525 44.6922C380.721 31.8878 359.96 31.8878 347.155 44.6922C334.35 57.4966 334.35 78.2566 347.155 91.061C359.96 103.865 380.721 103.865 393.525 91.061Z" fill="white"/>
    <path d="M361.717 53.9496C364.461 53.9496 366.685 51.7254 366.685 48.9817C366.685 46.238 364.461 44.0138 361.717 44.0138C358.973 44.0138 356.749 46.238 356.749 48.9817C356.749 51.7254 358.973 53.9496 361.717 53.9496Z" fill="url(#paint11_linear_11_6751)"/>
    <path d="M367.2 55.3695H368.409C368.714 55.3695 369.006 55.4904 369.221 55.7057C369.436 55.921 369.557 56.213 369.557 56.5174V71.6932H367.191V55.3695H367.2Z" fill="url(#paint12_linear_11_6751)"/>
    <path d="M356.237 71.6932H353.871V56.5175C353.871 56.213 353.991 55.921 354.207 55.7058C354.422 55.4905 354.714 55.3696 355.018 55.3696H356.237V71.6932Z" fill="url(#paint13_linear_11_6751)"/>
    <path d="M366.23 55.3695H357.134V72.7157H366.23V55.3695Z" fill="url(#paint14_linear_11_6751)"/>
    <path d="M357.206 71.2341H361.105V90.3851C361.105 90.6359 361.005 90.8766 360.828 91.054C360.65 91.2314 360.41 91.331 360.159 91.331H358.152C358.028 91.331 357.905 91.3066 357.79 91.259C357.675 91.2115 357.571 91.1418 357.483 91.054C357.395 90.9661 357.326 90.8618 357.278 90.7471C357.23 90.6323 357.206 90.5093 357.206 90.3851V71.2341Z" fill="url(#paint15_linear_11_6751)"/>
    <path d="M362.404 71.2341H366.302V90.3851C366.302 90.6359 366.203 90.8766 366.025 91.054C365.848 91.2314 365.607 91.331 365.356 91.331H363.35C363.099 91.331 362.858 91.2314 362.681 91.054C362.503 90.8766 362.404 90.6359 362.404 90.3851V71.2341Z" fill="url(#paint16_linear_11_6751)"/>
    <path d="M379.226 53.9496C381.969 53.9496 384.194 51.7254 384.194 48.9817C384.194 46.238 381.969 44.0138 379.226 44.0138C376.482 44.0138 374.257 46.238 374.257 48.9817C374.257 51.7254 376.482 53.9496 379.226 53.9496Z" fill="url(#paint17_linear_11_6751)"/>
    <path d="M384.706 55.3695H385.924C386.228 55.3695 386.52 55.4904 386.736 55.7057C386.951 55.921 387.072 56.213 387.072 56.5174V71.6932H384.706V55.3695Z" fill="url(#paint18_linear_11_6751)"/>
    <path d="M373.739 71.6932H371.373V56.5175C371.373 56.213 371.494 55.921 371.709 55.7058C371.924 55.4905 372.216 55.3696 372.521 55.3696H373.739V71.6932Z" fill="url(#paint19_linear_11_6751)"/>
    <path d="M384.921 80.4471H373.456L374.642 55.3695H383.739L384.921 80.4471Z" fill="url(#paint20_linear_11_6751)"/>
    <path d="M374.712 71.2341H378.613V90.3851C378.613 90.6359 378.514 90.8766 378.336 91.054C378.159 91.2314 377.918 91.331 377.667 91.331H375.66C375.41 91.331 375.169 91.2314 374.992 91.054C374.814 90.8766 374.714 90.6359 374.714 90.3851V71.2341H374.712Z" fill="url(#paint21_linear_11_6751)"/>
    <path d="M379.91 71.2341H383.809V90.3851C383.809 90.6359 383.709 90.8766 383.532 91.054C383.354 91.2314 383.114 91.331 382.863 91.331H380.856C380.605 91.331 380.364 91.2314 380.187 91.054C380.01 90.8766 379.91 90.6359 379.91 90.3851V71.2341Z" fill="url(#paint22_linear_11_6751)"/>
    <path d="M445.051 191.501C460.701 175.853 460.701 150.481 445.051 134.833C429.402 119.184 404.03 119.184 388.381 134.833C372.732 150.481 372.732 175.853 388.381 191.501C404.03 207.15 429.402 207.15 445.051 191.501Z" fill="url(#paint23_linear_11_6751)"/>
    <path d="M444.109 190.559C459.237 175.431 459.237 150.903 444.109 135.775C428.98 120.647 404.452 120.647 389.323 135.775C374.195 150.903 374.195 175.431 389.323 190.559C404.452 205.687 428.98 205.687 444.109 190.559Z" fill="#F4A17D"/>
    <path opacity="0.78" d="M381.003 161.676H380.981C380.874 161.67 380.773 161.622 380.701 161.543C380.629 161.463 380.59 161.359 380.595 161.251C380.674 159.728 380.85 158.21 381.12 156.709C381.126 156.653 381.143 156.598 381.171 156.55C381.199 156.501 381.237 156.458 381.282 156.424C381.327 156.39 381.378 156.366 381.433 156.353C381.488 156.34 381.545 156.339 381.6 156.349C381.655 156.359 381.708 156.38 381.755 156.411C381.802 156.442 381.842 156.483 381.872 156.53C381.903 156.578 381.923 156.631 381.932 156.686C381.942 156.742 381.939 156.799 381.925 156.853C381.662 158.321 381.491 159.804 381.413 161.294C381.406 161.398 381.36 161.495 381.283 161.566C381.207 161.637 381.107 161.677 381.003 161.676Z" fill="white"/>
    <path opacity="0.78" d="M384.778 147.483C384.714 147.483 384.652 147.468 384.595 147.438C384.548 147.414 384.505 147.381 384.47 147.34C384.435 147.299 384.408 147.252 384.391 147.201C384.375 147.15 384.368 147.097 384.372 147.043C384.376 146.99 384.391 146.938 384.415 146.89C387.416 140.895 392.03 135.858 397.739 132.343C403.448 128.829 410.024 126.977 416.728 126.997C418.915 126.997 421.099 127.193 423.252 127.584C423.353 127.609 423.441 127.671 423.498 127.759C423.554 127.847 423.575 127.953 423.557 128.055C423.538 128.158 423.481 128.25 423.397 128.312C423.313 128.374 423.209 128.401 423.105 128.389C421.001 128.007 418.866 127.815 416.728 127.815C410.176 127.797 403.749 129.607 398.17 133.042C392.592 136.477 388.082 141.4 385.148 147.257C385.114 147.326 385.061 147.383 384.996 147.423C384.93 147.463 384.855 147.484 384.778 147.483Z" fill="white"/>
    <path opacity="0.78" d="M417.559 196.798C435.668 196.798 450.348 182.119 450.348 164.011C450.348 145.902 435.668 131.223 417.559 131.223C399.45 131.223 384.77 145.902 384.77 164.011C384.77 182.119 399.45 196.798 417.559 196.798Z" fill="white"/>
    <path d="M438.773 157.168H396.39L417.582 141.023L438.773 157.168Z" fill="url(#paint24_linear_11_6751)"/>
    <path d="M401.436 158.322V185.71H412.104V166.683H423.347V185.71H433.728V158.322H401.436Z" fill="url(#paint25_linear_11_6751)"/>
    <path d="M121.337 195.374C121.337 195.374 119.075 196.475 118.658 197.74C118.325 198.754 115.823 198.884 115.576 200.88C115.522 201.378 115.305 201.845 114.959 202.209C114.613 202.572 114.158 202.812 113.663 202.891C111.112 203.284 107.17 204.61 106.539 209.055C106.059 212.442 107.785 213.732 109.596 214.17C110.24 214.318 110.801 214.709 111.164 215.261C111.527 215.813 111.662 216.484 111.543 217.133C111.284 218.421 111.669 219.912 113.901 221.089C118.903 223.729 123.892 214.835 123.892 214.835L124.917 199.317L121.337 195.374Z" fill="#8F3F04"/>
    <path d="M144.885 187.186C144.885 187.186 138.448 204.732 127.481 210.216C127.481 210.216 131.131 216.168 133.035 216.534C133.035 216.534 144.753 201.539 145.948 189.254L144.885 187.186Z" fill="url(#paint26_linear_11_6751)"/>
    <path d="M100.776 292.736L100.453 295.395C100.424 295.641 100.313 295.869 100.137 296.044C99.9623 296.219 99.7333 296.33 99.4875 296.358C98.3058 296.501 97.1123 296.52 95.9267 296.413C95.7884 296.398 95.6553 296.352 95.537 296.279C95.4186 296.206 95.318 296.107 95.2423 295.99C95.1666 295.874 95.1178 295.742 95.0994 295.604C95.081 295.466 95.0935 295.326 95.1359 295.193C95.4633 294.164 96.0606 292.623 96.9216 291.715H99.8723C100.001 291.715 100.129 291.743 100.246 291.795C100.364 291.848 100.468 291.926 100.554 292.022C100.639 292.118 100.703 292.232 100.741 292.355C100.78 292.478 100.791 292.608 100.776 292.736Z" fill="url(#paint27_linear_11_6751)"/>
    <path d="M123.896 261.562L124.396 264.493C124.396 264.493 122.727 281.395 122.43 288.155C122.384 289.214 122.657 290.263 123.214 291.165L126.116 295.875L118.741 291.524L118.595 290.625L119.802 288.965L118.22 270.033C118.129 268.921 118.358 267.806 118.882 266.821L120.408 263.955L123.896 261.562Z" fill="url(#paint28_linear_11_6751)"/>
    <path d="M126.601 296.558H124.247C124.03 296.558 123.816 296.509 123.622 296.413C123.427 296.318 123.257 296.179 123.125 296.007C122.389 295.055 120.869 293.195 120.149 293.146C119.169 293.08 119.298 296.547 119.298 296.547H118.75L118.057 292.226C117.97 291.695 118.053 291.151 118.294 290.671C118.535 290.191 118.921 289.799 119.398 289.551C119.398 289.551 119.611 291.205 120.835 291.939C122.06 292.672 125.769 295.289 125.769 295.289C126.088 295.252 126.41 295.261 126.726 295.314C126.808 295.323 126.887 295.347 126.959 295.386C127.031 295.425 127.095 295.477 127.147 295.541C127.199 295.604 127.238 295.678 127.262 295.756C127.285 295.835 127.293 295.917 127.285 295.999C127.277 296.08 127.253 296.16 127.214 296.232C127.175 296.304 127.122 296.368 127.059 296.42C126.995 296.472 126.922 296.511 126.843 296.535C126.765 296.558 126.682 296.566 126.601 296.558Z" fill="url(#paint29_linear_11_6751)"/>
    <path d="M113.799 262.956C113.799 262.956 104.02 281.499 102.468 285.731C100.916 289.964 100.37 293.497 100.342 293.831C100.308 294.353 99.6597 294.855 97.8676 294.855C96.9429 294.855 96.4901 294.483 96.2668 294.126C96.1753 293.974 96.1238 293.802 96.1171 293.625C96.1104 293.448 96.1488 293.272 96.2286 293.114C96.7941 291.968 98.5883 288.312 99.2537 286.654C100.047 284.673 101.754 275.7 102.689 272.579C103.624 269.459 104.683 266.075 108.76 262.956C108.769 262.956 111.567 260.214 113.799 262.956Z" fill="url(#paint30_linear_11_6751)"/>
    <path d="M119.972 232.573C122.493 221.889 116.107 215.845 116.107 215.845C120.146 211.976 127.481 210.216 127.481 210.216C127.481 210.216 134.496 215.339 133.656 219.357C133.169 221.708 128.731 233.434 128.731 233.434C128.731 233.434 124.628 235.368 119.972 232.573Z" fill="url(#paint31_linear_11_6751)"/>
    <path d="M114.383 237.872C115.408 234.781 119.972 232.583 119.972 232.583C124.628 235.379 128.731 233.434 128.731 233.434C128.731 233.434 129.651 236.952 129.015 240.221C128.38 243.491 124.396 264.501 124.396 264.501C118.116 265.777 108.452 263.226 108.452 263.226C112.457 256.111 113.356 240.954 114.383 237.872Z" fill="#8F3F04"/>
    <path d="M122.899 203.156L120.85 212.363C120.652 213.173 121.392 213.041 122.213 212.886C123.556 212.633 125.287 212.11 125.865 211.066C125.922 210.959 125.957 210.841 125.969 210.72L126.851 204.343C126.886 204.096 126.838 203.845 126.717 203.627C126.596 203.41 126.407 203.238 126.18 203.137L124.479 202.383C124.326 202.315 124.159 202.281 123.992 202.284C123.824 202.288 123.659 202.327 123.509 202.401C123.358 202.475 123.226 202.581 123.12 202.711C123.015 202.842 122.94 202.994 122.899 203.156Z" fill="url(#paint32_linear_11_6751)"/>
    <path d="M116.107 215.845C116.107 215.845 101.798 226.083 114.277 236.839C114.67 237.228 115.156 237.51 115.689 237.657C116.161 237.798 117.559 238.856 118.267 239.407C118.321 239.448 118.383 239.478 118.449 239.494C118.515 239.51 118.584 239.512 118.651 239.5C118.717 239.488 118.781 239.463 118.837 239.424C118.894 239.386 118.941 239.337 118.977 239.279C119.037 239.185 119.072 239.077 119.078 238.965C119.085 238.854 119.063 238.742 119.016 238.642L117.245 234.896C117.006 234.674 116.697 234.544 116.371 234.53C116.046 234.516 115.726 234.619 115.47 234.819C115.391 234.881 115.299 234.925 115.201 234.947C115.103 234.969 115.001 234.969 114.903 234.947C114.805 234.924 114.714 234.881 114.635 234.819C114.556 234.757 114.492 234.678 114.447 234.588C113.482 232.624 111.66 226.846 119.124 220.315C119.26 220.196 119.351 220.034 119.384 219.856C119.417 219.678 119.389 219.494 119.305 219.333C118.771 218.33 117.574 216.332 116.107 215.845Z" fill="url(#paint33_linear_11_6751)"/>
    <path d="M125.306 194.388C125.306 194.388 127.734 195.414 129.383 198.922C131.033 202.429 129.808 204.051 128.252 204.272C126.696 204.493 124.39 204.462 121.939 202.196C119.487 199.929 122.149 193.174 125.306 194.388Z" fill="url(#paint34_linear_11_6751)"/>
    <path d="M123.586 200.323C123.586 200.323 121.754 195.189 126.305 195.13L127.368 195.878C127.368 195.878 129.037 193.031 126.305 191.673C123.573 190.315 120.353 191.437 119.19 195.13C118.027 198.822 117.825 201.294 119.766 203.059C121.707 204.823 122.506 202.823 122.506 202.823C122.506 202.823 121.443 201.171 121.879 200.287C122.315 199.402 123.301 200.469 123.301 200.469L123.586 200.323Z" fill="#8F3F04"/>
    <path d="M123.087 200.895C123.087 200.895 122.16 198.25 120.925 199.302C119.689 200.355 121.928 201.745 122.806 202.196L123.087 200.895Z" fill="url(#paint35_linear_11_6751)"/>
    <path d="M145.504 190.378C145.601 190.691 144.464 191.167 143.803 189.89C143.78 189.277 143.407 186.656 143.773 186.159C145.72 183.504 149.498 180.175 149.498 180.175C149.676 180.327 149.787 180.543 149.807 180.776C149.828 181.009 149.757 181.241 149.609 181.423L147.778 183.336C148.161 184.027 148.629 184.611 148.841 185.449C149.001 186.088 148.909 186.765 148.584 187.339C148.263 187.917 147.825 188.671 147.41 189.252C147.199 189.572 146.917 189.84 146.587 190.035C146.257 190.23 145.886 190.348 145.504 190.378Z" fill="url(#paint36_linear_11_6751)"/>
    <path d="M146.471 189.08L146.067 189.007C146.12 188.718 146.586 186.157 146.968 185.536C147.089 185.382 147.146 185.188 147.128 184.994C147.105 184.922 147.057 184.86 146.994 184.82L145.478 186.106L144.972 187.464L144.589 187.322L145.132 185.863L146.947 184.324L147.068 184.386C147.175 184.432 147.271 184.5 147.349 184.586C147.428 184.671 147.487 184.773 147.523 184.883C147.55 185.035 147.545 185.19 147.508 185.339C147.471 185.489 147.404 185.629 147.311 185.751C147.021 186.216 146.603 188.312 146.471 189.08Z" fill="url(#paint37_linear_11_6751)"/>
    <path d="M346.743 110.163L346.224 111.285C346.139 111.41 346.012 111.5 345.867 111.54C345.722 111.58 345.567 111.567 345.431 111.504C345.294 111.441 345.184 111.331 345.12 111.195C345.056 111.058 345.043 110.904 345.082 110.758L345.62 109.661C345.69 109.514 345.816 109.401 345.97 109.347C346.123 109.292 346.293 109.301 346.44 109.371C346.587 109.441 346.7 109.567 346.754 109.721C346.809 109.874 346.8 110.043 346.73 110.191L346.743 110.163Z" fill="white"/>
    <path d="M344.955 113.879L344.387 114.978C344.349 115.062 344.295 115.137 344.227 115.198C344.159 115.26 344.08 115.308 343.993 115.338C343.906 115.368 343.814 115.38 343.723 115.374C343.631 115.367 343.542 115.342 343.46 115.3C343.379 115.257 343.307 115.199 343.249 115.128C343.19 115.057 343.147 114.975 343.122 114.887C343.096 114.799 343.089 114.706 343.1 114.615C343.112 114.524 343.142 114.436 343.188 114.357V114.347L343.773 113.284C343.857 113.133 343.998 113.022 344.163 112.973C344.329 112.925 344.507 112.943 344.659 113.024C344.812 113.105 344.926 113.243 344.979 113.407C345.031 113.572 345.017 113.75 344.94 113.904L344.955 113.879Z" fill="white"/>
    <path d="M343.007 117.512L342.393 118.585C342.347 118.669 342.284 118.742 342.209 118.801C342.134 118.86 342.047 118.904 341.955 118.929C341.863 118.955 341.767 118.962 341.672 118.95C341.577 118.938 341.486 118.908 341.403 118.86C341.32 118.813 341.247 118.749 341.189 118.673C341.131 118.597 341.088 118.511 341.063 118.418C341.039 118.326 341.033 118.23 341.046 118.135C341.059 118.04 341.09 117.949 341.139 117.867V117.856L341.777 116.812C341.872 116.651 342.028 116.533 342.209 116.486C342.391 116.439 342.584 116.466 342.746 116.562C342.908 116.657 343.025 116.812 343.072 116.994C343.119 117.176 343.092 117.369 342.997 117.531L343.007 117.512Z" fill="white"/>
    <path d="M340.907 121.058L340.246 122.106C340.192 122.191 340.122 122.265 340.039 122.324C339.956 122.382 339.863 122.423 339.764 122.446C339.666 122.468 339.563 122.471 339.464 122.454C339.364 122.436 339.269 122.4 339.183 122.346C339.097 122.292 339.023 122.221 338.965 122.139C338.907 122.056 338.865 121.963 338.843 121.864C338.82 121.765 338.818 121.663 338.835 121.564C338.852 121.464 338.889 121.368 338.943 121.283V121.27V121.259L339.617 120.245C339.726 120.076 339.897 119.957 340.094 119.915C340.29 119.872 340.496 119.909 340.665 120.018C340.834 120.127 340.953 120.298 340.996 120.495C341.038 120.691 341.001 120.897 340.892 121.066L340.907 121.058Z" fill="white"/>
    <path d="M338.647 124.512L337.944 125.53C337.816 125.698 337.629 125.81 337.421 125.843C337.213 125.876 337.001 125.828 336.827 125.708C336.654 125.589 336.533 125.407 336.491 125.201C336.448 124.994 336.486 124.78 336.598 124.601V124.588V124.578L337.312 123.594C337.439 123.428 337.624 123.318 337.83 123.287C338.035 123.255 338.245 123.304 338.415 123.425C338.585 123.545 338.702 123.726 338.741 123.93C338.78 124.135 338.738 124.346 338.624 124.52L338.647 124.512Z" fill="white"/>
    <path d="M336.26 127.871L335.514 128.859C335.448 128.955 335.363 129.037 335.264 129.1C335.165 129.162 335.055 129.204 334.939 129.223C334.824 129.242 334.706 129.237 334.593 129.209C334.479 129.18 334.373 129.13 334.28 129.059C334.186 128.989 334.108 128.9 334.05 128.799C333.992 128.698 333.955 128.585 333.942 128.469C333.928 128.353 333.938 128.236 333.971 128.124C334.004 128.012 334.06 127.907 334.134 127.817V127.805V127.794L334.889 126.84C335.028 126.666 335.23 126.553 335.452 126.527C335.673 126.5 335.896 126.562 336.073 126.698C336.249 126.834 336.365 127.035 336.395 127.255C336.425 127.476 336.368 127.7 336.235 127.879L336.26 127.871Z" fill="white"/>
    <path d="M333.726 131.129L332.939 132.086C332.784 132.265 332.564 132.376 332.328 132.395C332.092 132.415 331.857 132.342 331.674 132.192C331.49 132.041 331.373 131.825 331.346 131.59C331.319 131.354 331.385 131.117 331.53 130.93C331.53 130.93 331.53 130.93 331.53 130.917V130.904L332.323 129.981C332.399 129.891 332.492 129.817 332.596 129.763C332.701 129.708 332.815 129.675 332.933 129.665C333.05 129.655 333.169 129.668 333.281 129.704C333.393 129.74 333.498 129.797 333.588 129.873C333.678 129.949 333.752 130.042 333.807 130.147C333.861 130.251 333.894 130.366 333.904 130.483C333.914 130.6 333.901 130.719 333.865 130.831C333.83 130.943 333.772 131.048 333.696 131.138L333.726 131.129Z" fill="white"/>
    <path d="M331.058 134.282L330.233 135.207C330.151 135.305 330.049 135.385 329.935 135.444C329.821 135.502 329.696 135.537 329.568 135.546C329.44 135.555 329.312 135.538 329.19 135.497C329.069 135.456 328.957 135.39 328.862 135.305C328.766 135.22 328.688 135.116 328.633 135C328.578 134.884 328.547 134.759 328.542 134.631C328.536 134.502 328.556 134.375 328.601 134.254C328.646 134.134 328.715 134.024 328.803 133.931V133.918V133.906L329.634 133.019C329.803 132.834 330.039 132.724 330.289 132.713C330.539 132.702 330.784 132.791 330.969 132.96C331.154 133.129 331.264 133.364 331.275 133.615C331.286 133.865 331.197 134.11 331.028 134.295L331.058 134.282Z" fill="white"/>
    <path d="M328.263 137.324L327.399 138.215C327.214 138.406 326.959 138.516 326.692 138.52C326.426 138.525 326.168 138.423 325.976 138.237C325.785 138.051 325.674 137.797 325.67 137.53C325.666 137.263 325.768 137.005 325.954 136.814L325.967 136.801L325.979 136.788L326.845 135.938C327.032 135.762 327.28 135.666 327.538 135.669C327.795 135.673 328.04 135.776 328.223 135.957C328.406 136.137 328.511 136.382 328.517 136.639C328.522 136.896 328.428 137.145 328.254 137.335L328.263 137.324Z" fill="white"/>
    <path d="M325.344 140.255L324.447 141.106C324.352 141.224 324.233 141.321 324.098 141.39C323.963 141.458 323.814 141.497 323.663 141.504C323.511 141.511 323.36 141.485 323.22 141.428C323.079 141.372 322.952 141.285 322.847 141.176C322.743 141.066 322.663 140.935 322.613 140.792C322.563 140.649 322.544 140.497 322.558 140.346C322.572 140.195 322.618 140.048 322.693 139.916C322.768 139.785 322.87 139.67 322.993 139.581L323.008 139.567L323.02 139.556L323.92 138.737C324.122 138.555 324.389 138.46 324.661 138.472C324.933 138.484 325.19 138.603 325.376 138.802C325.561 139.002 325.661 139.267 325.654 139.539C325.646 139.812 325.532 140.07 325.335 140.26L325.344 140.255Z" fill="white"/>
    <path d="M322.308 143.063L321.377 143.884C321.157 144.077 320.87 144.174 320.579 144.155C320.287 144.137 320.015 144.003 319.822 143.783C319.629 143.563 319.531 143.276 319.55 142.985C319.569 142.693 319.703 142.421 319.923 142.228L319.938 142.215H319.953L320.884 141.433C321.103 141.248 321.386 141.158 321.672 141.181C321.957 141.205 322.222 141.34 322.408 141.557C322.595 141.775 322.687 142.057 322.667 142.343C322.646 142.628 322.513 142.894 322.297 143.082L322.308 143.063Z" fill="white"/>
    <path d="M319.162 145.755L318.195 146.537C317.958 146.729 317.655 146.818 317.352 146.786C317.049 146.755 316.771 146.604 316.579 146.367C316.387 146.13 316.298 145.827 316.329 145.524C316.361 145.221 316.512 144.943 316.749 144.751L316.766 144.738L316.781 144.726L317.744 143.984C317.981 143.811 318.276 143.737 318.566 143.777C318.857 143.817 319.121 143.967 319.303 144.197C319.484 144.427 319.57 144.719 319.542 145.011C319.514 145.303 319.374 145.572 319.151 145.763L319.162 145.755Z" fill="white"/>
    <path d="M315.901 148.314L314.904 149.058C314.779 149.159 314.635 149.234 314.48 149.277C314.325 149.321 314.164 149.334 314.004 149.314C313.845 149.294 313.691 149.242 313.552 149.161C313.413 149.08 313.292 148.972 313.196 148.843C313.1 148.714 313.031 148.568 312.993 148.411C312.955 148.255 312.948 148.093 312.974 147.935C313.001 147.776 313.058 147.624 313.144 147.489C313.23 147.353 313.343 147.236 313.475 147.145L313.492 147.132L313.509 147.119L314.5 146.418C314.754 146.233 315.07 146.157 315.38 146.206C315.69 146.255 315.967 146.426 316.152 146.679C316.336 146.933 316.412 147.25 316.363 147.559C316.314 147.869 316.144 148.147 315.89 148.331L315.901 148.314Z" fill="white"/>
    <path d="M312.55 150.744L311.524 151.447C311.252 151.618 310.924 151.677 310.609 151.612C310.294 151.546 310.017 151.362 309.836 151.096C309.654 150.831 309.582 150.506 309.636 150.189C309.689 149.872 309.863 149.588 310.121 149.396L310.138 149.383L310.157 149.373L311.173 148.709H311.186C311.457 148.537 311.784 148.477 312.099 148.544C312.413 148.61 312.689 148.796 312.867 149.063C313.046 149.33 313.112 149.657 313.053 149.972C312.994 150.288 312.814 150.568 312.55 150.752V150.744Z" fill="white"/>
    <path d="M309.098 153.037L308.035 153.699C307.892 153.796 307.73 153.864 307.56 153.898C307.389 153.932 307.214 153.931 307.044 153.896C306.874 153.86 306.712 153.791 306.57 153.691C306.427 153.592 306.306 153.465 306.214 153.318C306.122 153.171 306.06 153.006 306.033 152.835C306.006 152.663 306.014 152.488 306.056 152.319C306.098 152.151 306.174 151.993 306.279 151.854C306.384 151.716 306.515 151.6 306.666 151.513L306.685 151.501L306.704 151.49L307.746 150.869H307.761C308.049 150.702 308.391 150.655 308.714 150.737C309.037 150.819 309.315 151.024 309.488 151.309C309.662 151.593 309.717 151.934 309.643 152.259C309.568 152.583 309.37 152.866 309.09 153.046L309.098 153.037Z" fill="white"/>
    <path d="M305.552 155.191L304.472 155.807C304.319 155.894 304.151 155.951 303.976 155.973C303.802 155.995 303.625 155.982 303.455 155.935C303.285 155.889 303.126 155.809 302.987 155.702C302.849 155.594 302.732 155.46 302.645 155.307C302.558 155.154 302.502 154.985 302.48 154.811C302.458 154.636 302.47 154.459 302.517 154.289C302.563 154.12 302.643 153.961 302.751 153.822C302.859 153.683 302.993 153.567 303.146 153.48H303.167L303.186 153.469L304.249 152.891H304.264C304.569 152.742 304.919 152.716 305.243 152.818C305.566 152.92 305.838 153.143 306.002 153.44C306.166 153.737 306.209 154.086 306.123 154.414C306.037 154.743 305.828 155.025 305.539 155.204L305.552 155.191Z" fill="white"/>
    <path d="M301.921 157.198L300.816 157.772C300.49 157.941 300.11 157.973 299.76 157.863C299.41 157.752 299.118 157.506 298.949 157.181C298.78 156.855 298.747 156.475 298.858 156.125C298.969 155.775 299.214 155.483 299.54 155.314L299.564 155.301L299.585 155.291L300.671 154.759H300.688C301.013 154.596 301.389 154.568 301.734 154.682C302.079 154.796 302.365 155.042 302.528 155.366C302.692 155.691 302.72 156.067 302.606 156.412C302.492 156.757 302.246 157.043 301.921 157.206V157.198Z" fill="white"/>
    <path d="M298.209 159.055L297.081 159.583C296.737 159.743 296.343 159.761 295.986 159.631C295.629 159.502 295.339 159.236 295.178 158.892C295.017 158.548 295 158.154 295.129 157.797C295.259 157.441 295.525 157.15 295.869 156.989H295.892L295.916 156.979L297.023 156.492H297.04C297.382 156.337 297.772 156.324 298.124 156.456C298.476 156.589 298.76 156.855 298.915 157.197C299.07 157.54 299.083 157.929 298.951 158.281C298.818 158.633 298.552 158.917 298.209 159.072V159.055Z" fill="white"/>
    <path d="M294.43 160.758L293.28 161.239C292.928 161.341 292.551 161.311 292.221 161.153C291.89 160.995 291.63 160.721 291.489 160.384C291.348 160.046 291.336 159.668 291.456 159.322C291.577 158.976 291.82 158.687 292.14 158.509H292.166H292.189L293.314 158.069H293.333C293.69 157.938 294.084 157.951 294.432 158.105C294.78 158.259 295.054 158.542 295.196 158.895C295.339 159.248 295.339 159.642 295.196 159.995C295.052 160.347 294.778 160.63 294.43 160.784V160.758Z" fill="white"/>
    <path d="M290.567 162.304L289.398 162.729C289.018 162.87 288.598 162.854 288.23 162.685C287.862 162.516 287.576 162.208 287.435 161.828C287.294 161.449 287.309 161.029 287.478 160.66C287.647 160.292 287.955 160.006 288.335 159.865L288.36 159.855H288.386L289.528 159.464H289.547C289.924 159.329 290.34 159.35 290.702 159.522C291.065 159.694 291.344 160.003 291.478 160.381C291.612 160.759 291.591 161.174 291.419 161.536C291.247 161.899 290.938 162.178 290.561 162.312L290.567 162.304Z" fill="white"/>
    <path d="M286.647 163.683L285.459 164.066C285.262 164.129 285.055 164.153 284.848 164.136C284.642 164.119 284.442 164.062 284.258 163.967C284.074 163.873 283.911 163.743 283.777 163.585C283.643 163.428 283.542 163.245 283.478 163.049C283.415 162.852 283.391 162.644 283.408 162.438C283.425 162.232 283.482 162.032 283.577 161.848C283.671 161.664 283.801 161.501 283.959 161.367C284.116 161.233 284.299 161.132 284.496 161.068H284.523H284.551L285.714 160.707H285.733C286.124 160.598 286.542 160.646 286.898 160.84C287.254 161.034 287.52 161.36 287.64 161.748C287.76 162.135 287.724 162.554 287.54 162.916C287.356 163.277 287.038 163.553 286.653 163.683H286.647Z" fill="white"/>
    <path d="M282.667 164.895L281.464 165.227C281.057 165.318 280.63 165.248 280.273 165.033C279.915 164.817 279.655 164.472 279.545 164.069C279.436 163.666 279.486 163.237 279.685 162.87C279.884 162.503 280.217 162.227 280.614 162.1H280.641H280.669L281.84 161.808H281.86C282.267 161.714 282.695 161.783 283.052 161.999C283.41 162.216 283.669 162.563 283.775 162.967C283.881 163.371 283.825 163.801 283.62 164.165C283.414 164.529 283.075 164.798 282.674 164.916L282.667 164.895Z" fill="white"/>
    <path d="M278.637 165.934L277.423 166.213C276.991 166.311 276.538 166.234 276.164 165.998C275.789 165.762 275.524 165.387 275.426 164.956C275.328 164.524 275.405 164.071 275.641 163.697C275.877 163.322 276.252 163.057 276.683 162.958H276.713H276.743L277.925 162.718H277.946C278.373 162.629 278.819 162.713 279.185 162.951C279.551 163.189 279.808 163.562 279.9 163.989C279.992 164.415 279.912 164.861 279.676 165.229C279.441 165.597 279.069 165.857 278.643 165.951L278.637 165.934Z" fill="white"/>
    <path d="M364.914 165.883L363.7 166.073C363.618 166.086 363.533 166.082 363.451 166.062C363.37 166.043 363.293 166.007 363.225 165.958C363.157 165.908 363.1 165.846 363.056 165.774C363.012 165.703 362.983 165.623 362.97 165.54C362.957 165.457 362.961 165.372 362.98 165.291C363 165.209 363.036 165.132 363.085 165.065C363.135 164.997 363.197 164.939 363.269 164.896C363.34 164.852 363.42 164.823 363.503 164.81H363.53L364.749 164.67C364.91 164.648 365.074 164.691 365.203 164.789C365.333 164.888 365.418 165.034 365.44 165.196C365.462 165.357 365.419 165.521 365.321 165.651C365.222 165.78 365.076 165.866 364.914 165.888V165.883Z" fill="white"/>
    <path d="M360.862 166.506L359.646 166.685C359.457 166.713 359.264 166.665 359.109 166.55C358.955 166.436 358.853 166.265 358.825 166.076C358.797 165.886 358.845 165.693 358.959 165.539C359.073 165.385 359.244 165.282 359.434 165.254H359.464L360.684 165.122C360.868 165.099 361.054 165.15 361.2 165.263C361.347 165.377 361.443 165.544 361.466 165.728C361.49 165.912 361.439 166.098 361.325 166.245C361.212 166.391 361.044 166.487 360.86 166.51L360.862 166.506Z" fill="white"/>
    <path d="M356.804 167.084L355.586 167.25C355.379 167.278 355.17 167.223 355.003 167.097C354.837 166.971 354.728 166.783 354.7 166.576C354.671 166.369 354.727 166.16 354.853 165.994C354.979 165.827 355.167 165.718 355.373 165.69H355.399L356.619 165.565C356.821 165.54 357.025 165.597 357.185 165.723C357.345 165.849 357.449 166.033 357.473 166.235C357.497 166.437 357.44 166.641 357.314 166.801C357.188 166.961 357.004 167.064 356.802 167.089L356.804 167.084Z" fill="white"/>
    <path d="M352.74 167.618L351.519 167.775C351.294 167.803 351.066 167.741 350.887 167.601C350.708 167.462 350.591 167.257 350.563 167.031C350.535 166.806 350.597 166.578 350.737 166.399C350.876 166.22 351.081 166.103 351.307 166.075H351.337L352.557 165.958C352.665 165.946 352.775 165.955 352.88 165.985C352.985 166.016 353.083 166.066 353.169 166.135C353.254 166.203 353.325 166.287 353.378 166.383C353.431 166.479 353.464 166.584 353.476 166.692C353.488 166.801 353.479 166.911 353.449 167.016C353.418 167.121 353.368 167.219 353.299 167.304C353.231 167.389 353.147 167.461 353.051 167.513C352.955 167.566 352.85 167.599 352.742 167.612L352.74 167.618Z" fill="white"/>
    <path d="M348.671 168.124L347.45 168.271C347.328 168.291 347.202 168.287 347.081 168.258C346.961 168.229 346.847 168.175 346.747 168.101C346.648 168.026 346.565 167.932 346.503 167.824C346.441 167.717 346.401 167.597 346.387 167.474C346.372 167.35 346.383 167.225 346.419 167.106C346.454 166.987 346.513 166.876 346.593 166.781C346.673 166.685 346.771 166.607 346.882 166.55C346.993 166.494 347.114 166.461 347.238 166.453H347.268L348.49 166.347C348.726 166.322 348.962 166.393 349.147 166.543C349.331 166.693 349.448 166.91 349.472 167.146C349.496 167.382 349.426 167.618 349.276 167.803C349.126 167.987 348.909 168.104 348.673 168.128L348.671 168.124Z" fill="white"/>
    <path d="M344.6 168.596L343.377 168.723C343.251 168.737 343.123 168.726 343.001 168.691C342.879 168.655 342.765 168.596 342.665 168.516C342.566 168.437 342.483 168.339 342.422 168.227C342.361 168.116 342.322 167.993 342.308 167.867C342.294 167.74 342.305 167.612 342.341 167.49C342.376 167.368 342.435 167.254 342.515 167.155C342.595 167.055 342.693 166.973 342.804 166.911C342.916 166.85 343.038 166.811 343.165 166.797H343.184L344.406 166.693C344.66 166.669 344.913 166.747 345.109 166.91C345.306 167.072 345.429 167.306 345.453 167.559C345.477 167.813 345.399 168.066 345.237 168.262C345.075 168.459 344.841 168.582 344.587 168.606L344.6 168.596Z" fill="white"/>
    <path d="M340.518 169.013L339.294 169.132C339.033 169.147 338.777 169.061 338.578 168.892C338.38 168.722 338.255 168.482 338.23 168.223C338.205 167.963 338.282 167.704 338.444 167.499C338.606 167.295 338.842 167.161 339.1 167.127H339.121L340.344 167.031C340.607 167.008 340.868 167.091 341.07 167.261C341.272 167.431 341.399 167.674 341.422 167.937C341.444 168.2 341.362 168.461 341.192 168.663C341.022 168.865 340.779 168.992 340.516 169.015L340.518 169.013Z" fill="white"/>
    <path d="M336.436 169.397L335.21 169.506C335.072 169.52 334.932 169.507 334.799 169.467C334.666 169.428 334.542 169.362 334.435 169.273C334.328 169.185 334.239 169.077 334.174 168.954C334.11 168.831 334.07 168.696 334.058 168.558C334.045 168.42 334.061 168.28 334.103 168.148C334.145 168.016 334.213 167.893 334.303 167.788C334.393 167.682 334.503 167.595 334.627 167.532C334.751 167.47 334.886 167.432 335.025 167.422H335.046L336.269 167.337C336.535 167.327 336.796 167.421 336.995 167.598C337.195 167.775 337.318 168.023 337.34 168.289C337.361 168.555 337.279 168.819 337.11 169.026C336.942 169.233 336.699 169.367 336.434 169.399L336.436 169.397Z" fill="white"/>
    <path d="M332.349 169.748L331.122 169.848C330.98 169.859 330.837 169.843 330.702 169.799C330.566 169.755 330.44 169.685 330.332 169.593C330.224 169.501 330.134 169.388 330.069 169.261C330.004 169.134 329.965 168.996 329.954 168.854C329.942 168.712 329.959 168.569 330.003 168.434C330.046 168.298 330.116 168.173 330.209 168.064C330.301 167.956 330.414 167.866 330.541 167.802C330.667 167.737 330.806 167.697 330.948 167.686H330.971L332.193 167.609C332.477 167.589 332.757 167.682 332.973 167.869C333.188 168.055 333.32 168.319 333.34 168.603C333.361 168.887 333.267 169.167 333.081 169.382C332.894 169.598 332.63 169.73 332.346 169.75L332.349 169.748Z" fill="white"/>
    <path d="M328.26 170.061L327.034 170.15C326.737 170.172 326.443 170.075 326.217 169.88C325.992 169.686 325.853 169.41 325.831 169.112C325.809 168.815 325.906 168.522 326.1 168.296C326.295 168.07 326.571 167.931 326.868 167.909H326.894L328.116 167.843C328.41 167.824 328.7 167.923 328.921 168.118C329.143 168.313 329.278 168.587 329.297 168.882C329.316 169.176 329.217 169.466 329.022 169.687C328.827 169.909 328.553 170.044 328.258 170.063L328.26 170.061Z" fill="white"/>
    <path d="M324.168 170.358L322.939 170.437C322.638 170.446 322.346 170.337 322.123 170.135C321.9 169.932 321.764 169.651 321.745 169.35C321.725 169.049 321.823 168.753 322.018 168.523C322.213 168.293 322.489 168.148 322.789 168.117H322.814L324.039 168.06C324.339 168.051 324.631 168.16 324.853 168.363C325.074 168.566 325.207 168.848 325.224 169.148C325.241 169.448 325.139 169.743 324.942 169.969C324.744 170.196 324.466 170.336 324.166 170.36L324.168 170.358Z" fill="white"/>
    <path d="M320.074 170.609L318.845 170.673C318.686 170.686 318.526 170.666 318.375 170.616C318.223 170.566 318.084 170.487 317.964 170.382C317.844 170.277 317.746 170.149 317.676 170.005C317.606 169.862 317.566 169.706 317.558 169.547C317.549 169.387 317.573 169.228 317.627 169.078C317.682 168.928 317.765 168.791 317.874 168.674C317.982 168.557 318.113 168.463 318.258 168.397C318.403 168.331 318.56 168.296 318.72 168.292H318.735L319.957 168.239C320.271 168.224 320.579 168.334 320.811 168.546C321.044 168.758 321.183 169.053 321.198 169.367C321.213 169.682 321.103 169.989 320.891 170.222C320.679 170.455 320.384 170.594 320.07 170.609H320.074Z" fill="white"/>
    <path d="M315.977 170.813L314.746 170.868C314.425 170.883 314.112 170.769 313.875 170.552C313.637 170.335 313.496 170.033 313.482 169.712C313.467 169.391 313.581 169.077 313.798 168.84C314.015 168.603 314.317 168.461 314.638 168.447H314.653L315.877 168.402C316.197 168.389 316.509 168.504 316.744 168.721C316.979 168.938 317.119 169.239 317.132 169.559C317.145 169.878 317.03 170.19 316.813 170.425C316.596 170.661 316.295 170.8 315.975 170.813H315.977Z" fill="white"/>
    <path d="M311.879 170.985L310.648 171.032C310.484 171.041 310.32 171.018 310.166 170.963C310.012 170.908 309.87 170.823 309.749 170.712C309.628 170.602 309.53 170.469 309.461 170.32C309.392 170.171 309.353 170.01 309.347 169.847C309.341 169.683 309.367 169.52 309.425 169.366C309.483 169.213 309.571 169.073 309.683 168.954C309.796 168.835 309.931 168.739 310.081 168.673C310.231 168.607 310.393 168.571 310.556 168.568H310.571L311.796 168.534C312.115 168.532 312.423 168.656 312.653 168.877C312.884 169.099 313.018 169.402 313.029 169.721C313.039 170.041 312.924 170.352 312.708 170.588C312.493 170.824 312.194 170.966 311.874 170.985H311.879Z" fill="white"/>
    <path d="M307.778 171.123L306.547 171.159C306.383 171.164 306.219 171.137 306.065 171.078C305.911 171.019 305.771 170.931 305.651 170.818C305.531 170.705 305.435 170.57 305.368 170.42C305.301 170.27 305.264 170.108 305.259 169.944C305.254 169.779 305.282 169.615 305.34 169.462C305.399 169.308 305.487 169.167 305.6 169.048C305.713 168.928 305.848 168.832 305.998 168.764C306.148 168.697 306.31 168.66 306.475 168.655H306.49L307.714 168.632C308.045 168.624 308.365 168.748 308.604 168.976C308.843 169.204 308.982 169.517 308.99 169.848C308.998 170.178 308.874 170.498 308.646 170.737C308.418 170.977 308.104 171.115 307.774 171.123H307.778Z" fill="white"/>
    <path d="M303.675 171.227L302.446 171.249C302.111 171.255 301.788 171.128 301.547 170.895C301.305 170.663 301.166 170.344 301.16 170.009C301.154 169.675 301.281 169.351 301.514 169.11C301.746 168.869 302.065 168.73 302.4 168.723L303.624 168.706C303.958 168.701 304.281 168.829 304.521 169.061C304.762 169.294 304.9 169.612 304.905 169.947C304.91 170.281 304.783 170.604 304.55 170.844C304.317 171.084 303.999 171.222 303.664 171.227H303.675Z" fill="white"/>
    <path d="M299.574 171.289L298.343 171.302C298.005 171.305 297.679 171.174 297.438 170.937C297.196 170.701 297.059 170.377 297.055 170.039C297.052 169.701 297.183 169.375 297.42 169.134C297.657 168.892 297.98 168.754 298.318 168.751H299.542C299.854 168.784 300.141 168.931 300.352 169.163C300.562 169.395 300.679 169.696 300.682 170.008C300.684 170.321 300.572 170.624 300.366 170.86C300.16 171.095 299.874 171.246 299.564 171.285L299.574 171.289Z" fill="white"/>
    <path d="M295.471 171.319H294.241C293.902 171.319 293.578 171.185 293.339 170.945C293.099 170.706 292.965 170.382 292.965 170.044C292.965 169.705 293.099 169.381 293.339 169.142C293.578 168.902 293.902 168.768 294.241 168.768H295.476C295.814 168.768 296.138 168.902 296.378 169.142C296.617 169.381 296.751 169.705 296.751 170.044C296.751 170.382 296.617 170.706 296.378 170.945C296.138 171.185 295.814 171.319 295.476 171.319H295.471Z" fill="white"/>
    <path d="M291.368 171.315H290.138C289.797 171.313 289.472 171.176 289.233 170.934C288.993 170.692 288.86 170.365 288.862 170.024C288.864 169.684 289.001 169.359 289.243 169.119C289.485 168.88 289.812 168.747 290.153 168.749L291.377 168.76C291.715 168.762 292.039 168.899 292.276 169.14C292.514 169.381 292.645 169.706 292.643 170.045C292.64 170.383 292.504 170.706 292.263 170.944C292.022 171.181 291.696 171.313 291.358 171.31L291.368 171.315Z" fill="white"/>
    <path d="M287.266 171.27C286.836 171.236 286.419 171.111 286.041 170.904C285.798 170.766 285.618 170.538 285.542 170.268C285.466 169.999 285.5 169.71 285.635 169.465C285.732 169.285 285.88 169.137 286.06 169.04C286.442 168.844 286.862 168.731 287.291 168.711C287.459 168.699 287.627 168.721 287.786 168.774C287.945 168.827 288.092 168.912 288.219 169.022C288.346 169.132 288.449 169.266 288.524 169.416C288.599 169.567 288.643 169.73 288.655 169.898C288.666 170.065 288.645 170.233 288.592 170.393C288.538 170.552 288.454 170.699 288.344 170.826C288.233 170.952 288.099 171.056 287.949 171.131C287.799 171.205 287.635 171.25 287.468 171.261C287.401 171.269 287.333 171.272 287.266 171.27Z" fill="white"/>
    <path d="M275.446 175.866L276.577 176.378C276.883 176.529 277.12 176.792 277.237 177.112C277.354 177.433 277.343 177.786 277.206 178.099C277.069 178.411 276.816 178.659 276.501 178.79C276.186 178.921 275.832 178.925 275.514 178.802H275.499L274.383 178.321H274.372C274.211 178.251 274.065 178.151 273.943 178.024C273.821 177.898 273.725 177.749 273.66 177.586C273.595 177.423 273.563 177.248 273.566 177.072C273.569 176.897 273.606 176.723 273.676 176.562C273.746 176.401 273.847 176.255 273.973 176.133C274.099 176.011 274.248 175.914 274.412 175.85C274.575 175.785 274.749 175.753 274.925 175.756C275.101 175.759 275.274 175.796 275.435 175.866H275.446Z" fill="white"/>
    <path d="M279.194 177.62L280.306 178.17C280.612 178.318 280.847 178.581 280.959 178.903C281.072 179.224 281.052 179.576 280.904 179.883C280.756 180.189 280.493 180.424 280.172 180.536C279.851 180.649 279.498 180.629 279.192 180.481H279.179L278.078 179.962C277.794 179.8 277.582 179.538 277.484 179.226C277.386 178.915 277.409 178.578 277.548 178.283C277.687 177.988 277.933 177.756 278.235 177.634C278.538 177.512 278.876 177.508 279.181 177.624L279.194 177.62Z" fill="white"/>
    <path d="M282.878 179.497L283.971 180.083C284.25 180.243 284.457 180.505 284.548 180.814C284.638 181.123 284.605 181.455 284.456 181.74C284.307 182.025 284.053 182.241 283.747 182.343C283.442 182.445 283.109 182.424 282.818 182.286H282.806L281.724 181.731C281.44 181.572 281.229 181.31 281.135 180.999C281.041 180.688 281.071 180.353 281.218 180.063C281.366 179.774 281.62 179.553 281.927 179.447C282.234 179.341 282.57 179.358 282.865 179.495L282.878 179.497Z" fill="white"/>
    <path d="M286.496 181.493L287.559 182.114C287.836 182.271 288.04 182.531 288.125 182.838C288.21 183.146 288.17 183.474 288.013 183.751C287.856 184.029 287.595 184.232 287.288 184.318C286.981 184.403 286.652 184.362 286.375 184.205H286.364L285.301 183.616C285.019 183.461 284.811 183.199 284.722 182.89C284.633 182.58 284.67 182.248 284.826 181.966C284.982 181.684 285.244 181.475 285.553 181.386C285.863 181.297 286.195 181.335 286.477 181.491L286.496 181.493Z" fill="white"/>
    <path d="M290.046 183.606L291.099 184.26C291.229 184.34 291.342 184.444 291.432 184.567C291.522 184.691 291.587 184.83 291.623 184.979C291.659 185.127 291.665 185.281 291.641 185.431C291.618 185.582 291.565 185.727 291.485 185.857C291.406 185.987 291.302 186.1 291.179 186.19C291.055 186.28 290.916 186.345 290.767 186.381C290.619 186.417 290.465 186.423 290.314 186.4C290.164 186.376 290.019 186.323 289.889 186.244H289.878L288.835 185.621C288.567 185.461 288.374 185.202 288.298 184.9C288.222 184.599 288.269 184.279 288.428 184.012C288.588 183.745 288.847 183.552 289.149 183.475C289.451 183.399 289.77 183.446 290.038 183.606H290.046Z" fill="white"/>
    <path d="M293.526 185.832L294.555 186.52C294.804 186.683 294.978 186.938 295.038 187.229C295.099 187.52 295.041 187.823 294.878 188.072C294.715 188.321 294.46 188.494 294.169 188.555C293.878 188.616 293.575 188.558 293.326 188.395L292.302 187.738C292.048 187.576 291.869 187.319 291.805 187.025C291.74 186.731 291.795 186.423 291.957 186.17C292.12 185.916 292.376 185.737 292.67 185.672C292.965 185.608 293.273 185.663 293.526 185.825V185.832Z" fill="white"/>
    <path d="M296.93 188.168L297.935 188.89C298.166 189.056 298.322 189.306 298.37 189.587C298.417 189.867 298.353 190.154 298.19 190.387C298.026 190.62 297.778 190.779 297.499 190.83C297.219 190.881 296.931 190.819 296.696 190.659H296.685L295.682 189.968C295.564 189.887 295.463 189.783 295.384 189.662C295.306 189.542 295.253 189.407 295.227 189.266C295.201 189.125 295.203 188.98 295.233 188.84C295.263 188.7 295.32 188.566 295.401 188.448C295.483 188.33 295.586 188.229 295.707 188.151C295.827 188.073 295.962 188.019 296.103 187.993C296.244 187.967 296.389 187.969 296.529 187.999C296.67 188.029 296.803 188.086 296.921 188.168H296.93Z" fill="white"/>
    <path d="M300.257 190.614L301.237 191.367C301.451 191.535 301.591 191.78 301.627 192.049C301.662 192.319 301.591 192.592 301.427 192.81C301.264 193.027 301.022 193.172 300.753 193.213C300.484 193.254 300.21 193.188 299.989 193.029L299.009 192.307C298.897 192.225 298.803 192.122 298.731 192.003C298.659 191.885 298.611 191.753 298.59 191.616C298.569 191.479 298.575 191.34 298.608 191.205C298.641 191.071 298.7 190.944 298.782 190.832C298.864 190.721 298.967 190.626 299.086 190.554C299.204 190.483 299.336 190.435 299.473 190.414C299.61 190.393 299.749 190.399 299.884 190.432C300.018 190.465 300.145 190.524 300.257 190.606V190.614Z" fill="white"/>
    <path d="M303.501 193.163L304.457 193.948C304.664 194.114 304.796 194.355 304.825 194.619C304.854 194.882 304.776 195.146 304.61 195.353C304.444 195.559 304.203 195.692 303.94 195.72C303.676 195.749 303.412 195.672 303.205 195.506L302.249 194.751C302.144 194.669 302.057 194.567 301.992 194.452C301.927 194.336 301.886 194.208 301.87 194.077C301.839 193.811 301.914 193.543 302.08 193.332C302.245 193.122 302.488 192.986 302.754 192.954C303.02 192.922 303.288 192.997 303.499 193.163H303.501Z" fill="white"/>
    <path d="M306.66 195.816L307.591 196.63C307.784 196.796 307.903 197.031 307.923 197.285C307.942 197.538 307.86 197.789 307.695 197.982C307.53 198.175 307.294 198.295 307.041 198.314C306.787 198.334 306.536 198.252 306.343 198.086L305.412 197.302C305.215 197.136 305.091 196.899 305.069 196.642C305.046 196.385 305.127 196.13 305.293 195.933C305.459 195.736 305.696 195.612 305.953 195.59C306.209 195.568 306.465 195.648 306.662 195.814L306.66 195.816Z" fill="white"/>
    <path d="M309.736 198.567L310.639 199.417C310.819 199.581 310.926 199.81 310.937 200.053C310.948 200.296 310.862 200.533 310.698 200.713C310.534 200.892 310.305 200.999 310.062 201.01C309.819 201.021 309.582 200.935 309.402 200.771L308.494 199.957C308.398 199.877 308.318 199.778 308.26 199.667C308.202 199.555 308.168 199.433 308.159 199.308C308.149 199.183 308.165 199.057 308.206 198.938C308.246 198.82 308.311 198.71 308.395 198.617C308.478 198.523 308.58 198.448 308.694 198.395C308.808 198.342 308.932 198.313 309.057 198.308C309.182 198.304 309.308 198.326 309.425 198.371C309.542 198.417 309.648 198.485 309.738 198.573L309.736 198.567Z" fill="white"/>
    <path d="M312.712 201.415L313.588 202.287C313.743 202.452 313.829 202.67 313.827 202.896C313.825 203.123 313.736 203.34 313.578 203.502C313.42 203.664 313.205 203.759 312.979 203.767C312.753 203.774 312.532 203.694 312.363 203.543L311.481 202.693C311.386 202.615 311.308 202.519 311.252 202.409C311.196 202.3 311.163 202.18 311.155 202.058C311.148 201.935 311.166 201.812 311.209 201.697C311.251 201.581 311.317 201.476 311.402 201.388C311.488 201.299 311.59 201.229 311.704 201.182C311.818 201.136 311.94 201.113 312.063 201.116C312.186 201.119 312.307 201.147 312.418 201.199C312.529 201.251 312.629 201.325 312.71 201.417L312.712 201.415Z" fill="white"/>
    <path d="M315.599 204.355L316.449 205.257C316.591 205.419 316.665 205.629 316.656 205.845C316.646 206.06 316.554 206.263 316.399 206.413C316.243 206.562 316.036 206.645 315.821 206.646C315.605 206.646 315.398 206.564 315.242 206.415L314.391 205.544C314.251 205.38 314.177 205.168 314.187 204.952C314.196 204.736 314.287 204.532 314.442 204.381C314.596 204.23 314.803 204.143 315.019 204.139C315.235 204.135 315.445 204.213 315.605 204.357L315.599 204.355Z" fill="white"/>
    <path d="M318.388 207.389L319.206 208.316C319.332 208.475 319.392 208.676 319.375 208.878C319.358 209.08 319.264 209.267 319.113 209.403C318.962 209.538 318.766 209.611 318.563 209.606C318.36 209.602 318.167 209.52 318.022 209.378L317.195 208.479C317.051 208.321 316.974 208.112 316.983 207.898C316.993 207.684 317.086 207.483 317.244 207.338C317.402 207.193 317.611 207.117 317.825 207.126C318.039 207.135 318.241 207.229 318.386 207.387L318.388 207.389Z" fill="white"/>
    <path d="M321.077 210.507L321.864 211.46C321.993 211.613 322.056 211.811 322.039 212.01C322.022 212.21 321.927 212.394 321.773 212.524C321.62 212.653 321.422 212.716 321.223 212.699C321.023 212.682 320.839 212.586 320.709 212.433L319.914 211.508C319.843 211.433 319.788 211.344 319.752 211.246C319.716 211.149 319.7 211.045 319.706 210.942C319.711 210.838 319.737 210.736 319.783 210.643C319.829 210.55 319.893 210.467 319.972 210.399C320.051 210.332 320.142 210.281 320.241 210.249C320.34 210.218 320.445 210.207 320.548 210.218C320.651 210.228 320.752 210.259 320.843 210.309C320.934 210.359 321.013 210.427 321.077 210.509V210.507Z" fill="white"/>
    <path d="M323.662 213.713L324.417 214.691C324.534 214.84 324.588 215.029 324.565 215.217C324.543 215.405 324.447 215.577 324.298 215.694C324.149 215.811 323.96 215.865 323.772 215.842C323.583 215.82 323.412 215.724 323.294 215.575L322.529 214.625C322.409 214.475 322.352 214.283 322.373 214.092C322.394 213.9 322.49 213.725 322.64 213.604C322.79 213.484 322.981 213.428 323.173 213.448C323.364 213.469 323.539 213.565 323.66 213.715L323.662 213.713Z" fill="white"/>
    <path d="M326.139 216.999L326.862 218.001C326.968 218.145 327.012 218.325 326.985 218.502C326.958 218.678 326.862 218.837 326.718 218.943C326.574 219.049 326.394 219.094 326.217 219.067C326.04 219.04 325.881 218.944 325.775 218.8L325.042 217.824C324.984 217.752 324.941 217.67 324.916 217.581C324.89 217.492 324.883 217.4 324.894 217.308C324.906 217.217 324.935 217.128 324.982 217.049C325.028 216.969 325.09 216.899 325.163 216.844C325.237 216.788 325.321 216.748 325.411 216.726C325.5 216.704 325.593 216.7 325.684 216.714C325.775 216.729 325.862 216.762 325.941 216.811C326.019 216.86 326.086 216.924 326.139 216.999Z" fill="white"/>
    <path d="M328.507 220.364L329.194 221.391C329.265 221.529 329.284 221.689 329.246 221.84C329.209 221.991 329.117 222.123 328.989 222.211C328.86 222.299 328.704 222.337 328.55 222.318C328.395 222.299 328.253 222.224 328.15 222.107L327.448 221.106C327.35 220.965 327.312 220.791 327.342 220.622C327.372 220.453 327.468 220.302 327.609 220.204C327.75 220.105 327.924 220.067 328.093 220.097C328.263 220.127 328.413 220.223 328.511 220.364H328.507Z" fill="white"/>
    <path d="M387.654 273.393C403.304 257.745 403.304 232.374 387.654 216.725C372.005 201.077 346.633 201.077 330.984 216.725C315.335 232.374 315.335 257.745 330.984 273.393C346.633 289.042 372.005 289.042 387.654 273.393Z" fill="url(#paint38_linear_11_6751)"/>
    <path d="M386.712 272.451C401.841 257.323 401.841 232.796 386.712 217.668C371.583 202.54 347.055 202.54 331.926 217.668C316.798 232.796 316.798 257.323 331.926 272.451C347.055 287.579 371.583 287.579 386.712 272.451Z" fill="#F4A17D"/>
    <path d="M323.609 243.571H323.586C323.478 243.565 323.378 243.517 323.305 243.438C323.233 243.358 323.195 243.254 323.199 243.146C323.28 241.622 323.455 240.104 323.724 238.601C323.749 238.5 323.812 238.412 323.899 238.355C323.987 238.299 324.093 238.278 324.196 238.296C324.298 238.315 324.39 238.372 324.452 238.456C324.514 238.54 324.542 238.644 324.53 238.748C324.266 240.216 324.095 241.699 324.017 243.189C324.01 243.292 323.964 243.389 323.888 243.46C323.812 243.531 323.713 243.57 323.609 243.571Z" fill="url(#paint39_linear_11_6751)"/>
    <path d="M327.38 229.369C327.311 229.368 327.243 229.35 327.182 229.316C327.121 229.282 327.071 229.233 327.034 229.173C326.998 229.114 326.977 229.046 326.974 228.977C326.971 228.907 326.986 228.838 327.017 228.776C330.018 222.782 334.632 217.744 340.341 214.23C346.05 210.715 352.626 208.864 359.33 208.883C361.518 208.883 363.701 209.079 365.854 209.47C365.955 209.495 366.043 209.558 366.1 209.645C366.156 209.733 366.177 209.839 366.159 209.942C366.14 210.044 366.083 210.136 365.999 210.198C365.915 210.26 365.811 210.288 365.707 210.276C363.603 209.893 361.468 209.701 359.33 209.702C352.775 209.683 346.345 211.494 340.764 214.931C335.183 218.368 330.672 223.295 327.74 229.157C327.705 229.221 327.653 229.275 327.589 229.313C327.526 229.35 327.454 229.37 327.38 229.369Z" fill="url(#paint40_linear_11_6751)"/>
    <path d="M383.347 269.087C396.152 256.283 396.152 235.523 383.347 222.719C370.542 209.914 349.781 209.914 336.976 222.719C324.172 235.523 324.172 256.283 336.976 269.087C349.781 281.892 370.542 281.892 383.347 269.087Z" fill="url(#paint41_linear_11_6751)"/>
    <path d="M377.18 238.404H369.075V230.298C369.075 229.27 368.666 228.285 367.939 227.558C367.213 226.831 366.227 226.423 365.199 226.423H355.291C354.263 226.423 353.277 226.831 352.55 227.558C351.823 228.285 351.415 229.27 351.415 230.298V238.404H343.309C342.282 238.404 341.296 238.812 340.569 239.539C339.842 240.265 339.434 241.251 339.434 242.279V252.187C339.434 253.215 339.842 254.2 340.569 254.927C341.296 255.654 342.282 256.062 343.309 256.062H351.415V264.168C351.415 265.196 351.823 266.181 352.55 266.908C353.277 267.635 354.263 268.043 355.291 268.043H365.199C366.227 268.043 367.213 267.635 367.939 266.908C368.666 266.181 369.075 265.196 369.075 264.168V256.062H377.18C378.208 256.062 379.194 255.654 379.921 254.927C380.648 254.2 381.056 253.215 381.056 252.187V242.279C381.056 241.251 380.648 240.265 379.921 239.539C379.194 238.812 378.208 238.404 377.18 238.404Z" fill="url(#paint42_linear_11_6751)"/>
    </g>
    <defs>
    <linearGradient id="paint0_linear_11_6751" x1="-1.20637e-07" y1="148.782" x2="459" y2="148.782" gradientUnits="userSpaceOnUse">
    <stop stop-color="#FEE7DA"/>
    <stop offset="1" stop-color="#FDFBE9"/>
    </linearGradient>
    <linearGradient id="paint1_linear_11_6751" x1="172.914" y1="189.547" x2="267.098" y2="189.547" gradientUnits="userSpaceOnUse">
    <stop stop-color="#FE7062"/>
    <stop offset="1" stop-color="#FF928E"/>
    </linearGradient>
    <linearGradient id="paint2_linear_11_6751" x1="213.805" y1="18.0923" x2="28.8998" y2="149.446" gradientUnits="userSpaceOnUse">
    <stop stop-color="#FE7062"/>
    <stop offset="1" stop-color="#FF928E"/>
    </linearGradient>
    <linearGradient id="paint3_linear_11_6751" x1="250.059" y1="-42.715" x2="219.456" y2="79.7058" gradientUnits="userSpaceOnUse">
    <stop stop-color="#FE7062"/>
    <stop offset="1" stop-color="#FF928E"/>
    </linearGradient>
    <linearGradient id="paint4_linear_11_6751" x1="215.1" y1="26.9886" x2="146.241" y2="131.557" gradientUnits="userSpaceOnUse">
    <stop stop-color="#FE7062"/>
    <stop offset="1" stop-color="#FF928E"/>
    </linearGradient>
    <linearGradient id="paint5_linear_11_6751" x1="140.225" y1="28.1583" x2="150.987" y2="25.0743" gradientUnits="userSpaceOnUse">
    <stop stop-color="#E1473D"/>
    <stop offset="1" stop-color="#E9605A"/>
    </linearGradient>
    <linearGradient id="paint6_linear_11_6751" x1="32.9506" y1="154.625" x2="35.7646" y2="153.819" gradientUnits="userSpaceOnUse">
    <stop stop-color="#E1473D"/>
    <stop offset="1" stop-color="#E9605A"/>
    </linearGradient>
    <linearGradient id="paint7_linear_11_6751" x1="104.698" y1="147.654" x2="107.514" y2="146.847" gradientUnits="userSpaceOnUse">
    <stop stop-color="#E1473D"/>
    <stop offset="1" stop-color="#E9605A"/>
    </linearGradient>
    <linearGradient id="paint8_linear_11_6751" x1="306.149" y1="76.313" x2="308.963" y2="75.5066" gradientUnits="userSpaceOnUse">
    <stop stop-color="#E1473D"/>
    <stop offset="1" stop-color="#E9605A"/>
    </linearGradient>
    <linearGradient id="paint9_linear_11_6751" x1="242.648" y1="106.324" x2="245.462" y2="105.502" gradientUnits="userSpaceOnUse">
    <stop stop-color="#E1473D"/>
    <stop offset="1" stop-color="#E9605A"/>
    </linearGradient>
    <linearGradient id="paint10_linear_11_6751" x1="314.664" y1="130.675" x2="368.409" y2="68.2879" gradientUnits="userSpaceOnUse">
    <stop stop-color="#4042E2"/>
    <stop offset="1" stop-color="#4F52FF"/>
    </linearGradient>
    <linearGradient id="paint11_linear_11_6751" x1="429.651" y1="-1.9663" x2="361.626" y2="49.0546" gradientUnits="userSpaceOnUse">
    <stop stop-color="#FE7062"/>
    <stop offset="1" stop-color="#FF928E"/>
    </linearGradient>
    <linearGradient id="paint12_linear_11_6751" x1="439.034" y1="10.5437" x2="371.009" y2="61.5646" gradientUnits="userSpaceOnUse">
    <stop stop-color="#FE7062"/>
    <stop offset="1" stop-color="#FF928E"/>
    </linearGradient>
    <linearGradient id="paint13_linear_11_6751" x1="434.374" y1="4.33015" x2="366.349" y2="55.3511" gradientUnits="userSpaceOnUse">
    <stop stop-color="#FE7062"/>
    <stop offset="1" stop-color="#FF928E"/>
    </linearGradient>
    <linearGradient id="paint14_linear_11_6751" x1="436.868" y1="7.65478" x2="368.843" y2="58.6758" gradientUnits="userSpaceOnUse">
    <stop stop-color="#FE7062"/>
    <stop offset="1" stop-color="#FF928E"/>
    </linearGradient>
    <linearGradient id="paint15_linear_11_6751" x1="444.119" y1="17.325" x2="376.094" y2="68.3458" gradientUnits="userSpaceOnUse">
    <stop stop-color="#FE7062"/>
    <stop offset="1" stop-color="#FF928E"/>
    </linearGradient>
    <linearGradient id="paint16_linear_11_6751" x1="445.99" y1="19.8185" x2="377.965" y2="70.8393" gradientUnits="userSpaceOnUse">
    <stop stop-color="#FE7062"/>
    <stop offset="1" stop-color="#FF928E"/>
    </linearGradient>
    <linearGradient id="paint17_linear_11_6751" x1="435.954" y1="6.43681" x2="367.929" y2="57.4577" gradientUnits="userSpaceOnUse">
    <stop stop-color="#FE7062"/>
    <stop offset="1" stop-color="#FF928E"/>
    </linearGradient>
    <linearGradient id="paint18_linear_11_6751" x1="445.337" y1="18.9468" x2="377.312" y2="69.9699" gradientUnits="userSpaceOnUse">
    <stop stop-color="#FE7062"/>
    <stop offset="1" stop-color="#FF928E"/>
    </linearGradient>
    <linearGradient id="paint19_linear_11_6751" x1="440.677" y1="12.7354" x2="372.652" y2="63.7542" gradientUnits="userSpaceOnUse">
    <stop stop-color="#FE7062"/>
    <stop offset="1" stop-color="#FF928E"/>
    </linearGradient>
    <linearGradient id="paint20_linear_11_6751" x1="445.239" y1="18.8171" x2="377.214" y2="69.8381" gradientUnits="userSpaceOnUse">
    <stop stop-color="#FE7062"/>
    <stop offset="1" stop-color="#FF928E"/>
    </linearGradient>
    <linearGradient id="paint21_linear_11_6751" x1="450.422" y1="25.7281" x2="382.397" y2="76.7489" gradientUnits="userSpaceOnUse">
    <stop stop-color="#FE7062"/>
    <stop offset="1" stop-color="#FF928E"/>
    </linearGradient>
    <linearGradient id="paint22_linear_11_6751" x1="452.293" y1="28.2237" x2="384.268" y2="79.2445" gradientUnits="userSpaceOnUse">
    <stop stop-color="#FE7062"/>
    <stop offset="1" stop-color="#FF928E"/>
    </linearGradient>
    <linearGradient id="paint23_linear_11_6751" x1="361.881" y1="226.81" x2="415.626" y2="164.423" gradientUnits="userSpaceOnUse">
    <stop stop-color="#4042E2"/>
    <stop offset="1" stop-color="#4F52FF"/>
    </linearGradient>
    <linearGradient id="paint24_linear_11_6751" x1="458.928" y1="106.781" x2="431.718" y2="139.944" gradientUnits="userSpaceOnUse">
    <stop stop-color="#FE7062"/>
    <stop offset="1" stop-color="#FF928E"/>
    </linearGradient>
    <linearGradient id="paint25_linear_11_6751" x1="466.209" y1="112.754" x2="438.999" y2="145.919" gradientUnits="userSpaceOnUse">
    <stop stop-color="#FE7062"/>
    <stop offset="1" stop-color="#FF928E"/>
    </linearGradient>
    <linearGradient id="paint26_linear_11_6751" x1="139.164" y1="196.046" x2="126.765" y2="224.255" gradientUnits="userSpaceOnUse">
    <stop stop-color="#A22B25"/>
    <stop offset="1" stop-color="#C0423C"/>
    </linearGradient>
    <linearGradient id="paint27_linear_11_6751" x1="103.331" y1="345.297" x2="107.582" y2="385.686" gradientUnits="userSpaceOnUse">
    <stop stop-color="#09005D"/>
    <stop offset="1" stop-color="#1A0F91"/>
    </linearGradient>
    <linearGradient id="paint28_linear_11_6751" x1="124.83" y1="316.542" x2="116.642" y2="220.823" gradientUnits="userSpaceOnUse">
    <stop stop-color="#A22B25"/>
    <stop offset="1" stop-color="#C0423C"/>
    </linearGradient>
    <linearGradient id="paint29_linear_11_6751" x1="127.755" y1="342.727" x2="132.006" y2="383.116" gradientUnits="userSpaceOnUse">
    <stop stop-color="#09005D"/>
    <stop offset="1" stop-color="#1A0F91"/>
    </linearGradient>
    <linearGradient id="paint30_linear_11_6751" x1="108.357" y1="317.966" x2="100.164" y2="222.222" gradientUnits="userSpaceOnUse">
    <stop stop-color="#A22B25"/>
    <stop offset="1" stop-color="#C0423C"/>
    </linearGradient>
    <linearGradient id="paint31_linear_11_6751" x1="124.628" y1="220.016" x2="120.534" y2="258.009" gradientUnits="userSpaceOnUse">
    <stop stop-color="#FE7062"/>
    <stop offset="1" stop-color="#FF928E"/>
    </linearGradient>
    <linearGradient id="paint32_linear_11_6751" x1="125.729" y1="222.193" x2="124.19" y2="210.939" gradientUnits="userSpaceOnUse">
    <stop stop-color="#A22B25"/>
    <stop offset="1" stop-color="#C0423C"/>
    </linearGradient>
    <linearGradient id="paint33_linear_11_6751" x1="119.388" y1="227.677" x2="109.169" y2="227.677" gradientUnits="userSpaceOnUse">
    <stop stop-color="#A22B25"/>
    <stop offset="1" stop-color="#C0423C"/>
    </linearGradient>
    <linearGradient id="paint34_linear_11_6751" x1="129.611" y1="207.682" x2="116.189" y2="183.795" gradientUnits="userSpaceOnUse">
    <stop stop-color="#A22B25"/>
    <stop offset="1" stop-color="#C0423C"/>
    </linearGradient>
    <linearGradient id="paint35_linear_11_6751" x1="126.754" y1="209.287" x2="113.332" y2="185.399" gradientUnits="userSpaceOnUse">
    <stop stop-color="#A22B25"/>
    <stop offset="1" stop-color="#C0423C"/>
    </linearGradient>
    <linearGradient id="paint36_linear_11_6751" x1="141.613" y1="197.121" x2="129.216" y2="225.333" gradientUnits="userSpaceOnUse">
    <stop stop-color="#A22B25"/>
    <stop offset="1" stop-color="#C0423C"/>
    </linearGradient>
    <linearGradient id="paint37_linear_11_6751" x1="147.542" y1="186.703" x2="144.583" y2="186.703" gradientUnits="userSpaceOnUse">
    <stop stop-color="#A22B25"/>
    <stop offset="1" stop-color="#C0423C"/>
    </linearGradient>
    <linearGradient id="paint38_linear_11_6751" x1="304.485" y1="308.704" x2="358.23" y2="246.317" gradientUnits="userSpaceOnUse">
    <stop stop-color="#4042E2"/>
    <stop offset="1" stop-color="#4F52FF"/>
    </linearGradient>
    <linearGradient id="paint39_linear_11_6751" x1="323.199" y1="240.916" x2="324.536" y2="240.916" gradientUnits="userSpaceOnUse">
    <stop stop-color="#DAE3FE"/>
    <stop offset="1" stop-color="#E9EFFD"/>
    </linearGradient>
    <linearGradient id="paint40_linear_11_6751" x1="326.966" y1="219.134" x2="366.179" y2="219.134" gradientUnits="userSpaceOnUse">
    <stop stop-color="#DAE3FE"/>
    <stop offset="1" stop-color="#E9EFFD"/>
    </linearGradient>
    <linearGradient id="paint41_linear_11_6751" x1="327.376" y1="245.904" x2="392.952" y2="245.904" gradientUnits="userSpaceOnUse">
    <stop stop-color="#DAE3FE"/>
    <stop offset="1" stop-color="#E9EFFD"/>
    </linearGradient>
    <linearGradient id="paint42_linear_11_6751" x1="393.966" y1="190.259" x2="369.308" y2="231.925" gradientUnits="userSpaceOnUse">
    <stop stop-color="#FE7062"/>
    <stop offset="1" stop-color="#FF928E"/>
    </linearGradient>
    <clipPath id="clip0_11_6751">
    <rect width="459" height="297" fill="white"/>
    </clipPath>
    </defs>
    </svg>
    