<svg width="299" height="193" viewBox="0 0 299 193" fill="none" xmlns="http://www.w3.org/2000/svg">
    <g clip-path="url(#clip0_40_1244)">
    <path d="M148.802 192.5C218.312 192.5 274.661 189.828 274.661 186.533C274.661 183.237 218.312 180.565 148.802 180.565C79.2923 180.565 22.9434 183.237 22.9434 186.533C22.9434 189.828 79.2923 192.5 148.802 192.5Z" fill="#E9ECF2"/>
    <path d="M65.7388 166.372C43.8984 159.624 14.3329 125.934 26.3491 93.0757C33.1996 74.3786 54.6437 72.9934 71.5148 69.889C94.958 65.5735 105.51 51.8491 121.036 34.9528C138.385 16.0817 177.796 -5.9683 212.638 23.4092C222.027 31.3193 223.519 46.6207 235.632 57.358C247.808 68.1593 263.691 68.209 270.841 89.5913C276.41 106.253 252.431 140.916 236.188 151.245C206.141 170.357 114.992 181.571 65.7388 166.372Z" fill="#FFF6F3"/>
    <path d="M284.381 97.5127V97.8679C284.024 112.978 281.858 124.653 278.745 133.678L270.677 138.103L277.156 137.45L277.342 137.432C273.326 147.321 268.164 153.575 263.391 157.522C260.95 159.57 258.225 161.259 255.301 162.537L254.855 162.729C254.498 162.881 254.141 163.016 253.784 163.141H249.465C249.418 162.938 249.372 162.739 249.329 162.537C249.301 162.413 249.272 162.285 249.247 162.157C249.222 162.029 249.176 161.823 249.14 161.656C245.088 141.922 252.303 126.723 261.249 116.085C261.274 116.048 261.303 116.014 261.334 115.982C264.233 112.568 267.43 109.416 270.887 106.563L272.533 111.475L273.161 104.748C276.599 102.066 280.266 99.6893 284.121 97.6441C284.292 97.5518 284.381 97.5127 284.381 97.5127Z" fill="#E5B19A"/>
    <path d="M284.528 97.5905L284.371 97.8782L274.579 115.805L274.404 116.121L271.733 121.008L271.644 121.171L263.13 136.753L263.119 136.775L249.247 162.167L249.04 162.547L248.708 163.151H248.333L248.658 162.547L249.14 161.666L262.83 136.608L263.084 136.143L284.121 97.6402L284.239 97.4307L284.528 97.5905Z" fill="white"/>
    <path d="M282.933 114.185L271.598 121.102L271.749 121.347L283.085 114.43L282.933 114.185Z" fill="white"/>
    <path d="M283.195 110.552L274.309 115.975L274.46 116.22L283.346 110.798L283.195 110.552Z" fill="white"/>
    <path d="M262.697 115.421L262.407 115.444L264.084 136.305L264.374 136.282L262.697 115.421Z" fill="white"/>
    <path d="M247.562 166.401C247.562 166.401 257.497 171.729 272.44 163.879L267.86 161.4L275.514 162.11C281.376 158.466 287.898 152.79 294.82 144.095L293.07 143.157L295.391 143.37C296.557 141.883 297.735 140.308 298.925 138.643C295.488 138.256 292.023 138.184 288.572 138.43L285.231 142.483L286.302 138.622C273.779 139.854 255.326 145.395 247.562 166.401Z" fill="#F3D2BA"/>
    <path d="M298.848 138.507L246.762 165.267L246.911 165.554L298.997 138.794L298.848 138.507Z" fill="white"/>
    <path d="M285.38 145.586L285.333 145.885L292.529 147.003L292.576 146.705L285.38 145.586Z" fill="white"/>
    <path d="M281.83 147.362L281.761 147.656L290.12 149.592L290.188 149.298L281.83 147.362Z" fill="white"/>
    <path d="M260.442 148.539L260.203 148.241C264.644 144.71 269.959 142.053 276.01 140.345L276.117 140.7C270.116 142.408 264.84 145.04 260.442 148.539Z" fill="#933D00"/>
    <path d="M257.708 52.7832V182.87C257.708 183.303 257.623 183.731 257.457 184.131C257.29 184.531 257.047 184.894 256.739 185.2C256.432 185.506 256.067 185.748 255.665 185.913C255.264 186.079 254.833 186.164 254.398 186.163H190.141C189.263 186.163 188.422 185.816 187.801 185.199C187.18 184.581 186.832 183.744 186.832 182.87V52.7832C186.832 52.351 186.917 51.923 187.084 51.5237C187.25 51.1244 187.494 50.7617 187.801 50.4562C188.109 50.1508 188.473 49.9086 188.875 49.7435C189.276 49.5784 189.707 49.4937 190.141 49.4941H254.398C254.833 49.4932 255.263 49.5776 255.665 49.7425C256.067 49.9074 256.432 50.1496 256.739 50.4552C257.047 50.7607 257.29 51.1237 257.457 51.5231C257.623 51.9226 257.708 52.3508 257.708 52.7832Z" fill="#D09844"/>
    <path d="M254.645 52.7842V182.872C254.645 183.304 254.56 183.732 254.394 184.131C254.228 184.531 253.985 184.894 253.678 185.2C253.371 185.505 253.006 185.748 252.605 185.913C252.203 186.079 251.773 186.164 251.339 186.164H187.06C186.183 186.163 185.342 185.816 184.723 185.199C184.103 184.581 183.755 183.744 183.755 182.872V52.7842C183.755 51.9119 184.103 51.0754 184.723 50.4585C185.343 49.8417 186.183 49.4952 187.06 49.4952H251.318C251.754 49.4919 252.186 49.5746 252.59 49.7385C252.993 49.9023 253.361 50.1441 253.67 50.4499C253.979 50.7557 254.225 51.1194 254.392 51.5201C254.559 51.9207 254.645 52.3504 254.645 52.7842Z" fill="#F2D2A2"/>
    <path d="M249.775 66.2741V169.385C249.775 171.484 248.176 173.186 246.205 173.186H192.208C190.234 173.186 188.638 171.484 188.638 169.385V66.2741C188.638 64.175 190.241 62.4736 192.208 62.4736H246.202C248.176 62.4736 249.775 64.175 249.775 66.2741Z" fill="#FFEFE1"/>
    <path d="M228.135 55.7631H210.264C210.18 55.7631 210.099 55.7298 210.04 55.6705C209.98 55.6112 209.947 55.5308 209.947 55.447C209.947 55.3631 209.98 55.2827 210.04 55.2234C210.099 55.1642 210.18 55.1309 210.264 55.1309H228.114C228.198 55.1309 228.279 55.1642 228.338 55.2234C228.398 55.2827 228.431 55.3631 228.431 55.447C228.431 55.5308 228.398 55.6112 228.338 55.6705C228.279 55.7298 228.198 55.7631 228.114 55.7631H228.135Z" fill="#933D00"/>
    <path d="M235.028 130.502H203.378C201.412 130.502 199.819 132.087 199.819 134.043V135.4C199.819 137.356 201.412 138.941 203.378 138.941H235.028C236.994 138.941 238.587 137.356 238.587 135.4V134.043C238.587 132.087 236.994 130.502 235.028 130.502Z" fill="#E28F60"/>
    <path d="M246.891 173.945H191.519C190.324 173.923 189.186 173.431 188.355 172.576C187.523 171.721 187.067 170.573 187.085 169.384V66.2731C187.067 65.0835 187.523 63.9353 188.354 63.0798C189.185 62.2243 190.323 61.7314 191.519 61.709H246.891C248.085 61.7333 249.221 62.227 250.051 63.0823C250.88 63.9375 251.336 65.0847 251.317 66.2731V169.384C251.336 170.572 250.88 171.719 250.05 172.574C249.221 173.428 248.085 173.921 246.891 173.945ZM191.519 63.2327C190.729 63.2541 189.98 63.5862 189.436 64.1561C188.892 64.726 188.597 65.4873 188.617 66.2731V169.384C188.597 170.17 188.892 170.931 189.436 171.501C189.98 172.071 190.729 172.403 191.519 172.424H246.891C247.681 172.403 248.429 172.071 248.974 171.501C249.518 170.931 249.812 170.17 249.793 169.384V66.2731C249.812 65.4873 249.518 64.726 248.974 64.1561C248.429 63.5862 247.681 63.2541 246.891 63.2327H191.519Z" fill="white"/>
    <path d="M193.643 117.14H244.813C245.872 117.14 246.73 116.286 246.73 115.232V82.4663C246.73 81.4129 245.872 80.5589 244.813 80.5589H193.643C192.584 80.5589 191.726 81.4129 191.726 82.4663V115.232C191.726 116.286 192.584 117.14 193.643 117.14Z" fill="#D09844"/>
    <path d="M205.57 102.918H196.356C196.07 102.918 195.838 103.149 195.838 103.433V105.198C195.838 105.483 196.07 105.713 196.356 105.713H205.57C205.856 105.713 206.087 105.483 206.087 105.198V103.433C206.087 103.149 205.856 102.918 205.57 102.918Z" fill="white"/>
    <path d="M217.747 102.918H208.533C208.247 102.918 208.015 103.149 208.015 103.433V105.198C208.015 105.483 208.247 105.713 208.533 105.713H217.747C218.032 105.713 218.264 105.483 218.264 105.198V103.433C218.264 103.149 218.032 102.918 217.747 102.918Z" fill="white"/>
    <path d="M229.923 102.918H220.71C220.424 102.918 220.192 103.149 220.192 103.433V105.198C220.192 105.483 220.424 105.713 220.71 105.713H229.923C230.209 105.713 230.441 105.483 230.441 105.198V103.433C230.441 103.149 230.209 102.918 229.923 102.918Z" fill="white"/>
    <path d="M242.1 102.918H232.886C232.6 102.918 232.369 103.149 232.369 103.433V105.198C232.369 105.483 232.6 105.713 232.886 105.713H242.1C242.386 105.713 242.618 105.483 242.618 105.198V103.433C242.618 103.149 242.386 102.918 242.1 102.918Z" fill="white"/>
    <path d="M241.986 108.385H229.866C229.517 108.385 229.234 108.666 229.234 109.013V110.551C229.234 110.899 229.517 111.18 229.866 111.18H241.986C242.335 111.18 242.618 110.899 242.618 110.551V109.013C242.618 108.666 242.335 108.385 241.986 108.385Z" fill="white"/>
    <path d="M198.177 91.3532V87.6842C198.178 87.2992 198.332 86.9302 198.605 86.658C198.879 86.3857 199.25 86.2324 199.637 86.2314H206.801C207.189 86.2314 207.561 86.3844 207.835 86.6567C208.11 86.9291 208.264 87.2986 208.265 87.6842V91.3532C208.264 91.7392 208.11 92.109 207.835 92.3819C207.561 92.6548 207.189 92.8086 206.801 92.8095H199.637C199.249 92.8086 198.878 92.6547 198.604 92.3817C198.33 92.1087 198.177 91.7389 198.177 91.3532ZM199.637 86.6222C199.353 86.6222 199.08 86.7344 198.879 86.9342C198.679 87.1341 198.566 87.4051 198.566 87.6877V91.3568C198.566 91.6394 198.679 91.9104 198.879 92.1103C199.08 92.3101 199.353 92.4224 199.637 92.4224H206.801C207.085 92.4224 207.358 92.3101 207.559 92.1103C207.76 91.9104 207.872 91.6394 207.872 91.3568V87.6842C207.872 87.4016 207.76 87.1305 207.559 86.9307C207.358 86.7309 207.085 86.6186 206.801 86.6186L199.637 86.6222Z" fill="white"/>
    <path d="M240.919 89.0096C240.919 88.9628 240.938 88.9181 240.972 88.8853C241.746 88.1136 242.18 87.0681 242.18 85.9781C242.18 84.8881 241.746 83.8426 240.972 83.0709C240.955 83.0549 240.941 83.0357 240.932 83.0143C240.923 82.9929 240.918 82.9699 240.918 82.9466C240.918 82.9233 240.923 82.9002 240.932 82.8788C240.941 82.8575 240.955 82.8382 240.972 82.8223C241.005 82.7897 241.05 82.7715 241.097 82.7715C241.144 82.7715 241.189 82.7897 241.222 82.8223C242.062 83.6605 242.534 84.796 242.534 85.9799C242.534 87.1637 242.062 88.2992 241.222 89.1375C241.189 89.17 241.144 89.1882 241.097 89.1882C241.05 89.1882 241.005 89.17 240.972 89.1375C240.938 89.1036 240.919 89.0576 240.919 89.0096Z" fill="white"/>
    <path d="M240.03 83.9692C240.029 83.9459 240.034 83.9228 240.043 83.9014C240.052 83.8799 240.066 83.8607 240.083 83.8448C240.099 83.8278 240.119 83.8143 240.14 83.805C240.162 83.7958 240.185 83.791 240.208 83.791C240.232 83.791 240.255 83.7958 240.276 83.805C240.298 83.8143 240.317 83.8278 240.333 83.8448C240.904 84.4142 241.225 85.1857 241.225 85.9902C241.225 86.7946 240.904 87.5661 240.333 88.1355C240.3 88.168 240.255 88.1863 240.208 88.1863C240.161 88.1863 240.117 88.168 240.083 88.1355C240.066 88.1196 240.053 88.1003 240.043 88.0789C240.034 88.0575 240.029 88.0345 240.029 88.0112C240.029 87.9879 240.034 87.9648 240.043 87.9434C240.053 87.9221 240.066 87.9028 240.083 87.8869C240.587 87.383 240.87 86.701 240.87 85.9902C240.87 85.2793 240.587 84.5973 240.083 84.0935C240.066 84.0774 240.053 84.058 240.044 84.0367C240.035 84.0153 240.03 83.9924 240.03 83.9692Z" fill="white"/>
    <path d="M239.18 87.0632C239.18 87.0399 239.184 87.0168 239.193 86.9954C239.203 86.974 239.216 86.9547 239.234 86.9388C239.487 86.6835 239.63 86.3389 239.63 85.9798C239.63 85.6208 239.487 85.2762 239.234 85.0208C239.2 84.9879 239.182 84.9431 239.182 84.8965C239.182 84.8499 239.2 84.8052 239.234 84.7722C239.267 84.7392 239.312 84.7207 239.358 84.7207C239.405 84.7207 239.45 84.7392 239.483 84.7722C239.643 84.9306 239.77 85.1188 239.856 85.326C239.943 85.5333 239.987 85.7554 239.987 85.9798C239.987 86.2042 239.943 86.4264 239.856 86.6336C239.77 86.8409 239.643 87.0291 239.483 87.1875C239.45 87.22 239.405 87.2382 239.358 87.2382C239.312 87.2382 239.267 87.22 239.234 87.1875C239.217 87.1714 239.203 87.152 239.194 87.1307C239.185 87.1093 239.18 87.0864 239.18 87.0632Z" fill="white"/>
    <path d="M254.93 157.137H254.359V52.7831C254.357 51.9868 254.038 51.2236 253.472 50.6604C252.906 50.0973 252.139 49.7801 251.339 49.7783H187.06C186.26 49.7801 185.493 50.0973 184.927 50.6604C184.361 51.2236 184.042 51.9868 184.04 52.7831V142.159H183.49V52.7831C183.492 51.8397 183.868 50.9352 184.537 50.2661C185.205 49.597 186.112 49.2174 187.06 49.21H251.318C252.27 49.2109 253.183 49.5877 253.856 50.2576C254.529 50.9275 254.908 51.8358 254.909 52.7831L254.93 157.137Z" fill="#933D00"/>
    <path d="M194.461 186.448H187.06C186.111 186.441 185.204 186.06 184.535 185.391C183.867 184.721 183.491 183.815 183.49 182.871V167.829H184.065V182.871C184.066 183.668 184.385 184.432 184.951 184.995C185.517 185.558 186.285 185.875 187.085 185.876H194.475L194.461 186.448Z" fill="#933D00"/>
    <path d="M223.783 185.876H216.943V186.448H223.783V185.876Z" fill="#933D00"/>
    <path d="M259.171 185.588C259.171 186.572 251.917 187.364 242.975 187.364C234.032 187.364 226.775 186.565 226.775 185.588C226.773 185.571 226.773 185.553 226.775 185.535V180.719H259.171V185.524C259.176 185.545 259.176 185.567 259.171 185.588Z" fill="#F49B51"/>
    <path d="M242.968 182.545C251.913 182.545 259.164 181.746 259.164 180.762C259.164 179.777 251.913 178.979 242.968 178.979C234.023 178.979 226.771 179.777 226.771 180.762C226.771 181.746 234.023 182.545 242.968 182.545Z" fill="#FCC659"/>
    <path d="M262.994 179.777C262.994 180.757 255.741 181.553 246.798 181.553C237.856 181.553 230.602 180.754 230.602 179.777C230.6 179.759 230.6 179.741 230.602 179.723V174.896H262.977V179.702C262.988 179.726 262.994 179.751 262.994 179.777Z" fill="#F49B51"/>
    <path d="M246.794 176.733C255.74 176.733 262.991 175.935 262.991 174.95C262.991 173.965 255.74 173.167 246.794 173.167C237.849 173.167 230.598 173.965 230.598 174.95C230.598 175.935 237.849 176.733 246.794 176.733Z" fill="#FCC659"/>
    <path d="M259.171 173.962C259.171 174.946 251.917 175.738 242.975 175.738C234.032 175.738 226.775 174.939 226.775 173.962C226.773 173.945 226.773 173.927 226.775 173.909V169.093H259.171V173.898C259.176 173.92 259.176 173.941 259.171 173.962Z" fill="#F49B51"/>
    <path d="M242.968 170.923C251.913 170.923 259.164 170.124 259.164 169.139C259.164 168.155 251.913 167.356 242.968 167.356C234.023 167.356 226.771 168.155 226.771 169.139C226.771 170.124 234.023 170.923 242.968 170.923Z" fill="#FCC659"/>
    <path d="M242.971 187.559C236.385 187.559 226.582 187.034 226.582 185.588H226.968C226.968 186.142 232.462 187.179 242.971 187.179H244.106V187.559H242.971Z" fill="#933D00"/>
    <path d="M249.393 187.414L249.376 187.034C251.014 186.956 252.517 186.849 253.845 186.718L253.884 187.094C252.549 187.229 251.039 187.329 249.393 187.414Z" fill="#933D00"/>
    <path d="M236.578 181.318C230.491 180.768 230.491 180.004 230.491 179.752H230.873C230.873 179.94 231.905 180.512 236.613 180.938L236.578 181.318Z" fill="#933D00"/>
    <path d="M246.88 181.728C245.06 181.728 243.271 181.692 241.565 181.628V181.248C244.613 181.365 247.99 181.376 251.121 181.284V181.664C249.757 181.706 248.322 181.728 246.88 181.728Z" fill="#933D00"/>
    <path d="M255.166 181.475L255.141 181.094C256.869 180.981 258.375 180.835 259.617 180.661L259.671 181.038C258.418 181.215 256.904 181.361 255.166 181.475Z" fill="#933D00"/>
    <path d="M232.08 170.656C226.686 170.109 226.686 169.417 226.686 169.157H227.068C227.068 169.157 227.207 169.779 232.122 170.276L232.08 170.656Z" fill="#933D00"/>
    <path d="M243.068 171.128C241.208 171.128 239.387 171.093 237.656 171.025V170.645C239.38 170.713 241.197 170.748 243.053 170.748C246.377 170.748 249.572 170.638 252.285 170.429L252.317 170.809C249.604 171.018 246.402 171.128 243.068 171.128Z" fill="#933D00"/>
    <path d="M264.908 168.148C264.908 169.132 257.654 169.924 248.712 169.924C239.769 169.924 232.515 169.125 232.515 168.148C232.514 168.131 232.514 168.113 232.515 168.095V163.282H264.883V168.088C264.894 168.107 264.903 168.127 264.908 168.148Z" fill="#F49B51"/>
    <path d="M248.711 165.107C257.657 165.107 264.908 164.309 264.908 163.324C264.908 162.339 257.657 161.541 248.711 161.541C239.766 161.541 232.515 162.339 232.515 163.324C232.515 164.309 239.766 165.107 248.711 165.107Z" fill="#FCC659"/>
    <path d="M261.902 163.325C261.902 163.989 255.994 164.525 248.711 164.525C241.429 164.525 235.503 163.989 235.503 163.325C235.503 162.661 241.411 162.128 248.711 162.128C256.012 162.128 261.902 162.664 261.902 163.325Z" fill="#F49B51"/>
    <path d="M206.694 154.743C203.46 154.656 200.272 155.525 197.534 157.24C194.795 158.956 192.63 161.44 191.311 164.38C189.992 167.32 189.579 170.583 190.124 173.757C190.668 176.93 192.147 179.872 194.372 182.209C196.597 184.547 199.469 186.175 202.624 186.889C205.779 187.602 209.076 187.369 212.098 186.218C215.12 185.068 217.732 183.051 219.602 180.424C221.472 177.797 222.517 174.677 222.605 171.458C222.664 169.321 222.299 167.194 221.531 165.197C220.764 163.2 219.608 161.373 218.13 159.821C216.653 158.269 214.882 157.021 212.92 156.15C210.958 155.279 208.842 154.801 206.694 154.743ZM219.417 171.373C219.347 173.948 218.516 176.446 217.027 178.553C215.538 180.66 213.458 182.285 211.046 183.222C208.635 184.16 205.999 184.369 203.468 183.825C200.938 183.28 198.625 182.005 196.819 180.16C195.012 178.314 193.793 175.98 193.312 173.449C192.832 170.917 193.112 168.301 194.118 165.928C195.124 163.554 196.811 161.528 198.968 160.103C201.124 158.678 203.656 157.917 206.245 157.915H206.602C210.029 158.01 213.285 159.431 215.677 161.875C218.069 164.32 219.41 167.596 219.414 171.007C219.41 171.135 219.41 171.252 219.407 171.373H219.417Z" fill="#FCC659"/>
    <path d="M219.41 171.015C219.41 171.136 219.41 171.253 219.41 171.37C219.34 173.945 218.508 176.443 217.02 178.55C215.531 180.657 213.45 182.282 211.039 183.219C208.628 184.157 205.992 184.366 203.461 183.822C200.931 183.277 198.618 182.002 196.811 180.157C195.005 178.311 193.786 175.977 193.305 173.446C192.825 170.914 193.105 168.298 194.111 165.925C195.117 163.551 196.804 161.525 198.96 160.1C201.117 158.675 203.648 157.914 206.237 157.912H206.594C210.024 158.008 213.281 159.43 215.674 161.877C218.067 164.323 219.407 167.601 219.41 171.015Z" fill="#F49B51"/>
    <path d="M205.409 181.038V178.573C204.082 178.572 202.782 178.203 201.654 177.507L202.243 175.873C203.296 176.552 204.522 176.916 205.777 176.921C207.519 176.921 208.697 175.923 208.697 174.531C208.697 173.138 207.74 172.357 205.923 171.625C203.424 170.649 201.875 169.526 201.875 167.402C201.875 165.378 203.303 163.85 205.581 163.474V161.009H207.101V163.374C208.22 163.384 209.318 163.678 210.289 164.23L209.675 165.839C208.741 165.288 207.673 165.002 206.587 165.012C204.695 165.012 203.985 166.134 203.985 167.111C203.985 168.379 204.892 169.015 207.026 169.892C209.554 170.919 210.828 172.187 210.828 174.36C210.828 176.289 209.479 178.093 206.955 178.509V181.048L205.409 181.038Z" fill="#FCC659"/>
    <path d="M218.868 167.737C218.843 167.63 218.81 167.524 218.778 167.421C218.264 165.648 217.375 164.005 216.17 162.602C214.965 161.199 213.472 160.069 211.792 159.287L211.942 158.964C213.665 159.766 215.196 160.924 216.434 162.362C217.671 163.799 218.586 165.483 219.117 167.3C219.153 167.432 219.185 167.538 219.214 167.655L218.868 167.737Z" fill="#933D00"/>
    <path d="M211.792 159.287C209.054 158.012 205.954 157.728 203.028 158.484L202.939 158.129C205.945 157.353 209.129 157.644 211.942 158.953L211.792 159.287Z" fill="#933D00"/>
    <path d="M217.804 177.713L217.493 177.536C218.366 176.073 218.935 174.451 219.167 172.766L219.524 172.815C219.284 174.546 218.699 176.211 217.804 177.713Z" fill="#933D00"/>
    <path d="M216.89 158.914C215.63 157.816 214.206 156.918 212.67 156.254L212.82 155.898C214.393 156.577 215.851 157.495 217.14 158.619L216.89 158.914Z" fill="#933D00"/>
    <path d="M215.476 184.686L215.262 184.37C218.764 182.031 221.209 178.424 222.076 174.317C222.943 170.211 222.163 165.93 219.903 162.387L220.228 162.185C222.541 165.81 223.341 170.19 222.456 174.393C221.571 178.596 219.072 182.289 215.49 184.686H215.476Z" fill="#933D00"/>
    <path d="M246.919 89.5136H246.537V82.2642C246.537 82.0389 246.493 81.8158 246.406 81.6077C246.32 81.3995 246.193 81.2104 246.032 81.0511C245.872 80.8918 245.682 80.7654 245.473 80.6792C245.264 80.593 245.04 80.5486 244.813 80.5486H212.221V80.165H244.813C245.372 80.166 245.908 80.3876 246.303 80.7811C246.698 81.1747 246.919 81.7081 246.919 82.2642V89.5136Z" fill="#933D00"/>
    <path d="M246.919 93.3213H246.537V97.5161H246.919V93.3213Z" fill="#933D00"/>
    <path d="M208.012 80.165H201.368V80.5451H208.012V80.165Z" fill="#933D00"/>
    <path d="M89.2177 40.9312C91.8665 38.8001 94.3047 36.2178 95.4507 33.0212C96.5966 29.8245 96.2039 25.9174 93.7871 23.5235C91.8166 21.5735 88.825 20.9128 86.0655 21.2254C83.306 21.538 80.7107 22.6994 78.2476 23.9781C73.5389 26.4289 46.0939 43.3465 55.6325 48.9229C64.8142 54.2898 82.1244 46.6746 89.2177 40.9312Z" fill="#FFF6F3"/>
    <path d="M26.1277 86.0751L25.7993 85.8798C29.669 79.458 35.902 75.0999 45.4335 72.166L45.5477 72.5212C36.1126 75.4444 29.9439 79.7386 26.1277 86.0751Z" fill="#933D00"/>
    <path d="M21.1692 88.5864L20.8123 88.4585C25.81 74.7945 38.6294 70.4115 50.5134 67.9287L50.5919 68.3017C38.8114 70.7525 26.1028 75.0893 21.1692 88.5864Z" fill="#933D00"/>
    <path d="M194.164 9.02478C185.382 4.56007 177.95 3.34178 170.767 5.23848L170.671 4.88329C177.946 2.97594 185.468 4.17292 194.336 8.698L194.164 9.02478Z" fill="#933D00"/>
    <path d="M200.761 9.48624C190.602 3.06445 178.46 -2.66117 165.466 3.56527L165.298 3.21008C178.464 -3.08384 190.716 2.68795 200.983 9.16657L200.761 9.48624Z" fill="#933D00"/>
    <path d="M152.886 26.8195C149.651 26.7321 146.463 27.6011 143.725 29.3165C140.987 31.0318 138.821 33.5165 137.503 36.4564C136.184 39.3962 135.77 42.6592 136.315 45.8327C136.86 49.0062 138.339 51.9477 140.564 54.2852C142.789 56.6227 145.66 58.2513 148.816 58.965C151.971 59.6786 155.268 59.4453 158.29 58.2946C161.312 57.1439 163.923 55.1274 165.793 52.5002C167.664 49.8729 168.709 46.7529 168.797 43.5346C168.855 41.3976 168.49 39.27 167.722 37.2734C166.954 35.2769 165.798 33.4503 164.321 31.8982C162.843 30.346 161.073 29.0986 159.111 28.2272C157.149 27.3558 155.034 26.8775 152.886 26.8195ZM165.609 43.4493C165.536 46.0227 164.703 48.5176 163.213 50.6224C161.723 52.7272 159.643 54.3486 157.232 55.284C154.822 56.2194 152.187 56.4273 149.659 55.8818C147.13 55.3362 144.819 54.0615 143.014 52.2167C141.21 50.3719 139.991 48.0389 139.511 45.5092C139.031 42.9795 139.311 40.3651 140.316 37.9928C141.321 35.6205 143.006 33.5953 145.161 32.1703C147.316 30.7454 149.845 29.9838 152.433 29.9806H152.79C156.216 30.0776 159.47 31.4989 161.862 33.943C164.253 36.3872 165.593 39.6619 165.598 43.0728L165.609 43.4493Z" fill="#FCC659"/>
    <path d="M165.613 43.0904C165.613 43.2112 165.613 43.3284 165.613 43.4456C165.541 46.02 164.708 48.5164 163.219 50.6227C161.73 52.7291 159.649 54.352 157.238 55.2887C154.827 56.2255 152.192 56.4344 149.662 55.8895C147.132 55.3447 144.82 54.0701 143.014 52.2251C141.208 50.38 139.989 48.0464 139.508 45.5158C139.028 42.9851 139.307 40.3697 140.312 37.9963C141.317 35.6229 143.003 33.5968 145.158 32.1712C147.314 30.7455 149.844 29.9835 152.433 29.9805H152.79C156.222 30.0739 159.482 31.496 161.877 33.9444C164.272 36.3927 165.612 39.6741 165.613 43.0904Z" fill="#F49B51"/>
    <path d="M151.608 53.1139V50.6489C150.282 50.6472 148.983 50.2782 147.856 49.5833L148.445 47.9495C149.495 48.6346 150.72 49.0045 151.976 49.015C153.718 49.015 154.896 48.0134 154.896 46.6211C154.896 45.2287 153.939 44.4473 152.126 43.7156C149.627 42.7389 148.077 41.6165 148.077 39.4925C148.077 37.4679 149.523 35.9406 151.783 35.5641V33.0742H153.304V35.4398C154.422 35.4491 155.52 35.7438 156.492 36.2958L155.878 37.9083C154.944 37.3563 153.875 37.0712 152.79 37.0843C150.901 37.0843 150.191 38.2067 150.191 39.1834C150.191 40.4515 151.098 41.0872 153.232 41.9646C155.76 42.991 157.034 44.2591 157.034 46.4328C157.034 48.3615 155.685 50.1658 153.157 50.5814V53.121L151.608 53.1139Z" fill="#FCC659"/>
    <path d="M165.091 39.8406C165.063 39.7269 165.031 39.6168 164.998 39.5067C164.482 37.739 163.591 36.1015 162.387 34.7037C161.183 33.3059 159.693 32.18 158.016 31.4013L158.166 31.0781C159.89 31.879 161.422 33.037 162.659 34.4747C163.896 35.9124 164.811 37.5965 165.341 39.4144C165.377 39.5316 165.409 39.6452 165.438 39.7696L165.091 39.8406Z" fill="#933D00"/>
    <path d="M158.016 31.4019C155.278 30.127 152.178 29.8431 149.252 30.5991L149.163 30.244C152.169 29.4679 155.353 29.7593 158.166 31.068L158.016 31.4019Z" fill="#933D00"/>
    <path d="M139.603 46.4329C139.157 44.747 139.053 42.9899 139.294 41.2634C139.535 39.5369 140.118 37.8751 141.009 36.374L141.316 36.5552C140.448 38.0155 139.88 39.6324 139.643 41.3125C139.407 42.9927 139.507 44.7028 139.938 46.3441L139.603 46.4329Z" fill="#933D00"/>
    <path d="M163.092 31.2841C161.829 30.1826 160.401 29.2849 158.858 28.6237L159.012 28.2686C160.586 28.9466 162.043 29.8659 163.331 30.9928L163.092 31.2841Z" fill="#933D00"/>
    <path d="M161.675 57.0603L161.464 56.7442C164.964 54.4039 167.407 50.7969 168.274 46.6912C169.141 42.5854 168.363 38.3052 166.105 34.7617L166.426 34.5557C168.742 38.1807 169.543 42.5625 168.658 46.7666C167.773 50.9707 165.272 54.6645 161.689 57.0603H161.675Z" fill="#933D00"/>
    <path d="M150.169 78.1584L151.619 71.9781L157.538 69.5273L158.591 78.1584C158.591 78.1584 157.712 83.7668 152.268 85.7772C146.824 87.7875 150.169 78.1584 150.169 78.1584Z" fill="#FCB47E"/>
    <path d="M147.842 61.9082C147.842 61.9082 145.736 73.5264 149.159 73.6294C152.583 73.7324 155.392 72.4075 156.095 71.619C156.799 70.8305 157.323 67.0016 157.323 67.0016C157.323 67.0016 157.762 62.0289 155.656 61.0628C153.55 60.0967 148.984 58.4167 147.842 61.9082Z" fill="#FCB47E"/>
    <path d="M159.108 69.3C158.437 70.536 157.773 71.7472 157.773 71.7472C156.77 71.5909 155.663 70.3478 155.467 69.2609C155.467 69.2609 152.322 68.9696 152.211 65.0945C152.211 65.0945 146.746 65.1301 146.614 60.4096C146.482 55.6892 151.947 56.9075 153.754 58.3495C155.56 59.7916 156.659 60.5233 159.465 61.4255C162.45 62.3916 159.972 67.7158 159.108 69.3Z" fill="#634937"/>
    <path d="M156.552 181.521L155.878 174.655H148.584L150.169 181.322C150.169 181.322 151.015 183.556 153.468 183.475C154.116 183.477 154.751 183.294 155.298 182.948C155.845 182.602 156.28 182.106 156.552 181.521Z" fill="#FCB47E"/>
    <path d="M192.469 160.043L186.864 155.977L182.016 161.4L189.202 165.02C189.202 165.02 190.091 165.194 191.89 163.634C193.689 162.075 192.469 160.043 192.469 160.043Z" fill="#FCB47E"/>
    <path d="M162.692 176.794C158.469 178.382 153.075 177.949 147.26 176.794C147.092 176.393 146.924 175.988 146.764 175.58C135.697 147.719 143.529 107.245 143.529 107.245H160.954L160.561 120.625C159.807 124.142 159.263 127.7 158.933 131.281C156.716 154.62 162.692 176.794 162.692 176.794Z" fill="#9F5C3F"/>
    <path d="M162.689 176.783C162.418 176.24 152.493 156.182 155.446 133.539L158.594 136.061C157.527 157.251 162.546 176.25 162.689 176.783Z" fill="#875438"/>
    <path d="M190.848 152.787C189.248 157.251 187.546 160.721 185.693 162.732C184.985 163.579 184.058 164.218 183.012 164.579C180.46 163.282 178.003 161.809 175.658 160.171C175.351 159.961 175.055 159.748 174.755 159.532C174.359 159.24 173.966 158.949 173.588 158.654C173.413 158.523 173.231 158.388 173.07 158.249C172.713 157.983 172.388 157.709 172.06 157.439C171.731 157.17 171.474 156.949 171.192 156.704C169.73 155.449 168.339 154.115 167.023 152.708C166.901 152.58 166.78 152.449 166.666 152.318L166.401 152.03C148.827 132.598 152.054 107.237 152.054 107.237H167.34C168.64 131.564 190.848 152.787 190.848 152.787Z" fill="#9F5C3F"/>
    <path d="M170.757 54.6059C169.454 53.6575 168.543 53.1354 168.326 52.9791C168.047 52.7802 167.969 52.2901 167.658 51.7928C166.908 50.6562 165.359 48.6423 163.753 48.0811C163.546 48.0101 163.396 48.2267 163.61 48.4611C164.003 48.8909 164.745 49.5089 164.631 49.612C164.384 49.818 162.646 47.7401 162.157 48.2196C161.8 48.5748 164.299 50.4395 164.206 50.5567C164.01 50.7912 162.114 48.6671 161.654 49.136C161.193 49.6048 163.488 50.7841 163.392 50.983C163.296 51.1819 161.714 49.8925 161.404 50.1874C160.932 50.6349 163.77 52.386 163.695 52.6452C163.596 53.0679 162.125 52.1906 161.911 52.6843C161.696 53.178 163.753 54.0269 164.142 54.2223C165.041 54.6698 165.695 54.478 166.412 55.5898C166.808 56.2042 167.201 56.8116 167.587 57.4261L170.757 54.6059Z" fill="#FCB47E"/>
    <path d="M134.755 55.9944C135.951 54.9111 136.8 54.2966 137 54.1155C137.257 53.8917 137.268 53.4051 137.539 52.8688C138.157 51.6576 139.485 49.4874 141.02 48.7628C141.216 48.6669 141.398 48.8658 141.202 49.118C140.845 49.5868 140.188 50.2794 140.313 50.3718C140.581 50.5494 142.098 48.2975 142.623 48.7237C143.03 49.0469 140.727 51.1603 140.838 51.2669C141.056 51.4764 142.712 49.1606 143.222 49.5904C143.733 50.0202 141.573 51.4231 141.691 51.6114C141.809 51.7996 143.244 50.3505 143.583 50.6098C144.101 51.004 141.466 53.0499 141.57 53.2985C141.716 53.707 143.08 52.677 143.355 53.1458C143.629 53.6146 141.666 54.6767 141.302 54.9217C140.456 55.4652 139.785 55.3409 139.189 56.5236C138.864 57.1736 138.539 57.8236 138.221 58.4736L134.755 55.9944Z" fill="#FCB47E"/>
    <path d="M167.487 109.23C165.359 110.575 163.12 111.737 160.793 112.703C157.951 113.908 154.942 114.682 151.869 114.998C148.766 115.268 145.554 114.916 142.541 113.471C142.733 112.05 142.915 110.846 143.069 109.88C145.777 111.258 148.77 111.993 151.811 112.028C154.862 112.076 157.903 111.696 160.847 110.899C163.093 110.31 165.292 109.556 167.426 108.644C167.444 108.832 167.465 109.034 167.487 109.23Z" fill="#875438"/>
    <path d="M139.681 107.387V88.2529C139.681 88.2529 122.399 85.3368 125.791 68.6856C127.933 58.1081 135.54 54.3325 135.54 54.3325L139.749 57.6855C139.749 57.6855 130.803 71.2927 142.58 76.0202C142.58 76.0202 149.206 75.8142 150.93 77.6683C150.93 77.6683 154.724 80.6909 158.73 75.6757C158.73 75.6757 162.799 74.0987 166.273 75.0257C169.129 75.7894 172.809 68.7424 165.977 56.7939L170.26 52.9473C170.26 52.9473 195.314 76.9117 170.746 88.7928L169.375 107.909C169.375 107.909 150.348 118.65 139.681 107.387Z" fill="#F0B46D"/>
    <path d="M154.71 69.9714C155.463 69.9714 156.074 69.364 156.074 68.6146C156.074 67.8653 155.463 67.2578 154.71 67.2578C153.957 67.2578 153.346 67.8653 153.346 68.6146C153.346 69.364 153.957 69.9714 154.71 69.9714Z" fill="#FCB47E"/>
    <path d="M158.43 140.799C155.151 134.383 153.035 127.442 152.179 120.294L152.483 120.259C153.334 127.37 155.438 134.276 158.698 140.661L158.43 140.799Z" fill="white"/>
    <path d="M166.641 118.898C165.272 118.913 163.93 118.518 162.79 117.765C161.649 117.012 160.762 115.936 160.243 114.675L160.529 114.572C161.04 115.811 161.924 116.862 163.059 117.582C164.194 118.301 165.525 118.655 166.869 118.593V118.895L166.641 118.898Z" fill="white"/>
    <path d="M153.343 80.1718C153.253 80.1771 153.162 80.1771 153.072 80.1718C150.898 79.9729 149.802 77.4476 149.755 77.3303L150.034 77.2096C150.034 77.2344 151.105 79.6781 153.1 79.8628C154.774 80.0156 156.624 78.5842 158.601 75.6006L158.855 75.7675C156.913 78.6943 155.06 80.1718 153.343 80.1718Z" fill="#933D00"/>
    <path d="M139.681 88.2558C139.681 88.2558 122.4 85.3361 125.794 68.685C125.968 67.8113 126.191 66.948 126.462 66.0992L126.594 65.9678C126.305 69.7257 126.173 73.0182 127.844 76.5772C131.346 84.0184 139.938 88.2309 139.681 88.2558Z" fill="#E28F60"/>
    <path d="M170.735 88.8035L169.364 107.92C166.432 109.478 163.323 110.683 160.104 111.511C161.022 110.8 164.888 104.936 165.534 101.967C166.698 96.6389 166.841 93.5666 166.99 87.8836C172.702 86.406 179.224 81.3943 181.466 73.0332C181.977 78.7375 179.542 84.5448 170.735 88.8035Z" fill="#E28F60"/>
    <path d="M152.465 110.526H152.376V110.22C152.458 110.22 160.49 110.334 167.444 106.114L167.601 106.374C160.972 110.401 153.364 110.526 152.465 110.526Z" fill="#933D00"/>
    <path d="M185.693 162.747C184.985 163.594 184.058 164.233 183.012 164.594C180.46 163.297 178.003 161.824 175.658 160.186C175.351 159.976 175.055 159.763 174.755 159.546C174.359 159.255 173.966 158.964 173.588 158.669C173.413 158.538 173.231 158.403 173.07 158.264C172.713 157.998 172.388 157.724 172.06 157.454C171.731 157.184 171.474 156.964 171.192 156.719C169.731 155.463 168.339 154.13 167.023 152.723C166.901 152.595 166.78 152.464 166.666 152.333L166.401 152.045C176.847 160.637 183.533 162.395 185.693 162.747Z" fill="#875438"/>
    <path d="M188.585 152.166C181.224 147.413 176.551 138.825 176.504 138.739L176.758 138.604C176.804 138.69 181.445 147.214 188.738 151.928L188.585 152.166Z" fill="white"/>
    <path d="M157.473 186.973H140.931C140.793 186.974 140.657 186.947 140.531 186.892C140.405 186.838 140.292 186.758 140.198 186.658C140.105 186.558 140.034 186.439 139.989 186.31C139.944 186.181 139.927 186.044 139.938 185.908C139.938 185.78 139.967 185.652 139.985 185.524C140.017 185.115 140.148 184.721 140.367 184.373C141.152 183.336 142.676 182.864 145.389 181.795C146.713 181.257 147.981 180.591 149.173 179.806C149.274 179.741 149.394 179.713 149.513 179.726C149.632 179.739 149.743 179.792 149.827 179.877C153.1 183.073 155.11 182.381 155.71 181.066C156.17 180.065 156.82 180.274 157.002 180.569C157.552 181.486 157.855 184.174 157.977 185.524C157.977 185.666 158.002 185.801 158.012 185.908L158.041 186.309C158.054 186.391 158.049 186.474 158.026 186.554C158.004 186.634 157.964 186.708 157.91 186.771C157.856 186.834 157.789 186.884 157.714 186.919C157.639 186.954 157.556 186.973 157.473 186.973Z" fill="#634937"/>
    <path d="M146.325 183.524C145.995 183.366 145.723 183.11 145.544 182.793C145.365 182.475 145.289 182.11 145.325 181.748L145.611 181.791C145.574 182.095 145.636 182.403 145.787 182.671C145.937 182.938 146.169 183.151 146.45 183.279L146.325 183.524Z" fill="white"/>
    <path d="M144.872 184.011C144.562 183.852 144.306 183.606 144.136 183.303C143.965 183.001 143.887 182.655 143.911 182.31L144.197 182.345C144.18 182.635 144.248 182.924 144.394 183.176C144.539 183.429 144.754 183.633 145.014 183.766L144.872 184.011Z" fill="white"/>
    <path d="M154.218 183.293C153.475 183.274 152.746 183.1 152.076 182.782L152.208 182.526C152.233 182.526 154.742 183.798 156.031 182.199L156.256 182.377C156.01 182.676 155.698 182.914 155.345 183.073C154.991 183.232 154.605 183.307 154.218 183.293Z" fill="white"/>
    <path d="M155.995 185.705H146.353V185.989H155.995V185.705Z" fill="white"/>
    <path d="M145.114 185.705H142.833V185.989H145.114V185.705Z" fill="white"/>
    <path d="M197.413 161.045L189.327 175.408C189.262 175.53 189.171 175.637 189.062 175.722C188.953 175.807 188.827 175.868 188.692 175.901C188.558 175.935 188.418 175.94 188.281 175.916C188.144 175.892 188.014 175.84 187.899 175.764C187.792 175.693 187.688 175.614 187.581 175.536C187.243 175.305 186.963 174.998 186.764 174.641C186.239 173.451 186.568 171.903 186.957 169.019C187.131 167.605 187.166 166.177 187.064 164.756C187.055 164.638 187.087 164.519 187.156 164.422C187.226 164.325 187.327 164.255 187.442 164.224C191.829 162.934 192.219 160.863 191.369 159.698C190.712 158.811 191.215 158.345 191.558 158.335C192.629 158.306 195.128 159.35 196.377 159.908L196.734 160.064L197.091 160.235C197.169 160.263 197.241 160.307 197.3 160.364C197.36 160.421 197.406 160.491 197.437 160.567C197.467 160.644 197.481 160.726 197.476 160.809C197.472 160.891 197.451 160.971 197.413 161.045Z" fill="#634937"/>
    <path d="M187.417 169.171C187.251 169.172 187.085 169.157 186.921 169.129L186.982 168.848C186.982 168.848 188.174 169.082 188.767 168.322L188.995 168.496C188.803 168.723 188.56 168.902 188.286 169.019C188.012 169.136 187.715 169.188 187.417 169.171Z" fill="white"/>
    <path d="M187.278 170.727C187.113 170.727 186.948 170.713 186.785 170.684L186.842 170.404C186.842 170.404 188.035 170.638 188.627 169.878L188.852 170.052C188.66 170.278 188.418 170.456 188.145 170.573C187.872 170.691 187.575 170.743 187.278 170.727Z" fill="white"/>
    <path d="M191.369 163.669L191.183 163.452C191.205 163.452 193.325 161.598 192.326 159.805L192.579 159.666C193.689 161.666 191.394 163.651 191.369 163.669Z" fill="white"/>
    <path d="M195.341 161.997L190.721 170.418L190.971 170.554L195.591 162.134L195.341 161.997Z" fill="white"/>
    <path d="M190.128 171.498L189.035 173.49L189.285 173.626L190.378 171.634L190.128 171.498Z" fill="white"/>
    <path d="M142.526 76.2148C142.376 76.1722 138.846 75.1493 137.011 71.7857C135.747 69.4663 135.619 66.6319 136.632 63.3535L136.989 63.4636C136.008 66.639 136.122 69.3775 137.346 71.5974C139.099 74.8154 142.598 75.8383 142.63 75.8597L142.526 76.2148Z" fill="#933D00"/>
    <path d="M151.483 65.3287C150.151 65.3287 148.056 64.7639 146.96 63.4036C146.282 62.5582 145.728 61.0735 146.96 58.7861L147.213 58.9211C146.292 60.658 146.285 62.1178 147.196 63.2366C148.466 64.8137 151.147 65.2647 152.193 64.9841L152.268 65.2576C152.011 65.3169 151.747 65.3408 151.483 65.3287Z" fill="#634937"/>
    <path d="M150.251 65.6058C149.1 65.5847 147.982 65.2223 147.039 64.5651L147.196 64.3271C150.334 66.3872 152.74 64.6113 152.761 64.59L152.936 64.8173C152.141 65.343 151.206 65.6178 150.251 65.6058Z" fill="#634937"/>
    <path d="M12.5444 112.771V113.088C12.8443 126.194 14.7328 136.324 17.4351 144.156L24.432 147.995L18.8131 147.427L18.6524 147.409C22.1331 155.987 26.6239 161.4 30.765 164.838C32.8817 166.615 35.2441 168.081 37.7797 169.189C37.9118 169.25 38.0403 169.303 38.1688 169.356C38.4901 169.488 38.8007 169.609 39.097 169.712H42.8382C42.881 169.534 42.9203 169.356 42.956 169.186C42.981 169.079 43.006 168.969 43.0274 168.859C43.0488 168.749 43.0917 168.568 43.1202 168.422C46.6365 151.302 40.375 138.118 32.6177 128.89C32.5949 128.857 32.5699 128.827 32.5427 128.798C30.0265 125.837 27.2526 123.104 24.2535 120.628L22.8256 124.89L22.2758 119.058C19.2941 116.728 16.1131 114.661 12.7693 112.882L12.5444 112.771Z" fill="#E5B19A"/>
    <path d="M12.416 112.839L12.5552 113.087L21.0479 128.641L21.2014 128.914L23.5182 133.155L23.5967 133.297L30.9792 146.812L30.9899 146.834L43.0239 168.862L43.2059 169.193L43.4915 169.715H43.8199L43.5343 169.193L43.1167 168.426L31.2398 146.688L31.0184 146.283L12.7694 112.881L12.6694 112.7L12.416 112.839Z" fill="white"/>
    <path d="M13.8049 127.222L13.6743 127.434L23.5097 133.435L23.6403 133.223L13.8049 127.222Z" fill="white"/>
    <path d="M13.5752 124.071L13.4445 124.283L21.1528 128.987L21.2834 128.775L13.5752 124.071Z" fill="white"/>
    <path d="M32.1537 147.945L33.5745 130.001L33.296 129.979L31.8788 147.924L32.1537 147.945Z" fill="white"/>
    <path d="M44.6233 173.292C44.6233 173.292 36.0057 177.91 23.0435 171.104L27.0168 168.973L20.3768 169.57C15.2898 166.409 9.63159 161.482 3.6271 153.942L5.14429 153.128L3.13089 153.313C2.12182 152.027 1.09965 150.663 0.0643921 149.221C3.0474 148.885 6.05527 148.823 9.04971 149.036L11.952 152.546L11.006 149.193C21.8833 150.262 37.887 155.071 44.6233 173.292Z" fill="#F3D2BA"/>
    <path d="M0.12695 149.098L-0.00244141 149.348L45.1851 172.563L45.3145 172.314L0.12695 149.098Z" fill="white"/>
    <path d="M11.8098 155.24L5.56689 156.211L5.60767 156.471L11.8506 155.5L11.8098 155.24Z" fill="white"/>
    <path d="M14.9039 156.774L7.65094 158.453L7.71082 158.709L14.9637 157.03L14.9039 156.774Z" fill="white"/>
    <path d="M119.494 120.837H40.6106C38.6784 120.837 37.1121 122.395 37.1121 124.318V177.749C37.1121 179.671 38.6784 181.229 40.6106 181.229H119.494C121.426 181.229 122.992 179.671 122.992 177.749V124.318C122.992 122.395 121.426 120.837 119.494 120.837Z" fill="#F0B46D"/>
    <path d="M120.386 127.107V174.961C120.386 175.934 119.998 176.867 119.306 177.555C118.614 178.243 117.676 178.63 116.698 178.63H111.137V126.538H41.8494C41.4362 126.537 41.0404 126.373 40.7486 126.082C40.4568 125.791 40.2929 125.397 40.2929 124.986C40.2929 124.575 40.4569 124.181 40.7488 123.891C41.0407 123.601 41.4366 123.438 41.8494 123.438H116.698C117.183 123.437 117.662 123.532 118.11 123.717C118.557 123.901 118.964 124.171 119.306 124.512C119.648 124.853 119.92 125.257 120.105 125.702C120.291 126.148 120.386 126.625 120.386 127.107Z" fill="#933D00"/>
    <path d="M99.3382 121.619L99.5667 121.896C101.15 123.935 102.095 126.393 102.282 128.963C102.469 131.533 101.89 134.101 100.619 136.346C99.347 138.59 97.4385 140.412 95.1318 141.584C92.8251 142.755 90.2224 143.224 87.6494 142.932C85.0763 142.64 82.6468 141.599 80.6648 139.941C78.6828 138.282 77.2361 136.079 76.5055 133.607C75.775 131.135 75.7931 128.503 76.5576 126.041C77.322 123.579 78.7989 121.396 80.8036 119.765L81.0927 119.538C83.8086 117.455 87.2332 116.507 90.6398 116.896C94.0464 117.285 97.1666 118.979 99.3382 121.619Z" fill="#F49B51"/>
    <path d="M88.3181 140.11V137.645C86.9923 137.643 85.6932 137.274 84.5662 136.579L85.1552 134.946C86.2065 135.625 87.4322 135.989 88.6858 135.993C90.4279 135.993 91.606 134.995 91.606 133.603C91.606 132.211 90.6493 131.429 88.8358 130.698C86.3369 129.721 84.7876 128.598 84.7876 126.474C84.7876 124.45 86.2333 122.923 88.4895 122.546V120.081H90.0102V122.447C91.1301 122.456 92.2288 122.751 93.2017 123.303L92.5877 124.912C91.6526 124.36 90.5833 124.074 89.4962 124.084C87.6077 124.084 86.8973 125.206 86.8973 126.183C86.8973 127.451 87.8041 128.087 89.9388 128.964C92.4663 129.991 93.7407 131.259 93.7407 133.433C93.7407 135.361 92.3913 137.166 89.8639 137.581V140.121L88.3181 140.11Z" fill="#FCC659"/>
    <path d="M93.2874 114.16C90.1577 113.347 86.856 113.475 83.7994 114.528C80.7428 115.581 78.0685 117.512 76.1145 120.077C74.1605 122.641 73.0144 125.725 72.8212 128.937C72.6279 132.15 73.3961 135.348 75.0287 138.126C76.6612 140.904 79.0849 143.139 81.9934 144.547C84.902 145.955 88.1648 146.474 91.3696 146.038C94.5744 145.602 97.5774 144.23 99.999 142.097C102.421 139.963 104.152 137.163 104.975 134.051C105.522 131.981 105.653 129.825 105.361 127.705C105.07 125.584 104.361 123.542 103.275 121.695C102.19 119.848 100.749 118.231 99.0351 116.938C97.3213 115.646 95.3681 114.702 93.2874 114.16ZM101.887 133.227C101.232 135.719 99.853 137.964 97.9227 139.68C95.9924 141.397 93.5963 142.509 91.034 142.879C88.4717 143.248 85.8569 142.857 83.5164 141.756C81.1759 140.655 79.2136 138.891 77.8748 136.687C76.536 134.482 75.8801 131.933 75.989 129.36C76.098 126.786 76.9671 124.301 78.4875 122.216C80.008 120.131 82.1124 118.538 84.5377 117.637C86.963 116.735 89.6016 116.565 92.1236 117.147L92.4806 117.236C95.7934 118.104 98.6369 120.22 100.409 123.137C102.18 126.054 102.741 129.543 101.973 132.864L101.887 133.227Z" fill="#FCC659"/>
    <path d="M65.1677 101.484C61.933 101.396 58.7448 102.265 56.0065 103.981C53.2682 105.696 51.1027 108.181 49.7838 111.121C48.4649 114.061 48.0519 117.324 48.5971 120.498C49.1422 123.672 50.621 126.613 52.8464 128.951C55.0717 131.288 57.9438 132.916 61.0993 133.63C64.2548 134.343 67.5521 134.109 70.574 132.958C73.596 131.806 76.207 129.789 78.0768 127.162C79.9466 124.534 80.9912 121.414 81.0785 118.195C81.137 116.058 80.7718 113.931 80.0037 111.935C79.2357 109.938 78.08 108.112 76.6024 106.56C75.1249 105.008 73.3546 103.761 71.3926 102.89C69.4306 102.019 67.3154 101.541 65.1677 101.484ZM77.8906 118.11C77.8198 120.684 76.988 123.18 75.4992 125.286C74.0105 127.393 71.9308 129.016 69.5201 129.953C67.1095 130.889 64.4747 131.099 61.9453 130.554C59.4158 130.009 57.1037 128.735 55.2981 126.89C53.4924 125.046 52.2733 122.712 51.793 120.182C51.3128 117.652 51.5927 115.037 52.5978 112.664C53.6029 110.291 55.2886 108.265 57.4443 106.84C59.5999 105.415 62.1299 104.654 64.7179 104.652H65.0749C68.5026 104.749 71.7576 106.17 74.1494 108.615C76.5413 111.06 77.882 114.336 77.8871 117.748C77.8942 117.872 77.8942 117.993 77.8906 118.11Z" fill="#FCC659"/>
    <path d="M74.9169 109.457C74.9918 109.549 75.0704 109.641 75.1418 109.737C76.7246 111.776 77.6685 114.233 77.8553 116.803C78.0421 119.372 77.4637 121.939 76.1922 124.183C74.9208 126.427 73.0128 128.248 70.7067 129.419C68.4006 130.59 65.7988 131.059 63.2265 130.766C60.6542 130.474 58.2256 129.434 56.2442 127.776C54.2627 126.118 52.8164 123.916 52.0861 121.444C51.3558 118.973 51.3738 116.342 52.1379 113.881C52.902 111.42 54.3783 109.237 56.3822 107.606L56.6714 107.383C59.386 105.298 62.8104 104.349 66.2171 104.736C69.6239 105.123 72.7448 106.817 74.9169 109.457Z" fill="#F49B51"/>
    <path d="M63.9003 127.775V125.31C62.5733 125.309 61.2728 124.94 60.1448 124.244L60.7339 122.61C61.7854 123.294 63.0119 123.664 64.268 123.676C66.0101 123.676 67.1882 122.674 67.1882 121.285C67.1882 119.897 66.2314 119.112 64.4144 118.38C61.9155 117.403 60.3662 116.281 60.3662 114.157C60.3662 112.129 61.8155 110.605 64.0717 110.225V107.76H65.5924V110.129C66.7106 110.139 67.8077 110.432 68.7803 110.981L68.1663 112.594C67.2328 112.041 66.1647 111.753 65.0784 111.763C63.1864 111.763 62.4759 112.885 62.4759 113.862C62.4759 115.133 63.3827 115.766 65.5175 116.647C68.0449 117.669 69.3194 118.941 69.3194 121.111C69.3194 123.04 67.97 124.848 65.4461 125.263V127.799L63.9003 127.775Z" fill="#FCC659"/>
    <path d="M75.3739 105.756C74.1139 104.657 72.6905 103.76 71.1543 103.095L71.3042 102.74C72.878 103.419 74.3363 104.337 75.6273 105.461L75.3739 105.756Z" fill="#933D00"/>
    <path d="M73.9602 131.532L73.746 131.216C77.2478 128.878 79.6928 125.271 80.5598 121.164C81.4267 117.057 80.647 112.776 78.3868 109.234L78.7117 109.031C81.0254 112.656 81.825 117.037 80.9401 121.24C80.0553 125.443 77.5559 129.136 73.9745 131.532H73.9602Z" fill="#933D00"/>
    <path d="M77.2301 114.416C77.2016 114.302 77.1695 114.192 77.1373 114.082C76.6209 112.312 75.7305 110.671 74.5257 109.271C73.3209 107.871 71.8294 106.743 70.1511 105.962L70.3046 105.643C72.0254 106.445 73.5543 107.603 74.7892 109.04C76.0241 110.477 76.9366 112.159 77.4658 113.975C77.5014 114.1 77.5336 114.21 77.5621 114.33L77.2301 114.416Z" fill="#933D00"/>
    <path d="M70.1511 105.962C67.4167 104.692 64.3232 104.408 61.4014 105.16L61.3122 104.804C64.3157 104.034 67.4951 104.328 70.3047 105.636L70.1511 105.962Z" fill="#933D00"/>
    <path d="M76.1628 124.393L75.8558 124.212C76.7243 122.75 77.2933 121.131 77.5301 119.449L77.8871 119.499C77.6424 121.228 77.0564 122.891 76.1628 124.393Z" fill="#933D00"/>
    <path d="M114.003 126.599H40.5035C38.6305 126.599 37.1122 128.109 37.1122 129.973V182.853C37.1122 184.717 38.6305 186.227 40.5035 186.227H114.003C115.876 186.227 117.395 184.717 117.395 182.853V129.973C117.395 128.109 115.876 126.599 114.003 126.599Z" fill="#F0B46D"/>
    <path d="M67.7629 183.883H43.6164C42.7425 183.881 41.9049 183.534 41.2873 182.919C40.6697 182.304 40.3224 181.47 40.3214 180.601V175.962H40.6962V180.579C40.6972 181.348 41.0044 182.084 41.5505 182.628C42.0966 183.171 42.837 183.477 43.6092 183.478H67.7557L67.7629 183.883Z" fill="#933D00"/>
    <path d="M81.0713 183.499H73.6282V183.879H81.0713V183.499Z" fill="#933D00"/>
    <path d="M114.185 138.596H113.803V132.221C113.802 131.452 113.495 130.716 112.949 130.172C112.403 129.629 111.663 129.323 110.89 129.322H79.3578V128.942H110.89C111.764 128.943 112.601 129.289 113.219 129.904C113.837 130.518 114.184 131.352 114.185 132.221V138.596Z" fill="#933D00"/>
    <path d="M73.6888 128.942H66.5777V129.322H73.6888V128.942Z" fill="#933D00"/>
    <path d="M40.7034 161.922H40.3214V170.922H40.7034V161.922Z" fill="#933D00"/>
    <path d="M122.892 144.166V161.02C122.893 161.523 122.793 162.021 122.6 162.486C122.406 162.951 122.123 163.374 121.765 163.729C121.407 164.085 120.982 164.367 120.515 164.559C120.047 164.751 119.546 164.849 119.04 164.849H104.404C102.154 164.849 99.9969 163.959 98.4062 162.377C96.8155 160.794 95.9219 158.648 95.9219 156.409C95.9219 154.171 96.8155 152.025 98.4062 150.442C99.9969 148.859 102.154 147.97 104.404 147.97H119.04C119.147 147.97 119.258 147.97 119.365 147.988C120.327 147.907 121.224 147.469 121.877 146.761C122.531 146.053 122.893 145.127 122.892 144.166Z" fill="#9F5C3F"/>
    <path d="M106.414 159.199C107.96 157.661 107.96 155.167 106.414 153.629C104.868 152.09 102.361 152.09 100.815 153.629C99.2692 155.167 99.2692 157.661 100.815 159.199C102.361 160.738 104.868 160.738 106.414 159.199Z" fill="white"/>
    <path d="M103.615 160.54V160.16C104.614 160.16 105.572 159.765 106.278 159.063C106.984 158.36 107.381 157.407 107.381 156.413C107.381 155.419 106.984 154.466 106.278 153.763C105.572 153.061 104.614 152.666 103.615 152.666V152.282C104.694 152.314 105.719 152.763 106.472 153.533C107.224 154.304 107.645 155.337 107.645 156.411C107.645 157.486 107.224 158.518 106.472 159.289C105.719 160.06 104.694 160.509 103.615 160.54Z" fill="#933D00"/>
    <path d="M99.8487 156.427H99.4668C99.4651 155.885 99.5715 155.348 99.7798 154.847C99.9881 154.346 100.294 153.89 100.681 153.508L100.952 153.778C100.601 154.125 100.323 154.538 100.133 154.993C99.9441 155.447 99.8474 155.935 99.8487 156.427Z" fill="#933D00"/>
    <path d="M35.5486 159.645C33.4564 157.68 31.125 155.985 28.6088 154.598L28.7944 154.264C31.3377 155.667 33.6943 157.382 35.8092 159.368L35.5486 159.645Z" fill="#933D00"/>
    <path d="M24.4249 152.598C22.9989 152.021 21.5426 151.521 20.0626 151.099L20.1697 150.744C21.663 151.173 23.1323 151.68 24.5713 152.264L24.4249 152.598Z" fill="#933D00"/>
    <path d="M119.633 46.9335C113.397 45.2157 106.842 44.9893 100.502 46.2729C97.3413 46.9054 94.2683 47.9131 91.3489 49.2742C88.4224 50.6244 85.6664 52.3138 83.1382 54.3072C78.0593 58.2978 74.0088 63.4347 71.322 69.2926C70.9864 70.003 70.6901 70.7666 70.3796 71.5054C70.069 72.2442 69.8155 73.0043 69.5799 73.7715C69.0848 75.2956 68.6784 76.8468 68.3626 78.4173C68.2127 79.2023 68.0699 79.9908 67.9628 80.7864C67.9378 80.9818 67.9057 81.1807 67.8842 81.3796L67.8593 81.5927V81.7241C67.8414 81.9017 67.8164 82.0793 67.8021 82.2534L64.8177 81.955C66.0166 84.9821 67.595 87.8462 69.5157 90.4795C70.7209 87.7532 72.2812 85.1964 74.1565 82.8749L71.1757 82.5766C71.1757 82.4132 71.2113 82.2534 71.2292 82.0935V81.9728L71.2506 81.7739C71.272 81.5939 71.297 81.4128 71.3256 81.2304C71.4184 80.4987 71.5505 79.7777 71.6826 79.0567C71.9706 77.6153 72.3437 76.1921 72.7999 74.7944C73.0177 74.0841 73.2926 73.4057 73.5353 72.713C73.7781 72.0204 74.0922 71.3527 74.3992 70.6849C76.8746 65.3224 80.597 60.6229 85.2587 56.9747C87.5753 55.1456 90.1013 53.5956 92.784 52.3573C95.4623 51.1096 98.2811 50.1855 101.18 49.6046C106.995 48.4262 113.008 48.6344 118.726 50.2119L119.633 46.9335Z" fill="#F2D17D"/>
    <path d="M88.2288 50.9367L88.0432 50.6313C89.0392 50.0381 90.0709 49.4805 91.1133 48.9761C93.792 47.6997 96.6109 46.7377 99.5131 46.1097C102.416 45.4776 105.385 45.1903 108.356 45.2537C111.326 45.3061 114.279 45.714 117.152 46.4685L117.063 46.8237C114.217 46.0723 111.292 45.6645 108.349 45.6089C105.409 45.546 102.472 45.8297 99.5988 46.4543C96.7227 47.0777 93.929 48.0312 91.2739 49.2958C90.2351 49.7895 89.2141 50.3436 88.2288 50.9367Z" fill="#933D00"/>
    <path d="M80.6108 56.9743L80.3502 56.7328C80.6751 56.3776 81.0214 56.0579 81.3605 55.7383L81.9352 55.1842L82.4243 54.7579C82.8134 54.4027 83.2132 54.0476 83.6238 53.7314L83.8487 54.0049C83.4453 54.3353 83.0455 54.6833 82.6599 55.0243L82.178 55.4435C81.9959 55.6246 81.7996 55.7986 81.6068 55.994C81.2748 56.2995 80.9285 56.6191 80.6108 56.9743Z" fill="#933D00"/>
    <path d="M69.5514 90.8486L69.3694 90.6035C67.7201 88.377 66.3174 85.9798 65.1855 83.4536L65.5139 83.3115C66.5928 85.7194 67.9195 88.0096 69.4729 90.1453C70.2974 88.2975 71.2816 86.5244 72.4144 84.8459L72.7107 85.0448C71.5336 86.7909 70.5179 88.6395 69.6764 90.568L69.5514 90.8486Z" fill="#933D00"/>
    <path d="M67.9771 82.2639L67.6201 82.2426C67.803 79.9379 68.2314 77.659 68.8981 75.4443L69.2551 75.5544C68.5915 77.7396 68.1631 79.9887 67.9771 82.2639Z" fill="#933D00"/>
    <path d="M43.1238 153.997C39.9923 154.807 37.1724 156.523 35.0208 158.927C32.8692 161.332 31.4825 164.317 31.0359 167.505C30.5894 170.694 31.103 173.942 32.512 176.84C33.921 179.738 36.162 182.156 38.9516 183.787C41.7413 185.418 44.9544 186.189 48.1846 186.003C51.4148 185.817 54.5171 184.682 57.0992 182.742C59.6813 180.802 61.6272 178.144 62.691 175.104C63.7549 172.064 63.8887 168.778 63.0757 165.662C62.5357 163.592 61.5913 161.649 60.2963 159.942C59.0013 158.236 57.3811 156.8 55.5283 155.717C53.6755 154.634 51.6264 153.925 49.498 153.629C47.3696 153.334 45.2036 153.459 43.1238 153.997ZM59.9735 166.454C60.6249 168.946 60.5236 171.575 59.6821 174.011C58.8406 176.446 57.2963 178.581 55.2421 180.149C53.188 181.716 50.7151 182.646 48.1326 182.823C45.55 183 42.9724 182.416 40.7218 181.143C38.4711 179.871 36.6473 177.966 35.4783 175.668C34.3093 173.37 33.8469 170.78 34.1489 168.222C34.4509 165.664 35.5039 163.252 37.1763 161.286C38.8488 159.32 41.0664 157.888 43.5522 157.169L43.9092 157.073C47.2286 156.219 50.7521 156.684 53.7324 158.371C56.7126 160.058 58.9154 162.834 59.8735 166.109L59.9735 166.454Z" fill="#FCC659"/>
    <path d="M59.8914 166.11L59.9878 166.465C60.6392 168.958 60.5379 171.586 59.6964 174.022C58.8549 176.458 57.3105 178.593 55.2564 180.16C53.2022 181.727 50.7294 182.658 48.1469 182.834C45.5643 183.011 42.9867 182.427 40.736 181.155C38.4854 179.882 36.6616 177.978 35.4926 175.68C34.3236 173.382 33.8612 170.792 34.1632 168.234C34.4652 165.676 35.5182 163.263 37.1906 161.297C38.8631 159.331 41.0807 157.899 43.5665 157.181L43.9234 157.085C47.242 156.228 50.7656 156.691 53.7466 158.376C56.7277 160.061 58.9318 162.835 59.8914 166.11Z" fill="#F49B51"/>
    <path d="M58.6991 181.624L58.4528 181.368C61.2723 178.668 63.0153 175.045 63.3604 171.167C63.7056 167.289 62.6294 163.417 60.3305 160.267L60.6197 160.057C62.9701 163.276 64.071 167.233 63.7193 171.197C63.3677 175.161 61.5871 178.864 58.7062 181.624H58.6991ZM56.5572 156.58C55.0172 155.505 53.3023 154.704 51.488 154.211L51.5844 153.855C53.4381 154.358 55.1897 155.177 56.7606 156.278L56.5572 156.58Z" fill="#933D00"/>
    <path d="M49.239 179.611L48.55 177.242C47.2735 177.603 45.9211 177.603 44.6446 177.242L44.7553 175.508C45.9553 175.868 47.2339 175.878 48.4394 175.537C50.1136 175.057 50.9668 173.761 50.5813 172.433C50.1957 171.104 49.0534 170.61 47.1078 170.408C44.4304 170.163 42.6312 169.513 42.0386 167.471C41.4746 165.528 42.4349 163.649 44.5018 162.672L43.8128 160.303L45.2729 159.884L45.9333 162.157C47.0108 161.857 48.1476 161.836 49.2354 162.097L49.0962 163.816C48.0403 163.541 46.9287 163.56 45.8833 163.873C44.0699 164.395 43.7022 165.67 43.9735 166.607C44.3305 167.826 45.3764 168.185 47.6718 168.44C50.3849 168.724 51.9557 169.591 52.5732 171.68C53.1123 173.534 52.3198 175.64 50.0065 176.737L50.7205 179.174L49.239 179.611Z" fill="#FCC659"/>
    <path d="M35.5807 160.654C36.7363 161.24 37.6566 162.201 38.1903 163.378C38.727 162.2 39.6479 161.238 40.8034 160.647C39.6486 160.059 38.7276 159.1 38.1903 157.926C37.6547 159.102 36.735 160.063 35.5807 160.654Z" fill="#FFE6A6"/>
    <path d="M40.9283 164.885C41.5989 165.228 42.1335 165.786 42.4455 166.469C42.7562 165.784 43.2911 165.225 43.9627 164.881C43.2916 164.541 42.7566 163.984 42.4455 163.301C42.1335 163.984 41.5989 164.542 40.9283 164.885Z" fill="#FFE6A6"/>
    <path d="M59.8164 166.5L59.7201 166.145C59.2031 164.377 58.3128 162.739 57.1086 161.34C55.9045 159.942 54.4142 158.816 52.7374 158.036L52.8874 157.713C54.6111 158.514 56.1431 159.672 57.3806 161.109C58.618 162.547 59.5325 164.231 60.0628 166.049C60.0949 166.163 60.1306 166.28 60.1591 166.404L59.8164 166.5Z" fill="#933D00"/>
    <path d="M52.7374 158.05C49.9991 156.776 46.9001 156.491 43.9734 157.244L43.8842 156.888C46.8902 156.112 50.0741 156.404 52.8873 157.713L52.7374 158.05Z" fill="#933D00"/>
    <path d="M34.3241 173.092C33.8785 171.405 33.7737 169.647 34.0157 167.919C34.2578 166.191 34.8419 164.528 35.7342 163.026L36.0412 163.208C35.1726 164.669 34.6042 166.287 34.3689 167.969C34.1335 169.65 34.236 171.362 34.6704 173.004L34.3241 173.092Z" fill="#933D00"/>
    <path d="M58.749 176.478L58.442 176.3C59.3094 174.837 59.8783 173.219 60.1163 171.537L60.4733 171.583C60.2291 173.312 59.6431 174.976 58.749 176.478Z" fill="#933D00"/>
    <path d="M52.9052 108.654C54.0592 109.242 54.979 110.201 55.5148 111.375C56.0517 110.199 56.9726 109.237 58.1279 108.647C56.972 108.06 56.0507 107.099 55.5148 105.923C54.9794 107.1 54.0597 108.063 52.9052 108.654Z" fill="#FFE6A6"/>
    <path d="M70.526 123.583C71.1974 123.925 71.7323 124.484 72.0432 125.167C72.3562 124.485 72.8905 123.927 73.5604 123.583C72.8905 123.239 72.3562 122.681 72.0432 121.999C71.7333 122.683 71.1981 123.242 70.526 123.583Z" fill="#FFE6A6"/>
    <path d="M142.969 32.6263C144.121 33.2181 145.04 34.1774 145.579 35.3506C146.116 34.1741 147.036 33.2128 148.192 32.6227C147.036 32.0351 146.115 31.0747 145.579 29.8984C145.042 31.0738 144.122 32.0349 142.969 32.6263Z" fill="#FFE6A6"/>
    <path d="M212.363 175.078C213.519 175.665 214.439 176.626 214.973 177.803C215.509 176.625 216.43 175.664 217.586 175.075C216.43 174.487 215.509 173.527 214.973 172.351C214.438 173.528 213.518 174.489 212.363 175.078Z" fill="#FFE6A6"/>
    <path d="M210.6 183.234C211.269 183.575 211.803 184.132 212.113 184.814C212.427 184.131 212.963 183.573 213.634 183.23C212.963 182.889 212.427 182.332 212.113 181.649C211.803 182.332 211.269 182.89 210.6 183.234Z" fill="#FFE6A6"/>
    </g>
    <defs>
    <clipPath id="clip0_40_1244">
    <rect width="299" height="192" fill="white" transform="translate(0 0.5)"/>
    </clipPath>
    </defs>
    </svg>
    