<svg width="292" height="190" viewBox="0 0 292 190" fill="none" xmlns="http://www.w3.org/2000/svg">
    <g clip-path="url(#clip0_40_1410)">
    <path d="M285.068 116.04H274.801C274.581 116.04 274.365 115.991 274.167 115.896C273.969 115.8 273.796 115.661 273.66 115.489C273.525 115.322 273.43 115.126 273.382 114.916C273.333 114.706 273.333 114.489 273.381 114.279C274.345 110.017 274.299 105.589 273.245 101.349C273.164 101.025 273.197 100.682 273.34 100.38C273.483 100.077 273.726 99.834 274.027 99.6908C278.316 97.6812 282.254 97.7336 285.732 99.8461C285.914 99.9553 286.071 100.103 286.19 100.279C286.31 100.455 286.39 100.655 286.424 100.865C287.161 105.474 287.189 110.17 286.508 114.788C286.459 115.136 286.287 115.454 286.022 115.684C285.757 115.914 285.418 116.041 285.068 116.04Z" fill="#FFA563"/>
    <path d="M284.912 109.306H277.062C276.866 109.305 276.68 109.227 276.542 109.089C276.404 108.951 276.327 108.764 276.327 108.568C276.327 108.373 276.404 108.186 276.542 108.048C276.68 107.909 276.866 107.831 277.062 107.831H284.912C285.107 107.831 285.294 107.909 285.432 108.048C285.569 108.186 285.647 108.373 285.647 108.568C285.647 108.764 285.569 108.951 285.432 109.089C285.294 109.227 285.107 109.305 284.912 109.306Z" fill="white"/>
    <path d="M284.912 106.72H277.062C276.866 106.719 276.68 106.641 276.542 106.503C276.404 106.365 276.327 106.178 276.327 105.982C276.327 105.787 276.404 105.6 276.542 105.462C276.68 105.323 276.866 105.246 277.062 105.245H284.912C285.107 105.246 285.294 105.323 285.432 105.462C285.569 105.6 285.647 105.787 285.647 105.982C285.647 106.178 285.569 106.365 285.432 106.503C285.294 106.641 285.107 106.719 284.912 106.72Z" fill="white"/>
    <path d="M79.4631 115.009C109.594 115.009 134.021 90.5541 134.021 60.3874C134.021 30.2206 109.594 5.76562 79.4631 5.76562C49.3317 5.76562 24.9055 30.2206 24.9055 60.3874C24.9055 90.5541 49.3317 115.009 79.4631 115.009Z" fill="#F2F2F2"/>
    <path d="M142.737 113.393C148.442 113.393 153.067 108.763 153.067 103.051C153.067 97.3385 148.442 92.708 142.737 92.708C137.032 92.708 132.406 97.3385 132.406 103.051C132.406 108.763 137.032 113.393 142.737 113.393Z" fill="#F2F2F2"/>
    <path d="M194.712 136.664C197.03 136.664 198.909 134.783 198.909 132.462C198.909 130.142 197.03 128.261 194.712 128.261C192.394 128.261 190.515 130.142 190.515 132.462C190.515 134.783 192.394 136.664 194.712 136.664Z" fill="#F2F2F2"/>
    <path d="M227.115 148.987C225.346 135.448 216.872 122.15 203.936 117.823C209.116 131.738 209.212 147.038 204.209 161.018C202.26 166.402 199.532 172.187 201.432 177.589C202.615 180.95 205.471 183.509 208.656 185.1C211.84 186.691 215.368 187.437 218.852 188.167L219.54 188.73C224.983 176.209 228.885 162.527 227.115 148.987Z" fill="#F2F2F2"/>
    <path d="M203.809 118.081C211.38 126.465 216.12 137.025 217.355 148.26C217.605 150.668 217.65 153.133 217.139 155.512C216.623 157.827 215.497 159.961 213.879 161.693C212.402 163.339 210.701 164.851 209.65 166.827C208.542 168.91 208.514 171.268 209.295 173.468C210.252 176.16 212.118 178.347 214.016 180.422C216.125 182.726 218.351 185.086 219.26 188.152C219.37 188.524 219.94 188.331 219.83 187.96C218.247 182.625 213.045 179.621 210.543 174.823C209.375 172.584 208.874 169.979 209.94 167.6C210.872 165.52 212.625 163.96 214.135 162.307C215.72 160.571 216.931 158.67 217.547 156.382C218.177 154.041 218.229 151.569 218.042 149.164C217.576 143.715 216.257 138.373 214.134 133.334C211.743 127.57 208.385 122.258 204.204 117.627C203.946 117.341 203.552 117.796 203.809 118.081Z" fill="white"/>
    <path d="M217.17 144.618C219.025 144.155 220.655 143.047 221.768 141.491C222.882 139.936 223.407 138.035 223.25 136.128C223.217 135.742 222.617 135.775 222.65 136.162C222.799 137.937 222.31 139.708 221.27 141.154C220.23 142.6 218.708 143.627 216.978 144.048C216.603 144.14 216.797 144.71 217.17 144.618Z" fill="white"/>
    <path d="M214.737 160.958C211.37 158.974 208.872 155.792 207.744 152.047C207.633 151.676 207.063 151.868 207.174 152.239C208.356 156.134 210.961 159.44 214.47 161.497C214.805 161.693 215.07 161.153 214.737 160.958Z" fill="white"/>
    <path d="M211.189 128.144C210.509 128.473 209.758 128.628 209.003 128.594C208.248 128.561 207.514 128.34 206.865 127.952C206.533 127.752 206.268 128.292 206.598 128.491C207.317 128.916 208.128 129.159 208.962 129.198C209.796 129.237 210.626 129.071 211.381 128.714C211.455 128.686 211.516 128.632 211.551 128.561C211.586 128.49 211.593 128.408 211.57 128.333C211.544 128.257 211.49 128.195 211.418 128.16C211.347 128.125 211.265 128.119 211.189 128.144Z" fill="white"/>
    <path d="M164.745 142.28C164.949 142.41 165.153 142.541 165.357 142.677C168.087 144.449 170.668 146.441 173.076 148.631C173.265 148.798 173.454 148.969 173.638 149.141C179.382 154.481 184.087 160.842 187.512 167.902C188.872 170.712 190.017 173.622 190.936 176.606C192.206 180.728 193.255 185.298 195.737 188.66C195.992 189.013 196.269 189.351 196.565 189.67L218.802 189.528C218.852 189.502 218.903 189.481 218.953 189.456L219.841 189.491C219.805 189.333 219.763 189.171 219.727 189.014C219.706 188.923 219.68 188.831 219.659 188.74C219.643 188.679 219.628 188.618 219.617 188.563C219.612 188.542 219.607 188.522 219.602 188.507C219.591 188.451 219.575 188.4 219.565 188.35C219.336 187.442 219.1 186.534 218.858 185.626C218.858 185.621 218.858 185.621 218.853 185.616C216.987 178.705 214.528 171.889 211.115 165.663C211.012 165.476 210.909 165.283 210.797 165.096C209.242 162.298 207.462 159.632 205.474 157.125C204.381 155.755 203.22 154.442 201.994 153.19C198.821 149.962 195.16 147.253 191.146 145.163C183.144 140.998 173.9 139.442 165.393 142.072C165.176 142.14 164.963 142.207 164.745 142.28Z" fill="#F2F2F2"/>
    <path d="M164.797 142.562C175.884 144.692 186.019 150.267 193.761 158.492C195.409 160.265 196.927 162.206 197.949 164.414C198.93 166.573 199.314 168.956 199.064 171.314C198.874 173.518 198.425 175.75 198.774 177.962C199.142 180.293 200.538 182.193 202.485 183.478C204.868 185.051 207.672 185.672 210.436 186.185C213.505 186.754 216.702 187.296 219.272 189.196C219.583 189.427 219.922 188.929 219.611 188.699C215.139 185.393 209.179 186.131 204.296 183.808C202.017 182.724 200.05 180.946 199.471 178.404C198.965 176.182 199.426 173.879 199.637 171.65C199.859 169.308 199.683 167.06 198.798 164.862C197.894 162.613 196.448 160.608 194.853 158.801C191.204 154.731 186.939 151.261 182.214 148.517C176.838 145.356 170.962 143.139 164.84 141.961C164.461 141.888 164.421 142.489 164.797 142.562Z" fill="white"/>
    <path d="M191.424 155.696C192.626 154.208 193.261 152.341 193.215 150.428C193.168 148.514 192.445 146.68 191.172 145.252C190.914 144.964 190.455 145.352 190.713 145.641C191.901 146.968 192.575 148.677 192.614 150.459C192.653 152.241 192.055 153.978 190.927 155.356C190.683 155.656 191.181 155.994 191.424 155.696Z" fill="white"/>
    <path d="M199.307 170.209C195.425 170.655 191.518 169.619 188.364 167.309C188.052 167.08 187.713 167.577 188.025 167.806C191.311 170.204 195.379 171.273 199.418 170.8C199.803 170.755 199.69 170.164 199.307 170.209Z" fill="white"/>
    <path d="M176.741 146.147C176.396 146.82 175.889 147.396 175.266 147.824C174.643 148.253 173.924 148.519 173.173 148.6C172.788 148.641 172.901 149.232 173.284 149.192C174.113 149.098 174.907 148.803 175.597 148.331C176.286 147.86 176.849 147.226 177.237 146.487C177.28 146.42 177.295 146.34 177.281 146.262C177.266 146.184 177.222 146.115 177.159 146.068C177.093 146.024 177.012 146.007 176.934 146.022C176.855 146.037 176.786 146.082 176.741 146.147Z" fill="white"/>
    <path d="M271.397 96.0729L268.39 66.9314L267.596 54.9378L276.013 53.4141C276.013 53.4141 277.273 61.6591 278.376 66.4977C279.464 71.2723 276.926 95.4331 276.859 96.0703C277.477 96.6236 277.913 97.3519 278.109 98.1586C278.305 98.9653 278.251 99.8126 277.955 100.588C277.66 101.364 277.136 102.031 276.453 102.502C275.77 102.973 274.961 103.226 274.131 103.226C273.302 103.227 272.492 102.975 271.809 102.505C271.126 102.034 270.601 101.367 270.305 100.592C270.009 99.8165 269.954 98.9693 270.149 98.1624C270.344 97.3555 270.779 96.6268 271.397 96.0729Z" fill="#FFB8B8"/>
    <path d="M237.002 185.55H232.72L230.683 169.015L237.003 169.015L237.002 185.55Z" fill="#FFB6B6"/>
    <path d="M238.094 189.705L224.288 189.705V189.53C224.288 188.103 224.854 186.735 225.862 185.726C226.869 184.717 228.236 184.15 229.661 184.15H229.662L232.184 182.234L236.889 184.15L238.094 184.15L238.094 189.705Z" fill="#41352E"/>
    <path d="M274.74 185.55H270.458L268.421 169.015L274.74 169.015L274.74 185.55Z" fill="#FFB6B6"/>
    <path d="M275.832 189.705L262.025 189.705V189.53C262.025 188.103 262.591 186.735 263.599 185.726C264.607 184.717 265.974 184.15 267.399 184.15H267.399L269.921 182.234L274.627 184.15L275.832 184.15L275.832 189.705Z" fill="#41352E"/>
    <path d="M268.227 97.0518L271.829 131.305C271.829 131.305 276.623 165.603 275.723 170.335C274.822 175.068 275.948 175.744 275.948 175.744L267.732 175.158C267.732 175.158 267.957 172.228 266.607 170.876C265.256 169.524 265.932 165.468 265.932 165.468L249.995 109.672L240.316 138.967C240.316 138.967 238.741 171.193 238.516 171.643C238.291 172.094 237.615 178.179 237.615 178.179H229.287C229.287 178.179 230.412 174.573 228.837 173.446C227.261 172.319 225.911 173.221 227.261 171.193C228.612 169.165 229.062 166.686 228.612 165.559C228.162 164.432 228.162 159.925 228.162 159.925C228.162 159.925 228.837 99.08 232.663 97.0518C236.49 95.0236 268.227 97.0518 268.227 97.0518Z" fill="#41352E"/>
    <path d="M251.172 27.6976C256.064 27.6976 260.03 23.7271 260.03 18.8293C260.03 13.9314 256.064 9.96094 251.172 9.96094C246.28 9.96094 242.314 13.9314 242.314 18.8293C242.314 23.7271 246.28 27.6976 251.172 27.6976Z" fill="#FFB8B8"/>
    <path d="M277.432 58.0633L268.72 61.1913L266.067 62.1432L264.13 37.377L270.777 40.9062C270.788 40.9145 270.798 40.9243 270.806 40.9355C271.957 42.2082 272.921 43.6393 273.667 45.1852C277.312 52.604 277.432 58.0633 277.432 58.0633Z" fill="#56493D"/>
    <path d="M217.417 93.9807C217.417 93.9807 226.271 66.4376 226.426 66.1073C227.586 57.2901 230.922 53.4007 231.422 53.8229L240.031 56.8089C240.031 56.8089 237.47 64.9275 235.736 69.7499C234.079 74.3578 222.733 95.6321 222.415 96.1878C222.757 96.944 222.862 97.7865 222.715 98.6036C222.569 99.4207 222.178 100.174 221.594 100.764C221.011 101.354 220.262 101.753 219.448 101.907C218.633 102.062 217.79 101.965 217.032 101.63C216.273 101.295 215.634 100.738 215.199 100.031C214.764 99.3242 214.553 98.5019 214.595 97.6728C214.636 96.8436 214.929 96.0467 215.433 95.3875C215.937 94.7282 216.629 94.2377 217.417 93.9807Z" fill="#FFB8B8"/>
    <path d="M244.166 38.972C244.166 38.972 236.713 35.3147 233.822 42.4979C231.928 47.3422 231.032 49.4553 229.768 54.5009C229.768 54.5009 237.365 55.6421 239.802 59.9407L244.166 38.972Z" fill="#56493D"/>
    <path d="M271.289 100.786C254.134 104.333 231.401 98.2352 231.401 98.2352L237.465 71.9166L235.309 44.3738C235.046 41.0057 236.962 37.8484 239.943 36.7296L244.059 35.1861L247.461 30.3096L257.179 30.6288L261.064 35.7484L264.13 37.3768L270.777 40.9061L270.806 40.9207V40.9354L268.72 61.1912L267.462 73.4045C267.462 73.4045 271.283 87.1407 270.499 88.9624C269.715 90.7812 270.396 89.9026 270.586 90.8749C270.777 91.8473 271.359 91.9088 271.446 93.8243C271.537 95.7369 271.289 100.786 271.289 100.786Z" fill="#56493D"/>
    <path d="M260.781 15.6709C260.081 14.9796 261.135 13.1492 260.936 12.1851C260.707 11.0797 259.491 11.0474 259.2 9.95668C258.888 8.78336 257.64 8.14461 256.485 7.77275C253.525 6.82467 250.368 6.67986 247.334 7.35312C245.991 7.68134 244.669 8.08906 243.375 8.5741C242.481 8.88894 243.343 8.0322 242.45 8.34704C242.111 8.42252 241.813 8.62078 241.612 8.90356C241.451 9.20763 241.668 9.69394 242.006 9.63234C240.915 10.114 239.824 10.5956 238.733 11.0772C239.345 11.7188 239.957 12.3604 240.569 13.0021C239.699 12.7543 238.772 13.7925 239.115 14.6301C239.253 14.8946 239.453 15.1215 239.698 15.2913C239.943 15.4611 240.225 15.5687 240.521 15.6049C241.504 15.7963 240.758 16.7325 241.759 16.7143C242.76 16.696 249.739 14.642 250.226 15.5179C250.572 16.1415 250.534 16.9676 251.029 17.4815C251.662 18.1388 252.767 17.8984 253.573 17.4704C254.378 17.0425 255.195 16.4543 256.101 16.5569C257.048 16.664 257.763 18.4144 257.996 19.3388C258.229 20.2631 258.082 21.2356 257.934 22.1773C257.739 23.414 255.789 24.6507 255.594 25.8873C257.758 26.4866 260.08 24.58 260.936 21.2645C260.85 19.1686 262.272 17.1442 260.781 15.6709Z" fill="#41352E"/>
    <path d="M123.077 130.847C97.0006 130.849 74.3128 111.374 70.9611 84.8107L71.6017 84.7296C74.912 110.965 97.3235 130.199 123.077 130.201C125.265 130.201 127.451 130.063 129.622 129.787C158.026 126.195 178.215 100.137 174.627 71.6993L175.267 71.6182C178.9 100.409 158.46 126.792 129.703 130.429C127.505 130.707 125.292 130.847 123.077 130.847Z" fill="#56493D"/>
    <path d="M124.477 141.659H114.21C113.99 141.659 113.774 141.61 113.576 141.515C113.379 141.419 113.205 141.28 113.069 141.108C112.934 140.941 112.839 140.745 112.791 140.535C112.742 140.325 112.742 140.107 112.79 139.898C113.764 135.593 113.707 131.118 112.622 126.84C112.548 126.544 112.569 126.233 112.682 125.95C112.795 125.667 112.995 125.427 113.252 125.265C116.804 123.062 120.672 123.131 125.077 125.475C125.277 125.581 125.45 125.731 125.583 125.915C125.715 126.099 125.804 126.31 125.841 126.534C126.571 131.128 126.596 135.806 125.917 140.407C125.868 140.755 125.696 141.073 125.431 141.303C125.166 141.533 124.827 141.66 124.477 141.659Z" fill="#FFA563"/>
    <path d="M77.667 86.7137H67.3999C67.1806 86.7141 66.964 86.6649 66.7663 86.5695C66.5687 86.4742 66.3952 86.3354 66.2589 86.1634C66.1241 85.9957 66.0291 85.7997 65.9808 85.59C65.9326 85.3804 65.9324 85.1625 65.9803 84.9528C66.9582 80.633 66.8967 76.1425 65.8011 71.8512C65.7318 71.5687 65.7485 71.2719 65.8492 70.9989C65.9499 70.726 66.1298 70.4895 66.3659 70.3198C71.6452 66.5184 75.8029 66.6287 78.7234 70.6482C78.8551 70.8314 78.9426 71.0427 78.979 71.2654C79.7593 75.9622 79.8025 80.7522 79.1069 85.4623C79.0586 85.81 78.8861 86.1283 78.6213 86.3583C78.3566 86.5884 78.0176 86.7146 77.667 86.7137Z" fill="#CCCCCC"/>
    <path d="M119.68 132.011H116.148C115.953 132.01 115.766 131.932 115.628 131.794C115.49 131.656 115.413 131.469 115.413 131.273C115.413 131.078 115.49 130.891 115.628 130.753C115.766 130.614 115.953 130.537 116.148 130.536H119.68C119.875 130.536 120.062 130.614 120.2 130.752C120.338 130.89 120.416 131.078 120.416 131.273C120.416 131.469 120.338 131.656 120.2 131.795C120.062 131.933 119.875 132.011 119.68 132.011Z" fill="white"/>
    <path d="M123.998 134.925H116.148C115.953 134.924 115.766 134.846 115.628 134.708C115.49 134.57 115.413 134.383 115.413 134.187C115.413 133.992 115.49 133.805 115.628 133.667C115.766 133.528 115.953 133.451 116.148 133.45H123.998C124.193 133.451 124.38 133.528 124.518 133.667C124.656 133.805 124.733 133.992 124.733 134.187C124.733 134.383 124.656 134.57 124.518 134.708C124.38 134.846 124.193 134.924 123.998 134.925Z" fill="white"/>
    <path d="M74.484 76.4198H70.9521C70.757 76.4194 70.5701 76.3416 70.4324 76.2034C70.2946 76.0651 70.2172 75.8778 70.2172 75.6826C70.2172 75.4873 70.2946 75.3 70.4324 75.1618C70.5701 75.0236 70.757 74.9457 70.9521 74.9453H74.484C74.679 74.9457 74.8659 75.0236 75.0037 75.1618C75.1415 75.3 75.2188 75.4873 75.2188 75.6826C75.2188 75.8778 75.1415 76.0651 75.0037 76.2034C74.8659 76.3416 74.679 76.4194 74.484 76.4198Z" fill="white"/>
    <path d="M74.484 79.0048H70.9521C70.757 79.0044 70.5701 78.9265 70.4324 78.7883C70.2946 78.6501 70.2172 78.4628 70.2172 78.2675C70.2172 78.0723 70.2946 77.885 70.4324 77.7468C70.5701 77.6085 70.757 77.5307 70.9521 77.5303H74.484C74.679 77.5307 74.8659 77.6085 75.0037 77.7468C75.1415 77.885 75.2188 78.0723 75.2188 78.2675C75.2188 78.4628 75.1415 78.6501 75.0037 78.7883C74.8659 78.9265 74.679 79.0044 74.484 79.0048Z" fill="white"/>
    <path d="M74.484 81.5907H70.9521C70.757 81.5903 70.5701 81.5125 70.4324 81.3743C70.2946 81.236 70.2172 81.0487 70.2172 80.8535C70.2172 80.6582 70.2946 80.4709 70.4324 80.3327C70.5701 80.1945 70.757 80.1166 70.9521 80.1162H74.484C74.679 80.1166 74.8659 80.1945 75.0037 80.3327C75.1415 80.4709 75.2188 80.6582 75.2188 80.8535C75.2188 81.0487 75.1415 81.236 75.0037 81.3743C74.8659 81.5125 74.679 81.5903 74.484 81.5907Z" fill="white"/>
    <path d="M215.85 98.8575H183.03C182.15 98.8565 181.307 98.5062 180.685 97.8835C180.063 97.2608 179.713 96.4166 179.712 95.5359V75.2981C179.713 74.4174 180.063 73.5732 180.685 72.9505C181.307 72.3278 182.15 71.9776 183.03 71.9766H215.85C216.73 71.9776 217.573 72.3278 218.195 72.9505C218.817 73.5732 219.167 74.4175 219.168 75.2981V95.5359C219.167 96.4166 218.817 97.2608 218.195 97.8835C217.573 98.5062 216.73 98.8565 215.85 98.8575Z" fill="#E6E6E6"/>
    <path d="M202.81 96.2504H185.337C184.513 96.2495 183.723 95.9215 183.141 95.3383C182.558 94.7551 182.231 93.9644 182.23 93.1397V77.6937C182.231 76.869 182.558 76.0783 183.141 75.4951C183.723 74.9119 184.513 74.5839 185.337 74.583H213.543C214.367 74.5839 215.157 74.912 215.739 75.4951C216.322 76.0783 216.649 76.869 216.65 77.6937V82.3942C216.646 86.0679 215.186 89.5898 212.592 92.1875C209.997 94.7851 206.479 96.2463 202.81 96.2504Z" fill="white"/>
    <path d="M210.729 83.0409H188.151C187.955 83.0409 187.768 82.9632 187.63 82.8249C187.492 82.6867 187.414 82.4992 187.414 82.3036C187.414 82.1081 187.492 81.9206 187.63 81.7823C187.768 81.6441 187.955 81.5664 188.151 81.5664H210.729C210.925 81.5664 211.112 81.6441 211.25 81.7823C211.388 81.9206 211.466 82.1081 211.466 82.3036C211.466 82.4992 211.388 82.6867 211.25 82.8249C211.112 82.9632 210.925 83.0409 210.729 83.0409Z" fill="#FFA563"/>
    <path d="M191.683 85.954H188.151C187.956 85.9536 187.769 85.8758 187.631 85.7375C187.493 85.5993 187.416 85.412 187.416 85.2168C187.416 85.0215 187.493 84.8342 187.631 84.696C187.769 84.5578 187.956 84.4799 188.151 84.4795H191.683C191.878 84.4799 192.064 84.5578 192.202 84.696C192.34 84.8342 192.417 85.0215 192.417 85.2168C192.417 85.412 192.34 85.5993 192.202 85.7375C192.064 85.8758 191.878 85.9536 191.683 85.954Z" fill="#FFA563"/>
    <path d="M197.938 88.8671H188.151C187.955 88.8671 187.768 88.7894 187.63 88.6512C187.492 88.5129 187.414 88.3254 187.414 88.1298C187.414 87.9343 187.492 87.7468 187.63 87.6085C187.768 87.4703 187.955 87.3926 188.151 87.3926H197.938C198.133 87.3926 198.321 87.4703 198.459 87.6085C198.597 87.7468 198.674 87.9343 198.674 88.1298C198.674 88.3254 198.597 88.5129 198.459 88.6512C198.321 88.7894 198.133 88.8671 197.938 88.8671Z" fill="#FFA563"/>
    <path d="M178.567 78.5239C182.401 78.5239 185.51 75.4119 185.51 71.573C185.51 67.7341 182.401 64.6221 178.567 64.6221C174.733 64.6221 171.624 67.7341 171.624 71.573C171.624 75.4119 174.733 78.5239 178.567 78.5239Z" fill="#56493D"/>
    <path d="M99.9749 18.6977C100.435 16.362 101.349 14.1399 102.666 12.1582C103.984 10.1764 105.678 8.47389 107.653 7.14773C111.641 4.46943 116.528 3.48686 121.239 4.41617C123.572 4.87632 125.792 5.79199 127.771 7.11091C129.751 8.42983 131.451 10.1262 132.776 12.1031C134.1 14.08 135.023 16.2987 135.491 18.6326C135.959 20.9666 135.964 23.3699 135.504 25.7056L134.87 25.5806C135.765 21.0319 134.819 16.3135 132.239 12.4633C129.66 8.61321 125.658 5.94676 121.115 5.05058C116.571 4.15441 111.858 5.10191 108.013 7.68466C104.167 10.2674 101.504 14.2738 100.609 18.8226L99.9749 18.6977Z" fill="#56493D"/>
    <path d="M106.85 30.1341L96.5921 30.5594C96.373 30.569 96.1545 30.5288 95.9531 30.4417C95.7517 30.3547 95.5726 30.2231 95.4293 30.0569C95.2878 29.895 95.1847 29.7031 95.1278 29.4956C95.071 29.2881 95.0618 29.0704 95.101 28.8589C95.8882 24.5613 95.6588 20.1388 94.4311 15.9459C94.3363 15.6253 94.3556 15.2816 94.4855 14.9736C94.6155 14.6655 94.8482 14.4121 95.1439 14.2566C99.3456 12.071 103.283 11.9602 106.845 13.9268C107.032 14.0284 107.194 14.1695 107.321 14.3403C107.447 14.5111 107.535 14.7075 107.578 14.9158C108.505 19.4911 108.728 24.1815 108.237 28.8242C108.203 29.1735 108.044 29.4987 107.789 29.7395C107.534 29.9804 107.201 30.1205 106.85 30.1341Z" fill="#FFA563"/>
    <path d="M106.416 23.4124L98.5727 23.7376C98.476 23.7417 98.3795 23.7267 98.2886 23.6934C98.1977 23.6601 98.1143 23.6093 98.0431 23.5437C97.9719 23.4781 97.9143 23.3991 97.8735 23.3112C97.8328 23.2234 97.8098 23.1283 97.8058 23.0315C97.8018 22.9347 97.8169 22.8381 97.8502 22.7472C97.8835 22.6562 97.9344 22.5727 98 22.5015C98.0655 22.4302 98.1445 22.3726 98.2323 22.3319C98.3201 22.2912 98.4151 22.2683 98.5117 22.2644L106.355 21.9391C106.452 21.9351 106.548 21.9502 106.639 21.9835C106.73 22.0168 106.813 22.0677 106.885 22.1333C106.956 22.1989 107.013 22.2778 107.054 22.3657C107.095 22.4535 107.118 22.5485 107.122 22.6452C107.126 22.742 107.111 22.8385 107.077 22.9295C107.044 23.0204 106.993 23.1038 106.928 23.175C106.862 23.2463 106.783 23.3039 106.696 23.3446C106.608 23.3854 106.513 23.4084 106.416 23.4124Z" fill="white"/>
    <path d="M106.309 20.8284L98.4658 21.1536C98.2706 21.1617 98.0803 21.0919 97.9366 20.9595C97.7929 20.827 97.7076 20.6429 97.6995 20.4475C97.6915 20.2521 97.7612 20.0616 97.8935 19.9177C98.0258 19.7738 98.2097 19.6885 98.4048 19.6804L106.248 19.3551C106.444 19.347 106.634 19.4169 106.778 19.5493C106.921 19.6817 107.007 19.8659 107.015 20.0612C107.023 20.2566 106.953 20.4472 106.821 20.5911C106.688 20.7349 106.505 20.8203 106.309 20.8284Z" fill="white"/>
    <path d="M173.984 26.8809H141.164C140.285 26.8799 139.442 26.5296 138.82 25.9069C138.198 25.2843 137.848 24.44 137.847 23.5594V3.32151C137.848 2.4409 138.198 1.59664 138.82 0.973952C139.442 0.351263 140.285 0.000998308 141.164 0H173.984C174.864 0.000994884 175.707 0.351258 176.329 0.973947C176.951 1.59664 177.301 2.4409 177.302 3.32151V23.5594C177.301 24.44 176.951 25.2843 176.329 25.907C175.707 26.5296 174.864 26.8799 173.984 26.8809Z" fill="#E6E6E6"/>
    <path d="M160.944 24.2738H143.471C142.648 24.2729 141.858 23.9449 141.275 23.3617C140.693 22.7786 140.365 21.9879 140.364 21.1631V5.71714C140.365 4.8924 140.693 4.10171 141.275 3.51854C141.858 2.93538 142.648 2.60735 143.471 2.60645H171.677C172.501 2.60736 173.291 2.93539 173.873 3.51856C174.456 4.10173 174.784 4.89241 174.785 5.71714V10.4177C174.78 14.0913 173.321 17.6133 170.726 20.2109C168.132 22.8085 164.614 24.2697 160.944 24.2738Z" fill="white"/>
    <path d="M168.864 11.0653H146.285C146.09 11.0653 145.902 10.9876 145.764 10.8494C145.626 10.7111 145.549 10.5236 145.549 10.3281C145.549 10.1325 145.626 9.94501 145.764 9.80675C145.902 9.66849 146.09 9.59082 146.285 9.59082H168.864C169.059 9.59082 169.246 9.66849 169.384 9.80675C169.522 9.94501 169.6 10.1325 169.6 10.3281C169.6 10.5236 169.522 10.7111 169.384 10.8494C169.246 10.9876 169.059 11.0653 168.864 11.0653Z" fill="#FFA563"/>
    <path d="M149.817 13.9775H146.285C146.09 13.9771 145.903 13.8992 145.765 13.761C145.628 13.6228 145.55 13.4355 145.55 13.2402C145.55 13.0449 145.628 12.8576 145.765 12.7194C145.903 12.5812 146.09 12.5033 146.285 12.5029H149.817C150.012 12.5033 150.199 12.5812 150.337 12.7194C150.474 12.8576 150.552 13.0449 150.552 13.2402C150.552 13.4355 150.474 13.6228 150.337 13.761C150.199 13.8992 150.012 13.9771 149.817 13.9775Z" fill="#FFA563"/>
    <path d="M156.072 16.8905H146.285C146.09 16.8905 145.903 16.8129 145.764 16.6746C145.626 16.5363 145.549 16.3488 145.549 16.1533C145.549 15.9577 145.626 15.7702 145.764 15.632C145.903 15.4937 146.09 15.416 146.285 15.416H156.072C156.267 15.4164 156.454 15.4943 156.592 15.6325C156.73 15.7707 156.807 15.958 156.807 16.1533C156.807 16.3486 156.73 16.5358 156.592 16.6741C156.454 16.8123 156.267 16.8901 156.072 16.8905Z" fill="#FFA563"/>
    <path d="M141.747 30.3841C143.772 27.1238 142.773 22.8379 139.516 20.8112C136.26 18.7845 131.979 19.7846 129.955 23.0449C127.93 26.3052 128.929 30.5912 132.186 32.6178C135.442 34.6445 139.723 33.6444 141.747 30.3841Z" fill="#56493D"/>
    <path d="M291.703 190H196.317C196.239 190 196.163 189.968 196.108 189.913C196.052 189.857 196.021 189.781 196.021 189.702C196.021 189.624 196.052 189.548 196.108 189.492C196.163 189.437 196.239 189.405 196.317 189.405H291.703C291.782 189.405 291.857 189.437 291.913 189.492C291.969 189.548 292 189.624 292 189.702C292 189.781 291.969 189.857 291.913 189.913C291.857 189.968 291.782 190 291.703 190Z" fill="#CCCCCC"/>
    <path d="M43.3647 80.941C40.5162 73.4021 40.7757 65.039 44.0861 57.6917C47.3966 50.3443 53.4867 44.6145 61.0168 41.7627C68.5469 38.9109 76.9001 39.1707 84.2388 42.485C91.5776 45.7993 97.3007 51.8966 100.149 59.4355L99.5451 59.6643C98.1647 56.0109 96.079 52.6654 93.4072 49.8188C90.7354 46.9723 87.5298 44.6806 83.9733 43.0744C80.4169 41.4682 76.5792 40.5791 72.6796 40.4578C68.7799 40.3365 64.8945 40.9854 61.2453 42.3674C57.5961 43.7494 54.2546 45.8375 51.4114 48.5125C48.5682 51.1874 46.2792 54.3968 44.6749 57.9575C43.0706 61.5181 42.1825 65.3602 42.0614 69.2645C41.9402 73.1688 42.5883 77.0587 43.9687 80.7122L43.3647 80.941Z" fill="#56493D"/>
    <path d="M69.9192 50.8374H59.6521C59.4328 50.8379 59.2162 50.7886 59.0186 50.6933C58.8209 50.598 58.6474 50.4592 58.5111 50.2871C58.3763 50.1195 58.2813 49.9235 58.2331 49.7138C58.1848 49.5042 58.1846 49.2863 58.2325 49.0765C59.2045 44.7818 59.1495 40.3179 58.0721 36.0484C57.9957 35.7463 58.0191 35.4275 58.1388 35.1398C58.2586 34.8521 58.4682 34.611 58.7363 34.4526C62.4554 32.2852 66.4271 32.3513 70.5406 34.6497C70.7353 34.756 70.9032 34.9055 71.0315 35.0866C71.1598 35.2678 71.2451 35.4759 71.2808 35.6951C72.013 40.2944 72.0394 44.9788 71.3592 49.5861C71.3108 49.9338 71.1383 50.2521 70.8736 50.4821C70.6088 50.7122 70.2698 50.8384 69.9192 50.8374Z" fill="#FFA563"/>
    <path d="M65.122 40.8671H61.5901C61.395 40.8667 61.2081 40.7888 61.0704 40.6506C60.9326 40.5124 60.8552 40.3251 60.8552 40.1298C60.8552 39.9346 60.9326 39.7473 61.0704 39.6091C61.2081 39.4708 61.395 39.393 61.5901 39.3926H65.122C65.317 39.393 65.5039 39.4708 65.6417 39.6091C65.7795 39.7473 65.8568 39.9346 65.8568 40.1298C65.8568 40.3251 65.7795 40.5124 65.6417 40.6506C65.5039 40.7888 65.317 40.8667 65.122 40.8671Z" fill="white"/>
    <path d="M69.4404 43.7802H61.5901C61.3948 43.7802 61.2075 43.7025 61.0694 43.5643C60.9313 43.426 60.8537 43.2385 60.8537 43.0429C60.8537 42.8474 60.9313 42.6599 61.0694 42.5216C61.2075 42.3833 61.3948 42.3057 61.5901 42.3057H69.4404C69.6355 42.3061 69.8224 42.3839 69.9601 42.5222C70.0979 42.6604 70.1753 42.8477 70.1753 43.0429C70.1753 43.2382 70.0979 43.4255 69.9601 43.5637C69.8224 43.7019 69.6355 43.7798 69.4404 43.7802Z" fill="white"/>
    <path d="M36.1377 80.5332H3.31759C2.43801 80.5322 1.59475 80.182 0.972793 79.5593C0.350839 78.9366 0.000992001 78.0923 0 77.2117V56.9739C0.000992001 56.0932 0.350839 55.249 0.972793 54.6263C1.59475 54.0036 2.43801 53.6533 3.31759 53.6523H36.1377C37.0173 53.6533 37.8606 54.0036 38.4825 54.6263C39.1045 55.249 39.4543 56.0932 39.4553 56.9739V77.2117C39.4543 78.0924 39.1045 78.9366 38.4825 79.5593C37.8606 80.182 37.0173 80.5323 36.1377 80.5332Z" fill="#E6E6E6"/>
    <path d="M23.0978 77.9262H5.62466C4.80088 77.9253 4.0111 77.5972 3.42859 77.0141C2.84608 76.4309 2.51841 75.6402 2.51746 74.8155V59.3695C2.51841 58.5447 2.84608 57.754 3.42859 57.1709C4.0111 56.5877 4.80088 56.2597 5.62466 56.2588H33.8308C34.6546 56.2597 35.4443 56.5877 36.0268 57.1709C36.6093 57.7541 36.9369 58.5447 36.9378 59.3695V64.07C36.9337 67.7436 35.4742 71.2656 32.8796 73.8632C30.2849 76.4609 26.7671 77.922 23.0978 77.9262Z" fill="white"/>
    <path d="M31.017 64.7167H8.43833C8.24304 64.7167 8.05574 64.639 7.91764 64.5007C7.77955 64.3625 7.70197 64.1749 7.70197 63.9794C7.70197 63.7839 7.77955 63.5964 7.91764 63.4581C8.05574 63.3199 8.24304 63.2422 8.43833 63.2422H31.017C31.2123 63.2422 31.3996 63.3199 31.5376 63.4581C31.6757 63.5964 31.7533 63.7839 31.7533 63.9794C31.7533 64.1749 31.6757 64.3625 31.5376 64.5007C31.3996 64.639 31.2123 64.7167 31.017 64.7167Z" fill="#FFA563"/>
    <path d="M11.9702 67.6298H8.43835C8.24331 67.6294 8.0564 67.5515 7.91863 67.4133C7.78086 67.2751 7.70349 67.0878 7.70349 66.8925C7.70349 66.6973 7.78086 66.51 7.91863 66.3718C8.0564 66.2335 8.24331 66.1557 8.43835 66.1553H11.9702C12.1653 66.1557 12.3522 66.2335 12.49 66.3718C12.6277 66.51 12.7051 66.6973 12.7051 66.8925C12.7051 67.0878 12.6277 67.2751 12.49 67.4133C12.3522 67.5515 12.1653 67.6294 11.9702 67.6298Z" fill="#FFA563"/>
    <path d="M18.2256 70.5429H8.43835C8.24331 70.5425 8.0564 70.4646 7.91863 70.3264C7.78086 70.1882 7.70349 70.0009 7.70349 69.8056C7.70349 69.6104 7.78086 69.4231 7.91863 69.2848C8.0564 69.1466 8.24331 69.0688 8.43835 69.0684H18.2256C18.4209 69.0684 18.6083 69.146 18.7464 69.2843C18.8845 69.4226 18.962 69.6101 18.962 69.8056C18.962 70.0012 18.8845 70.1887 18.7464 70.327C18.6083 70.4652 18.4209 70.5429 18.2256 70.5429Z" fill="#FFA563"/>
    <path d="M49.0963 83.39C51.1206 80.1297 50.1217 75.8437 46.8652 73.8171C43.6087 71.7904 39.3278 72.7905 37.3035 76.0508C35.2793 79.3111 36.2782 83.597 39.5346 85.6237C42.7911 87.6504 47.072 86.6503 49.0963 83.39Z" fill="#56493D"/>
    <path d="M105.107 70.2299H94.8402C94.6208 70.2304 94.4042 70.1811 94.2066 70.0858C94.009 69.9905 93.8355 69.8516 93.6991 69.6796C93.5644 69.512 93.4693 69.3159 93.4211 69.1063C93.3729 68.8966 93.3727 68.6787 93.4206 68.469C94.3907 64.1818 94.3377 59.726 93.2658 55.4631C93.1897 55.1568 93.2155 54.8339 93.3392 54.5436C93.463 54.2532 93.6779 54.0112 93.9515 53.8542C98.939 50.9958 102.888 51.0748 106.025 54.0955C106.245 54.311 106.39 54.5916 106.438 54.8958C107.2 59.5563 107.237 64.3068 106.547 68.9786C106.499 69.3262 106.326 69.6445 106.062 69.8746C105.797 70.1046 105.458 70.2309 105.107 70.2299Z" fill="#FFB865"/>
    <path d="M100.956 60.5829H97.4238C97.2288 60.5825 97.0419 60.5047 96.9041 60.3664C96.7663 60.2282 96.689 60.0409 96.689 59.8457C96.689 59.6504 96.7663 59.4631 96.9041 59.3249C97.0419 59.1867 97.2288 59.1088 97.4238 59.1084H100.956C101.151 59.1088 101.338 59.1867 101.475 59.3249C101.613 59.4631 101.691 59.6504 101.691 59.8457C101.691 60.0409 101.613 60.2282 101.475 60.3664C101.338 60.5047 101.151 60.5825 100.956 60.5829Z" fill="white"/>
    <path d="M105.274 63.496H97.4238C97.2285 63.496 97.0412 63.4183 96.9031 63.2801C96.765 63.1418 96.6874 62.9543 96.6874 62.7588C96.6874 62.5632 96.765 62.3757 96.9031 62.2374C97.0412 62.0992 97.2285 62.0215 97.4238 62.0215H105.274C105.469 62.0219 105.656 62.0998 105.794 62.238C105.932 62.3762 106.009 62.5635 106.009 62.7588C106.009 62.954 105.932 63.1413 105.794 63.2795C105.656 63.4178 105.469 63.4956 105.274 63.496Z" fill="white"/>
    </g>
    <defs>
    <clipPath id="clip0_40_1410">
    <rect width="292" height="190" fill="white"/>
    </clipPath>
    </defs>
    </svg>
    