<svg width="20" height="20" viewBox="0 0 20 20" fill="none" xmlns="http://www.w3.org/2000/svg">
    <path d="M13.3333 18.3333H17.7778C19.0033 18.3333 20 17.2654 20 15.9523V11.1904C20 9.8773 19.0033 8.80944 17.7778 8.80944H13.3333V7.61897C13.3333 5.64992 14.8289 4.04754 16.6667 4.04754H17.7778C18.3911 4.04754 18.8889 3.5154 18.8889 2.85706C18.8889 2.19873 18.3911 1.66659 17.7778 1.66659H16.6667C13.6033 1.66659 11.1111 4.33682 11.1111 7.61897L11.1111 15.9523C11.1111 17.2654 12.1078 18.3333 13.3333 18.3333Z" fill="#9CA3AF"/>
    <path d="M2.22222 18.3333L6.66667 18.3333C7.89222 18.3333 8.88889 17.2654 8.88889 15.9523V11.1904C8.88889 9.8773 7.89222 8.80944 6.66667 8.80944H2.22222V7.61897C2.22222 5.64992 3.71778 4.04754 5.55556 4.04754H6.66667C7.28 4.04754 7.77778 3.5154 7.77778 2.85706C7.77778 2.19873 7.28 1.66659 6.66667 1.66659H5.55556C2.49222 1.66659 0 4.33682 0 7.61897V15.9523C0 17.2654 0.996666 18.3333 2.22222 18.3333Z" fill="#9CA3AF"/>
    </svg>
    