<svg width="1440" height="341" viewBox="0 0 1440 341" fill="none" xmlns="http://www.w3.org/2000/svg">
    <path
        d="M247.5 182.853C5.5 168.453 -115.333 269.519 -145.5 321.853L-198 390.353C366.5 408.519 1498.4 445.253 1510 446.853C1524.5 448.853 1526 -83.6472 1477.5 11.3528C1429 106.353 1332.5 99.8528 1209.5 73.8528C1086.5 47.8528 959.5 87.8528 828.5 140.353C697.5 192.853 550 200.853 247.5 182.853Z"
        fill="#B96004" />
    <path
        d="M247.5 232.853C5.5 218.453 -115.333 319.519 -145.5 371.853L-198 440.353C366.5 458.519 1498.4 495.253 1510 496.853C1524.5 498.853 1526 -33.6472 1477.5 61.3528C1429 156.353 1332.5 149.853 1209.5 123.853C1086.5 97.8528 959.5 137.853 828.5 190.353C697.5 242.853 550 250.853 247.5 232.853Z"
        fill="#D88302" />
    <path
        d="M247.5 282.853C5.5 268.453 -115.333 369.519 -145.5 421.853L-198 490.353C366.5 508.519 1498.4 545.253 1510 546.853C1524.5 548.853 1526 16.3528 1477.5 111.353C1429 206.353 1332.5 199.853 1209.5 173.853C1086.5 147.853 959.5 187.853 828.5 240.353C697.5 292.853 550 300.853 247.5 282.853Z"
        fill="#F9FAFB" />
</svg>